G04 PROTEUS RS274X GERBER FILE*
%FSLAX45Y45*%
%MOMM*%
G01*
%ADD10C,0.254000*%
%ADD11C,0.635000*%
%ADD12C,0.762000*%
%ADD13C,1.270000*%
%ADD14C,0.381000*%
%ADD15C,0.304800*%
%ADD16C,0.508000*%
%ADD17C,2.032000*%
%ADD18R,2.540000X2.540000*%
%ADD19C,2.540000*%
%AMPPAD010*
4,1,36,
-0.457200,1.270000,
0.457200,1.270000,
0.519520,1.263940,
0.577160,1.246490,
0.628980,1.218770,
0.673890,1.181890,
0.710760,1.136980,
0.738480,1.085160,
0.755930,1.027520,
0.762000,0.965200,
0.762000,-0.965200,
0.755930,-1.027520,
0.738480,-1.085160,
0.710760,-1.136980,
0.673890,-1.181890,
0.628980,-1.218770,
0.577160,-1.246490,
0.519520,-1.263940,
0.457200,-1.270000,
-0.457200,-1.270000,
-0.519520,-1.263940,
-0.577160,-1.246490,
-0.628980,-1.218770,
-0.673890,-1.181890,
-0.710760,-1.136980,
-0.738480,-1.085160,
-0.755930,-1.027520,
-0.762000,-0.965200,
-0.762000,0.965200,
-0.755930,1.027520,
-0.738480,1.085160,
-0.710760,1.136980,
-0.673890,1.181890,
-0.628980,1.218770,
-0.577160,1.246490,
-0.519520,1.263940,
-0.457200,1.270000,
0*%
%ADD70PPAD010*%
%ADD71R,2.032000X2.032000*%
%ADD20C,3.048000*%
%AMPPAD013*
4,1,36,
1.270000,0.457200,
1.270000,-0.457200,
1.263940,-0.519520,
1.246490,-0.577160,
1.218770,-0.628980,
1.181890,-0.673890,
1.136980,-0.710760,
1.085160,-0.738480,
1.027520,-0.755930,
0.965200,-0.762000,
-0.965200,-0.762000,
-1.027520,-0.755930,
-1.085160,-0.738480,
-1.136980,-0.710760,
-1.181890,-0.673890,
-1.218770,-0.628980,
-1.246490,-0.577160,
-1.263940,-0.519520,
-1.270000,-0.457200,
-1.270000,0.457200,
-1.263940,0.519520,
-1.246490,0.577160,
-1.218770,0.628980,
-1.181890,0.673890,
-1.136980,0.710760,
-1.085160,0.738480,
-1.027520,0.755930,
-0.965200,0.762000,
0.965200,0.762000,
1.027520,0.755930,
1.085160,0.738480,
1.136980,0.710760,
1.181890,0.673890,
1.218770,0.628980,
1.246490,0.577160,
1.263940,0.519520,
1.270000,0.457200,
0*%
%ADD21PPAD013*%
%ADD22C,2.286000*%
%ADD23C,1.778000*%
%ADD24C,1.524000*%
%ADD25C,6.350000*%
%ADD26C,0.203200*%
D10*
X+2486660Y+3423920D02*
X+2486660Y+4137660D01*
X+2857500Y+4508500D01*
X+2857500Y+5270500D01*
X+2984500Y+5397500D01*
X+2984500Y+7048500D01*
X+2921000Y+7112000D01*
X+2921000Y+7683500D01*
X+2984500Y+7747000D01*
X+3619500Y+7747000D01*
X+4127500Y+7239000D01*
X+4508500Y+7239000D01*
X+4572000Y+7302500D01*
X+4572000Y+7747000D01*
X+4635500Y+7810500D01*
X+7419500Y+7810500D01*
X+7483000Y+7747000D01*
X+7483000Y+7493000D01*
D11*
X+2486660Y+3423920D02*
X+2486660Y+2921000D01*
X+2574000Y+2833660D01*
X+2574000Y+2592000D01*
X+3702560Y+929640D02*
X+3881120Y+929640D01*
X+4224020Y+586740D01*
D12*
X+6060440Y+2463800D02*
X+5786986Y+2737254D01*
X+5400906Y+2737254D01*
X+5280660Y+2857500D01*
X+5280660Y+3423920D01*
D11*
X+6060440Y+2463800D02*
X+6540500Y+2463800D01*
X+6744340Y+2667640D01*
X+6897640Y+2667640D01*
X+7112000Y+1206500D02*
X+7302500Y+1016000D01*
X+7620000Y+1016000D01*
D12*
X+8729980Y+584200D02*
X+9288780Y+1143000D01*
X+10287000Y+1143000D01*
X+2740660Y+4947920D02*
X+2740660Y+5397500D01*
X+2810000Y+5466840D01*
X+2810000Y+5715000D01*
D11*
X+11925300Y+8879840D02*
X+11336020Y+8879840D01*
X+11262360Y+8953500D01*
X+11262360Y+9441180D01*
D10*
X+3042820Y+7518080D02*
X+3042820Y+7683500D01*
X+3492500Y+7683500D01*
X+3573593Y+7602407D01*
X+3573593Y+7030907D01*
X+4889500Y+5715000D01*
X+4889500Y+4826000D01*
X+4953000Y+4762500D01*
X+5651500Y+4762500D01*
X+5651500Y+5080000D01*
X+5715000Y+5143500D01*
X+6550660Y+5143500D01*
X+6550660Y+4947920D01*
D11*
X+5280660Y+4947920D02*
X+5280660Y+5334000D01*
X+5344160Y+5397500D01*
X+5905500Y+5397500D01*
X+5969000Y+5461000D01*
X+5969000Y+7493000D01*
X+11932920Y+6319520D02*
X+11641580Y+6319520D01*
X+11424920Y+6536180D01*
D10*
X+11938000Y+7112000D02*
X+12128500Y+6921500D01*
X+12128500Y+3302000D01*
X+12065000Y+3238500D01*
X+8064500Y+3238500D01*
X+7429500Y+3873500D01*
X+7048500Y+3873500D01*
X+6518601Y+4403399D01*
X+4623761Y+4403399D01*
X+4518660Y+4508500D01*
X+4518660Y+4947920D01*
D11*
X+9480000Y+3606000D02*
X+8137600Y+3606000D01*
X+7950000Y+3793600D01*
X+1772820Y+7518080D02*
X+1772820Y+6880760D01*
X+1750060Y+6858000D01*
X+1750060Y+6604000D01*
D10*
X+1750060Y+6603999D01*
D11*
X+2026820Y+7518080D02*
X+2026820Y+6880760D01*
X+2004060Y+6858000D01*
X+2004060Y+6604000D01*
D10*
X+2258059Y+6604000D02*
X+2258060Y+6604000D01*
D11*
X+2258059Y+6962239D01*
X+2280820Y+6985000D01*
X+2280820Y+7518080D01*
D13*
X+2065020Y+9532620D02*
X+2065020Y+9063200D01*
X+2018820Y+9017000D01*
X+2018820Y+8768080D01*
X+2319020Y+9532620D02*
X+2319020Y+9067200D01*
X+2268820Y+9017000D01*
X+2268820Y+8768080D01*
X+2573020Y+9532620D02*
X+2573020Y+9071200D01*
X+2518820Y+9017000D01*
X+2518820Y+8768080D01*
X+2827020Y+9532620D02*
X+2827020Y+9075200D01*
X+2768820Y+9017000D01*
X+2768820Y+8768080D01*
D12*
X+2788820Y+7518080D02*
X+2667001Y+7518080D01*
X+2667000Y+7518079D01*
X+2534820Y+7518079D01*
X+2534820Y+7518080D01*
D11*
X+4699000Y+7493000D02*
X+4699000Y+6985000D01*
X+5080000Y+6604000D01*
X+4953000Y+7493000D02*
X+4953000Y+7175500D01*
X+5334000Y+6794500D01*
X+5334000Y+6604000D01*
X+5588000Y+6604000D02*
X+5588000Y+6921500D01*
X+5207000Y+7302500D01*
X+5207000Y+7493000D01*
D13*
X+4945000Y+8743000D02*
X+4945000Y+9517000D01*
X+4953000Y+9525000D01*
X+5207000Y+9525000D02*
X+5207000Y+8743000D01*
X+5195000Y+8743000D01*
X+5461000Y+9525000D02*
X+5461000Y+9033000D01*
X+5445000Y+9017000D01*
X+5445000Y+8743000D01*
X+5715000Y+9525000D02*
X+5715000Y+9037000D01*
X+5695000Y+9017000D01*
X+5695000Y+8743000D01*
D12*
X+5715000Y+7493000D02*
X+5588001Y+7493000D01*
X+5588000Y+7492999D01*
X+5461000Y+7492999D01*
X+5461000Y+7493000D01*
D11*
X+7991000Y+7493000D02*
X+7991000Y+7048500D01*
X+8064989Y+6974511D01*
X+8445500Y+6974511D01*
X+8509000Y+6911011D01*
X+8509000Y+6604000D01*
X+8245000Y+7493000D02*
X+8245000Y+7302500D01*
X+8308500Y+7239000D01*
X+8699500Y+7239000D01*
X+8763000Y+7175500D01*
X+8763000Y+6604000D01*
D13*
X+7983000Y+8743000D02*
X+7983000Y+9507000D01*
X+8001000Y+9525000D01*
X+8233000Y+8743000D02*
X+8233000Y+9503000D01*
X+8255000Y+9525000D01*
X+8483000Y+8743000D02*
X+8483000Y+9499000D01*
X+8509000Y+9525000D01*
X+8733000Y+8743000D02*
X+8733000Y+9495000D01*
X+8763000Y+9525000D01*
D12*
X+8499000Y+7493000D02*
X+8635999Y+7493000D01*
X+8636000Y+7493001D01*
X+8753000Y+7493001D01*
X+8753000Y+7493000D01*
D13*
X+10230000Y+4356000D02*
X+10795000Y+4356000D01*
X+10830460Y+4320540D01*
X+11734800Y+4320540D01*
X+10229999Y+4356000D02*
X+10230000Y+4356000D01*
X+9504000Y+4356000D01*
X+9480000Y+4380000D01*
X+10230000Y+5380000D02*
X+11049000Y+5380000D01*
X+11107700Y+5321300D01*
X+11734800Y+5321300D01*
X+10229999Y+5380000D02*
X+10230000Y+5380000D01*
X+9480000Y+5380000D01*
X+5969000Y+1751000D02*
X+5751500Y+1968500D01*
X+4787340Y+1968500D01*
X+4723840Y+1790700D02*
X+4723840Y+1968500D01*
X+4787340Y+1968500D01*
X+4723840Y+2436500D02*
X+4723840Y+2032000D01*
X+4787340Y+1968500D01*
X+1768820Y+8768080D02*
X+1768820Y+8177240D01*
X+1524000Y+7932420D01*
X+398780Y+7932420D01*
X+7747000Y+9652000D02*
X+7747000Y+9461500D01*
X+7733000Y+9447500D01*
X+7733000Y+8743000D01*
X+7112000Y+9525000D02*
X+7302500Y+9715500D01*
X+7683500Y+9715500D01*
X+7747000Y+9652000D01*
X+4572000Y+9525000D02*
X+4695000Y+9402000D01*
X+4695000Y+8743000D01*
X+1768820Y+8768080D02*
X+1768820Y+9491420D01*
X+1651000Y+9609240D01*
X+6286500Y+9525000D02*
X+6195000Y+9433500D01*
X+6195000Y+8743000D01*
X+10292080Y+9527540D02*
X+10292080Y+9022080D01*
X+10287000Y+9017000D01*
X+4572000Y+9525000D02*
X+4762500Y+9715500D01*
X+6096000Y+9715500D01*
X+6286500Y+9525000D01*
X+9233000Y+9715500D02*
X+9207500Y+9715500D01*
X+9207500Y+9779000D01*
X+10292080Y+9527540D02*
X+10292080Y+9779000D01*
X+9207500Y+9779000D01*
X+7874000Y+9779000D01*
X+7747000Y+9652000D01*
X+9233000Y+9715500D02*
X+9233000Y+8743000D01*
X+3238500Y+9652000D02*
X+3238500Y+9334500D01*
X+3268820Y+9304180D01*
X+3268820Y+8768080D01*
X+3937000Y+9525000D02*
X+4572000Y+9525000D01*
X+8128000Y+2016000D02*
X+7620000Y+2016000D01*
X+1651000Y+9609240D02*
X+1408180Y+9609240D01*
X+1651000Y+9609240D02*
X+1820760Y+9779000D01*
X+3111500Y+9779000D01*
X+3238500Y+9652000D01*
X+3937000Y+9525000D02*
X+3746500Y+9715500D01*
X+3302000Y+9715500D01*
X+3238500Y+9652000D01*
X+7112000Y+9525000D02*
X+6286500Y+9525000D01*
X+8128000Y+2016000D02*
X+8636000Y+2016000D01*
X+8683500Y+1968500D01*
X+11176000Y+1968500D01*
X+5334000Y+6350000D02*
X+5080000Y+6350000D01*
X+5969000Y+1551000D02*
X+5297500Y+1551000D01*
X+5016500Y+1270000D01*
X+5969000Y+1551000D02*
X+6223000Y+1551000D01*
X+6250000Y+1524000D01*
X+6858000Y+1524000D01*
X+5334000Y+6349999D02*
X+5587999Y+6349999D01*
X+5588000Y+6350000D01*
X+4127500Y+5334000D02*
X+4099560Y+5306060D01*
X+4099560Y+5143500D01*
X+4010660Y+5143500D01*
X+4010660Y+4947920D01*
X+6159501Y+586741D02*
X+6162042Y+584200D01*
X+8475980Y+584200D01*
X+6159501Y+586741D02*
X+6159500Y+586740D01*
X+5240020Y+586740D01*
X+2258060Y+6350000D02*
X+2258060Y+6350001D01*
X+3238500Y+8128000D02*
X+3492500Y+8128000D01*
X+11239500Y+6731000D02*
X+10858500Y+6731000D01*
X+10223500Y+6096000D01*
X+3492500Y+8128000D02*
X+5754500Y+8128000D01*
X+5945000Y+8318500D01*
X+5945000Y+8743000D01*
X+3238500Y+8128000D02*
X+3018820Y+8347680D01*
X+3018820Y+8768080D01*
X+11239500Y+6731000D02*
X+11272520Y+6764020D01*
X+11742420Y+6764020D01*
X+11932920Y+6573520D01*
X+9588500Y+8636000D02*
X+9461500Y+8509000D01*
X+8983000Y+8509000D01*
X+8983000Y+8743000D01*
X+11262360Y+8441180D02*
X+11664440Y+8039100D01*
X+11932920Y+8039100D01*
X+3574000Y+2592000D02*
X+4316660Y+2592000D01*
X+4518660Y+2794000D01*
X+4518660Y+3423920D01*
X+8509000Y+6350000D02*
X+8255000Y+6350000D01*
X+8509000Y+6350000D02*
X+8763000Y+6350000D01*
X+11620500Y+7366000D02*
X+11722099Y+7366000D01*
X+11722100Y+7366001D01*
X+11938000Y+7366001D01*
X+11938000Y+7366000D01*
X+3937000Y+9271000D02*
X+3937000Y+8933500D01*
X+4127500Y+8743000D01*
X+4445000Y+8743000D01*
X+1518820Y+8768080D02*
X+1518820Y+9017000D01*
X+1408180Y+9127640D01*
X+1408180Y+9355240D01*
X+1227580Y+2001700D02*
X+1460500Y+2001700D01*
X+1460500Y+1905000D01*
X+1524000Y+1841500D01*
D12*
X+6223000Y+7493000D02*
X+6223000Y+6439511D01*
X+7112189Y+5550322D01*
X+7112189Y+5461189D01*
X+7112000Y+5461000D01*
X+7132677Y+3566398D02*
X+6990199Y+3423920D01*
X+6804660Y+3423920D01*
D13*
X+3525520Y+9268460D02*
X+3937000Y+9271000D01*
X+734060Y+9108440D02*
X+734060Y+8768080D01*
X+1518820Y+8768080D02*
X+734060Y+8768080D01*
X+398780Y+8432800D01*
X+4445000Y+8743000D02*
X+4445000Y+9131911D01*
X+4385441Y+9191470D01*
X+6539897Y+9187540D02*
X+6663799Y+9063638D01*
X+6973554Y+9063638D01*
X+7127240Y+9217324D01*
X+7127240Y+9271000D01*
X+7112000Y+9271000D01*
X+7127240Y+9271000D02*
X+7483000Y+9271000D01*
X+7483000Y+8743000D01*
X+2773680Y+6350000D02*
X+2258060Y+6350000D01*
X+2004060Y+6350000D01*
X+1750060Y+6350000D02*
X+1750061Y+6350000D01*
X+2004060Y+6350000D01*
D10*
X+5026660Y+4947920D02*
X+5026660Y+5723751D01*
X+5110157Y+5807248D01*
X+5565948Y+5807248D01*
X+5646420Y+5887720D01*
X+5851602Y+6092902D01*
X+5851602Y+7715918D01*
X+5866284Y+7730600D01*
X+6666456Y+7730600D01*
X+6696097Y+7700959D01*
X+6696097Y+7465895D01*
X+6948573Y+7213419D01*
X+7574774Y+7213419D01*
X+7610624Y+7249269D01*
X+7610624Y+7757268D01*
X+7723998Y+7870642D01*
X+8855258Y+7870642D01*
X+8925560Y+7800340D01*
X+9007000Y+7718900D01*
X+9007000Y+7493000D01*
D13*
X+10287000Y+9017000D02*
X+10287000Y+8752840D01*
X+10477500Y+8562340D01*
X+10576560Y+8562340D01*
X+10853420Y+7298180D02*
X+11239500Y+7298180D01*
X+11239500Y+7536180D01*
X+11424920Y+7536180D01*
X+10576560Y+8562340D02*
X+10576560Y+7298180D01*
X+10853420Y+7298180D01*
D11*
X+11932920Y+7785100D02*
X+11333657Y+7785100D01*
X+11126932Y+7991825D01*
X+11027907Y+8090850D01*
X+11027907Y+8259193D01*
X+10892407Y+8259193D01*
X+10853420Y+8298180D01*
D13*
X+10576560Y+8562340D02*
X+10795000Y+8562340D01*
X+10960100Y+8727440D01*
X+11465560Y+8727440D01*
X+11567160Y+8625840D01*
X+11925300Y+8625840D01*
D10*
X+5534660Y+3423920D02*
X+5534660Y+3613255D01*
X+5624248Y+3702843D01*
X+5834857Y+3702843D01*
X+5908040Y+3629660D01*
X+5908040Y+3210560D01*
X+6017260Y+3101340D01*
X+6032500Y+3086100D01*
X+6120740Y+2997860D01*
X+6561803Y+2997860D01*
X+9385129Y+2997860D01*
X+9450172Y+3062903D01*
X+9544246Y+3156977D01*
X+9668819Y+3156977D01*
X+12144144Y+3156977D01*
X+12224988Y+3237821D01*
X+12224988Y+7646210D01*
X+12086098Y+7785100D01*
X+11932920Y+7785100D01*
X+9188611Y+2920439D02*
X+9384409Y+2920439D01*
X+9470150Y+3006180D01*
X+9560230Y+3096260D01*
X+11873875Y+3096260D01*
X+11887651Y+3082484D01*
X+12143672Y+3082484D01*
X+12352020Y+3290832D01*
X+12352020Y+3479800D01*
X+12352020Y+8766437D01*
X+12242963Y+8875494D01*
X+11929646Y+8875494D01*
X+11925300Y+8879840D01*
X+5788660Y+3423920D02*
X+5788660Y+3014959D01*
X+5883180Y+2920439D01*
X+9188611Y+2920439D01*
X+9188680Y+2920370D01*
D12*
X+4334000Y+5588000D02*
X+4072758Y+5588000D01*
X+3989551Y+5504793D01*
X+3420241Y+5504793D01*
X+3341413Y+5425965D01*
X+2487449Y+5425965D02*
X+2486660Y+5425176D01*
X+2486660Y+4947920D01*
D13*
X+11231880Y+1912620D02*
X+11406333Y+1912620D01*
X+11641259Y+2147546D01*
X+11641259Y+2149786D01*
X+11681460Y+2189987D01*
X+11681460Y+2303780D01*
X+11176000Y+1968500D02*
X+11231880Y+1912620D01*
X+11287000Y+1857500D01*
X+11287000Y+1143000D01*
D12*
X+11703560Y+1678940D02*
X+11860289Y+1678940D01*
X+12107149Y+1925800D01*
X+12107149Y+2393929D01*
X+11994098Y+2506980D01*
X+11681460Y+2506980D01*
X+10555260Y+2308940D02*
X+10859549Y+2613229D01*
X+10859549Y+2629115D01*
X+10940614Y+2710180D01*
X+11681460Y+2710180D01*
D13*
X+10239460Y+3606000D02*
X+10547822Y+3914362D01*
X+11318312Y+3914362D01*
X+11501360Y+3731314D01*
X+11501360Y+3441400D01*
D11*
X+9480000Y+3606000D02*
X+9480000Y+3458313D01*
X+9624980Y+3313333D01*
X+10444350Y+3313333D01*
X+10446673Y+3315656D01*
X+10675656Y+3315656D01*
X+10712500Y+3352500D01*
X+10739360Y+3441400D01*
D13*
X+9755260Y+2308940D02*
X+9755260Y+2582300D01*
X+9964420Y+2791460D01*
X+10081636Y+2908676D01*
X+10900833Y+2908676D01*
D11*
X+11938000Y+7112000D02*
X+11862123Y+7112000D01*
X+11735522Y+6985399D01*
X+10466812Y+6985399D01*
X+10448761Y+7003450D01*
X+10287000Y+7165211D01*
X+10287000Y+8017000D01*
X+8255000Y+6604000D02*
X+7950720Y+6604000D01*
X+7731603Y+6823117D01*
X+7731603Y+7487603D01*
X+7737000Y+7493000D01*
D12*
X+5552440Y+2463800D02*
X+5268526Y+2463800D01*
X+5206298Y+2526028D01*
X+5206298Y+2640869D01*
X+5163625Y+2683542D01*
X+4738338Y+2683542D01*
X+4727610Y+2694270D01*
D10*
X+4723840Y+2690500D01*
D11*
X+5026660Y+3423920D02*
X+5026660Y+2993320D01*
X+4727610Y+2694270D01*
D10*
X+7360920Y+3373880D02*
X+7059420Y+3072380D01*
X+6223000Y+3072380D01*
X+6159500Y+3135880D01*
X+6159500Y+3873500D01*
X+5969000Y+4064000D01*
X+3873500Y+4064000D01*
X+3873500Y+5143500D01*
X+3683000Y+5143500D01*
X+3619500Y+5080000D01*
X+3619500Y+3873500D01*
X+3683000Y+3810000D01*
X+4318000Y+3810000D01*
X+4381500Y+3746500D01*
X+4381500Y+2941320D01*
X+4234180Y+2794000D01*
X+3756660Y+2794000D01*
X+3756660Y+3423920D01*
D11*
X+7950000Y+3996800D02*
X+7619733Y+3996800D01*
X+7581956Y+4034577D01*
X+7360920Y+4255613D01*
X+7360920Y+4373880D01*
D10*
X+7112000Y+1206500D02*
X+7112000Y+1210000D01*
X+7112000Y+2852420D01*
X+5593080Y+2852420D01*
X+5397500Y+3048000D01*
X+5397500Y+3810000D01*
X+5270500Y+3937000D01*
X+3756660Y+3937000D01*
X+3756660Y+4947920D01*
D13*
X+1524000Y+1600000D02*
X+1524000Y+1524000D01*
X+1524000Y+1074000D01*
X+1500000Y+1050000D01*
X+1357371Y+907371D01*
X+580776Y+907371D01*
X+127000Y+1361147D01*
X+127000Y+1524000D01*
X+127000Y+1635432D01*
X+398780Y+8432800D02*
X+127000Y+8161020D01*
X+127000Y+1635432D01*
X+1524000Y+1600000D02*
X+1524000Y+1841500D01*
X+452850Y+1802850D02*
X+508000Y+1747700D01*
X+398780Y+7932420D02*
X+398780Y+7493000D01*
X+317500Y+7411720D01*
X+317500Y+1938200D01*
X+452850Y+1802850D01*
X+627850Y+1627850D02*
X+827850Y+1627850D01*
X+950000Y+1750000D01*
X+508000Y+1747700D02*
X+627850Y+1627850D01*
X+789967Y+1465733D01*
X+1138680Y+1465733D01*
X+1227580Y+1493700D01*
X+6897640Y+2413640D02*
X+6897640Y+2071640D01*
X+6858000Y+2032000D01*
X+6182000Y+2032000D01*
X+5977200Y+1827200D01*
X+5969000Y+1751000D01*
D10*
X+1414750Y+6685250D02*
X+1434910Y+6705410D01*
X+1651000Y+6921500D01*
X+1651000Y+6947090D01*
X+1651000Y+7000000D01*
X+1651000Y+7747000D01*
X+1714500Y+7810500D01*
X+4381500Y+7810500D01*
X+4445000Y+7747000D01*
X+4445000Y+7493000D01*
D13*
X+1351027Y+4263411D02*
X+1351027Y+4163411D01*
X+792589Y+4163411D01*
X+760000Y+4196000D01*
D14*
X+1250000Y+3175000D02*
X+1397000Y+3028000D01*
X+1397000Y+2857500D01*
D11*
X+2232660Y+3423920D02*
X+2232660Y+2931160D01*
X+2159000Y+2857500D01*
X+1397000Y+2857500D01*
D10*
X+1250000Y+3175000D02*
X+571500Y+3175000D01*
X+508000Y+3238500D01*
X+508000Y+5778500D01*
D11*
X+1282840Y+6905500D02*
X+1282840Y+7444420D01*
X+1356500Y+7518080D01*
X+1518820Y+7518080D01*
D13*
X+1750060Y+6350000D02*
X+1727340Y+6350000D01*
X+1282840Y+5905500D01*
X+750000Y+5946000D02*
X+1242340Y+5946000D01*
X+1282840Y+5905500D01*
D15*
X+750000Y+5438000D02*
X+1712627Y+5438000D01*
X+1763641Y+5386986D01*
X+1978660Y+5171967D01*
X+1978660Y+4947920D01*
X+750000Y+5184000D02*
X+1616000Y+5184000D01*
X+1650000Y+5150000D01*
X+1650000Y+4825821D01*
X+1843253Y+4632568D01*
X+1858418Y+4617403D01*
X+2108626Y+4617403D01*
X+2173074Y+4617403D01*
X+2233731Y+4678060D01*
X+2233731Y+4946849D01*
X+2232660Y+4947920D01*
D16*
X+1397000Y+2857500D02*
X+1306000Y+2766500D01*
X+1306000Y+2436000D01*
D13*
X+1306000Y+3436000D02*
X+1564000Y+3436000D01*
X+1600000Y+3400000D01*
D15*
X+1600000Y+2400000D02*
X+1838000Y+2400000D01*
X+1850000Y+2388000D01*
D16*
X+1850000Y+3150000D02*
X+1850000Y+3295260D01*
X+1978660Y+3423920D01*
D12*
X+1759052Y+3643528D01*
X+1683066Y+3643528D01*
X+803106Y+6568240D02*
X+750000Y+6515134D01*
X+750000Y+6200000D01*
D15*
X+508000Y+6350000D02*
X+508000Y+6374966D01*
X+508000Y+6658000D01*
X+600000Y+6750000D01*
X+631677Y+6781677D01*
X+1016543Y+6781677D01*
X+1040321Y+6781677D01*
X+1136748Y+6685250D01*
D10*
X+508000Y+5778500D02*
X+508000Y+6350000D01*
X+1136748Y+6685250D02*
X+1414750Y+6685250D01*
D15*
X+760000Y+3942000D02*
X+571500Y+3942000D01*
X+571500Y+3516365D01*
X+717089Y+3370776D01*
X+882028Y+3370776D01*
X+1130752Y+3619500D01*
X+1350000Y+3619500D01*
X+1570500Y+3840000D01*
X+2072160Y+3840000D01*
X+2740660Y+4508500D01*
X+2740660Y+4947920D01*
D12*
X+2486660Y+4947920D02*
X+2486660Y+4672660D01*
X+1824000Y+4010000D01*
X+1490974Y+4010000D01*
X+1220974Y+3740000D01*
X+812000Y+3740000D01*
X+760000Y+3688000D01*
D10*
X+3296820Y+7518080D02*
X+3296820Y+7121761D01*
X+4508500Y+5910081D01*
X+4508500Y+5207000D01*
X+4381500Y+5080000D01*
X+4381500Y+4428500D01*
X+4619000Y+4191000D01*
X+6477000Y+4191000D01*
X+6550660Y+4117340D01*
X+6550660Y+3423920D01*
X+1282840Y+6905500D02*
X+555500Y+6905500D01*
X+444500Y+6794500D01*
X+444500Y+2349500D01*
X+518160Y+2275840D01*
X+1050000Y+2275840D01*
D15*
X+1105338Y+2275840D01*
X+1197493Y+2183685D01*
X+2010905Y+2183685D01*
X+2167220Y+2340000D01*
D10*
X+2642260Y+2340000D01*
X+2780000Y+2477740D01*
X+2780000Y+2998500D01*
X+2603500Y+3175000D01*
X+2603500Y+3810000D01*
X+3111500Y+4318000D01*
X+3111500Y+5143500D01*
X+3175000Y+5207000D01*
X+3302000Y+5207000D01*
X+3365500Y+5143500D01*
X+3365500Y+3810000D01*
X+3429000Y+3746500D01*
X+4201160Y+3746500D01*
X+4264660Y+3683000D01*
X+4264660Y+3423920D01*
X+8729980Y+584200D02*
X+8729980Y+370000D01*
X+3503500Y+370000D01*
X+3365500Y+508000D01*
X+3365500Y+3619500D01*
X+3248660Y+3736340D01*
X+3248660Y+4947920D01*
D12*
X+4732020Y+586740D02*
X+4732020Y+936057D01*
X+4811963Y+1016000D01*
X+5636000Y+1016000D01*
X+5680000Y+1060000D01*
X+6824997Y+1060000D01*
X+6934224Y+1169227D01*
X+6934224Y+1169321D01*
X+6974903Y+1210000D01*
X+7112000Y+1210000D01*
X+4986020Y+586740D02*
X+4986020Y+746019D01*
X+5100001Y+860000D01*
X+7328419Y+860000D01*
X+7406348Y+782071D01*
X+8068254Y+782071D01*
X+8128000Y+841817D01*
X+8128000Y+1016000D01*
D13*
X+4772660Y+3423920D02*
X+4772660Y+3076436D01*
X+4767675Y+3071451D01*
X+750000Y+5692000D02*
X+1058000Y+5692000D01*
X+1100000Y+5650000D01*
D11*
X+2994660Y+3423920D02*
X+3050000Y+3368580D01*
X+3050000Y+325660D01*
X+3145660Y+230000D01*
X+10517000Y+230000D01*
X+10703560Y+416560D01*
X+10703560Y+1678940D01*
D13*
X+4132580Y+1630700D02*
X+4723840Y+1630700D01*
X+4723840Y+1790700D01*
X+3574000Y+2592000D02*
X+3574000Y+1506000D01*
X+3700000Y+1380000D01*
X+4132580Y+1380000D01*
X+4132580Y+1376700D01*
X+4478020Y+1050000D02*
X+4478020Y+1079500D01*
X+4478020Y+1357878D01*
X+4496842Y+1376700D01*
X+4478020Y+1050000D02*
X+4478020Y+586740D01*
X+4132580Y+1376700D02*
X+4496842Y+1376700D01*
X+4909800Y+1376700D01*
X+5016500Y+1270000D01*
X+4772660Y+3423920D02*
X+4772660Y+3581400D01*
X+4826000Y+3634740D01*
X+4826000Y+3720000D01*
X+4191000Y+4635500D02*
X+4264660Y+4709160D01*
X+4264660Y+4947920D01*
D12*
X+4010660Y+3423920D02*
X+4010660Y+3015901D01*
X+4016243Y+3010318D01*
D10*
X+9784080Y+9527540D02*
X+9784080Y+8387080D01*
X+9144000Y+7747000D01*
X+9144000Y+6134000D01*
X+8280500Y+5270500D01*
X+5651500Y+5270500D01*
X+5534660Y+5153660D01*
X+5534660Y+4947920D01*
X+9261000Y+7493000D02*
X+9261000Y+7229000D01*
X+9207500Y+7175500D01*
X+9207500Y+6037500D01*
X+8117920Y+4947920D01*
X+6804660Y+4947920D01*
X+10038080Y+9527540D02*
X+10038080Y+6418580D01*
X+9939500Y+6320000D01*
X+9660000Y+6320000D01*
X+8102500Y+4762500D01*
X+5788660Y+4762500D01*
X+5788660Y+4947920D01*
D11*
X+4772660Y+4947920D02*
X+4772660Y+4642790D01*
X+4843060Y+4572390D01*
X+7022220Y+4572390D01*
X+7116202Y+4666372D01*
X+8196372Y+4666372D01*
X+9310000Y+5780000D01*
X+11396814Y+5780000D01*
X+11934627Y+6317813D01*
X+11932920Y+6319520D01*
D13*
X+1880000Y+2003353D02*
X+2053354Y+2003353D01*
X+2306647Y+2003353D01*
X+2330000Y+1980000D01*
X+1880000Y+2003353D02*
X+1685853Y+2003353D01*
X+1524000Y+1841500D01*
X+2446100Y+1186100D02*
X+2702560Y+929640D01*
X+2440000Y+1130000D02*
X+2415000Y+1155000D01*
X+2330000Y+1240000D01*
X+2330000Y+1472000D01*
X+1880000Y+1130000D02*
X+2390000Y+1130000D01*
X+2415000Y+1155000D01*
X+2446100Y+1186100D01*
D11*
X+2898887Y+1770000D02*
X+2898887Y+1674607D01*
X+2898887Y+1248887D01*
X+2840000Y+1190000D01*
X+2740660Y+3423920D02*
X+2740660Y+3199164D01*
X+2898887Y+3040937D01*
X+2898887Y+1770000D01*
D13*
X+5334000Y+5999480D02*
X+5334000Y+6350000D01*
X+5334000Y+6349999D01*
X+8763000Y+6350000D02*
X+8763000Y+6002020D01*
X+760000Y+4450000D02*
X+760000Y+4786007D01*
X+766293Y+4792300D01*
D17*
X+5016500Y+1270000D03*
X+3492500Y+8128000D03*
X+9588500Y+8636000D03*
X+11239500Y+6731000D03*
X+11620500Y+7366000D03*
X+4127500Y+5334000D03*
X+6159501Y+586741D03*
X+7112000Y+5461000D03*
X+7132677Y+3566398D03*
X+3525520Y+9268460D03*
X+734060Y+9108440D03*
X+4385441Y+9191470D03*
X+6539897Y+9187540D03*
X+2773680Y+6350000D03*
X+3341413Y+5425965D03*
X+2487449Y+5425965D03*
X+10900833Y+2908676D03*
X+10223500Y+6096000D03*
X+950000Y+1750000D03*
X+1351027Y+4263411D03*
X+1683066Y+3643528D03*
X+803106Y+6568240D03*
X+4767675Y+3071451D03*
X+1100000Y+5650000D03*
X+4826000Y+3720000D03*
X+4191000Y+4635500D03*
X+4016243Y+3010318D03*
X+1880000Y+1130000D03*
X+2840000Y+1190000D03*
X+5334000Y+5999480D03*
X+8763000Y+6002020D03*
X+766293Y+4792300D03*
D18*
X+9755260Y+2308940D03*
X+10555260Y+2308940D03*
D19*
X+10239460Y+3606000D03*
X+9480000Y+3606000D03*
X+10230000Y+4356000D03*
X+9480000Y+4380000D03*
X+10239460Y+4888000D03*
X+9480000Y+4880000D03*
X+10230000Y+5380000D03*
X+9480000Y+5380000D03*
D70*
X+1518820Y+7518080D03*
X+1772820Y+7518080D03*
X+2026820Y+7518080D03*
X+2280820Y+7518080D03*
X+2534820Y+7518080D03*
X+2788820Y+7518080D03*
X+3042820Y+7518080D03*
X+3296820Y+7518080D03*
X+3268820Y+8768080D03*
X+3018820Y+8768080D03*
X+2768820Y+8768080D03*
X+2518820Y+8768080D03*
X+2268820Y+8768080D03*
X+2018820Y+8768080D03*
X+1768820Y+8768080D03*
X+1518820Y+8768080D03*
X+4445000Y+7493000D03*
X+4699000Y+7493000D03*
X+4953000Y+7493000D03*
X+5207000Y+7493000D03*
X+5461000Y+7493000D03*
X+5715000Y+7493000D03*
X+5969000Y+7493000D03*
X+6223000Y+7493000D03*
X+6195000Y+8743000D03*
X+5945000Y+8743000D03*
X+5695000Y+8743000D03*
X+5445000Y+8743000D03*
X+5195000Y+8743000D03*
X+4945000Y+8743000D03*
X+4695000Y+8743000D03*
X+4445000Y+8743000D03*
X+7483000Y+7493000D03*
X+7737000Y+7493000D03*
X+7991000Y+7493000D03*
X+8245000Y+7493000D03*
X+8499000Y+7493000D03*
X+8753000Y+7493000D03*
X+9007000Y+7493000D03*
X+9261000Y+7493000D03*
X+9233000Y+8743000D03*
X+8983000Y+8743000D03*
X+8733000Y+8743000D03*
X+8483000Y+8743000D03*
X+8233000Y+8743000D03*
X+7983000Y+8743000D03*
X+7733000Y+8743000D03*
X+7483000Y+8743000D03*
D71*
X+8255000Y+6350000D03*
X+8255000Y+6604000D03*
X+8509000Y+6350000D03*
X+8509000Y+6604000D03*
X+8763000Y+6350000D03*
X+8763000Y+6604000D03*
X+2258060Y+6604000D03*
X+2258060Y+6350000D03*
X+2004060Y+6604000D03*
X+2004060Y+6350000D03*
X+1750060Y+6604000D03*
X+1750060Y+6350000D03*
X+5080000Y+6350000D03*
X+5080000Y+6604000D03*
X+5334000Y+6350000D03*
X+5334000Y+6604000D03*
X+5588000Y+6350000D03*
X+5588000Y+6604000D03*
D70*
X+1978660Y+3423920D03*
X+2232660Y+3423920D03*
X+2486660Y+3423920D03*
X+2740660Y+3423920D03*
X+2994660Y+3423920D03*
X+3248660Y+3423920D03*
X+3502660Y+3423920D03*
X+3756660Y+3423920D03*
X+4010660Y+3423920D03*
X+4264660Y+3423920D03*
X+4518660Y+3423920D03*
X+4772660Y+3423920D03*
X+5026660Y+3423920D03*
X+5280660Y+3423920D03*
X+5534660Y+3423920D03*
X+5788660Y+3423920D03*
X+6042660Y+3423920D03*
X+6296660Y+3423920D03*
X+6550660Y+3423920D03*
X+6804660Y+3423920D03*
X+6804660Y+4947920D03*
X+6550660Y+4947920D03*
X+6296660Y+4947920D03*
X+6042660Y+4947920D03*
X+5788660Y+4947920D03*
X+5534660Y+4947920D03*
X+5280660Y+4947920D03*
X+5026660Y+4947920D03*
X+4772660Y+4947920D03*
X+4518660Y+4947920D03*
X+4264660Y+4947920D03*
X+4010660Y+4947920D03*
X+3756660Y+4947920D03*
X+3502660Y+4947920D03*
X+3248660Y+4947920D03*
X+2994660Y+4947920D03*
X+2740660Y+4947920D03*
X+2486660Y+4947920D03*
X+2232660Y+4947920D03*
X+1978660Y+4947920D03*
D20*
X+398780Y+8432800D03*
X+398780Y+7932420D03*
D21*
X+7950000Y+3793600D03*
X+7950000Y+3996800D03*
X+7950000Y+4200000D03*
D19*
X+10739360Y+3441400D03*
X+11501360Y+3441400D03*
D20*
X+11734800Y+5321300D03*
X+11734800Y+4820920D03*
X+11734800Y+4320540D03*
D19*
X+7360920Y+3373880D03*
X+7360920Y+4373880D03*
D17*
X+3937000Y+9271000D03*
X+3937000Y+9525000D03*
X+7112000Y+9271000D03*
X+7112000Y+9525000D03*
D21*
X+11681460Y+2710180D03*
X+11681460Y+2506980D03*
X+11681460Y+2303780D03*
D19*
X+10703560Y+1678940D03*
X+11703560Y+1678940D03*
X+1282840Y+5905500D03*
X+1282840Y+6905500D03*
D22*
X+1306000Y+3436000D03*
X+1306000Y+2436000D03*
D19*
X+3574000Y+2592000D03*
X+2574000Y+2592000D03*
D71*
X+2065020Y+9532620D03*
X+2319020Y+9532620D03*
X+2573020Y+9532620D03*
X+2827020Y+9532620D03*
X+4953000Y+9525000D03*
X+5207000Y+9525000D03*
X+5461000Y+9525000D03*
X+5715000Y+9525000D03*
X+8001000Y+9525000D03*
X+8255000Y+9525000D03*
X+8509000Y+9525000D03*
X+8763000Y+9525000D03*
D19*
X+3810000Y+5715000D03*
X+2810000Y+5715000D03*
X+5334000Y+5588000D03*
X+4334000Y+5588000D03*
D71*
X+760000Y+4450000D03*
X+760000Y+4196000D03*
X+760000Y+3942000D03*
X+760000Y+3688000D03*
D23*
X+1227580Y+2001700D03*
X+1227580Y+1493700D03*
D71*
X+4132580Y+1884700D03*
X+4132580Y+1630700D03*
X+4132580Y+1376700D03*
D24*
X+5969000Y+1551000D03*
X+5969000Y+1751000D03*
D23*
X+6858000Y+1524000D03*
X+6858000Y+2032000D03*
D71*
X+9784080Y+9527540D03*
X+10038080Y+9527540D03*
X+10292080Y+9527540D03*
X+11925300Y+8879840D03*
X+11925300Y+8625840D03*
X+11932920Y+8039100D03*
X+11932920Y+7785100D03*
X+11938000Y+7366000D03*
X+11938000Y+7112000D03*
X+11932920Y+6573520D03*
X+11932920Y+6319520D03*
X+5240020Y+586740D03*
X+4986020Y+586740D03*
X+4732020Y+586740D03*
X+4478020Y+586740D03*
X+4224020Y+586740D03*
D19*
X+8128000Y+1016000D03*
X+8128000Y+2016000D03*
X+7620000Y+2016000D03*
X+7620000Y+1016000D03*
D22*
X+2702560Y+929640D03*
X+3702560Y+929640D03*
D71*
X+8729980Y+584200D03*
X+8475980Y+584200D03*
D19*
X+10287000Y+1143000D03*
X+11287000Y+1143000D03*
X+10853420Y+8298180D03*
X+10853420Y+7298180D03*
X+11262360Y+9441180D03*
X+11262360Y+8441180D03*
X+11424920Y+7536180D03*
X+11424920Y+6536180D03*
X+10287000Y+9017000D03*
X+10287000Y+8017000D03*
X+5552440Y+2463800D03*
X+6060440Y+2463800D03*
D23*
X+4723840Y+2690500D03*
X+4723840Y+2436500D03*
X+6897640Y+2667640D03*
X+6897640Y+2413640D03*
D17*
X+1408180Y+9355240D03*
X+1408180Y+9609240D03*
D25*
X+380000Y+9620000D03*
X+380000Y+380000D03*
X+12240000Y+380000D03*
X+12190000Y+9590000D03*
D71*
X+750000Y+6200000D03*
X+750000Y+5946000D03*
X+750000Y+5692000D03*
X+750000Y+5438000D03*
X+750000Y+5184000D03*
D17*
X+1600000Y+2400000D03*
X+1600000Y+3400000D03*
X+1850000Y+2388000D03*
X+1850000Y+3150000D03*
D19*
X+2330000Y+1980000D03*
X+2330000Y+1472000D03*
D26*
X+0Y+0D02*
X+12750000Y+0D01*
X+12750000Y+10000000D01*
X+0Y+10000000D01*
X+0Y+0D01*
M02*
