G04 PROTEUS RS274X GERBER FILE*
%FSLAX45Y45*%
%MOMM*%
G01*
%ADD26C,0.203200*%
%ADD27C,0.127000*%
%ADD28C,0.063500*%
D26*
X+5016500Y+1333500D02*
X+5016500Y+1206500D01*
X+4953000Y+1270000D02*
X+5080000Y+1270000D01*
X+3492500Y+8191500D02*
X+3492500Y+8064500D01*
X+3429000Y+8128000D02*
X+3556000Y+8128000D01*
X+9588500Y+8699500D02*
X+9588500Y+8572500D01*
X+9525000Y+8636000D02*
X+9652000Y+8636000D01*
X+11239500Y+6794500D02*
X+11239500Y+6667500D01*
X+11176000Y+6731000D02*
X+11303000Y+6731000D01*
X+11620500Y+7429500D02*
X+11620500Y+7302500D01*
X+11557000Y+7366000D02*
X+11684000Y+7366000D01*
X+4127500Y+5397500D02*
X+4127500Y+5270500D01*
X+4064000Y+5334000D02*
X+4191000Y+5334000D01*
X+6159501Y+650241D02*
X+6159501Y+523241D01*
X+6096001Y+586741D02*
X+6223001Y+586741D01*
X+7112000Y+5524500D02*
X+7112000Y+5397500D01*
X+7048500Y+5461000D02*
X+7175500Y+5461000D01*
X+7132677Y+3629898D02*
X+7132677Y+3502898D01*
X+7069177Y+3566398D02*
X+7196177Y+3566398D01*
X+3525520Y+9331960D02*
X+3525520Y+9204960D01*
X+3462020Y+9268460D02*
X+3589020Y+9268460D01*
X+734060Y+9171940D02*
X+734060Y+9044940D01*
X+670560Y+9108440D02*
X+797560Y+9108440D01*
X+4385441Y+9254970D02*
X+4385441Y+9127970D01*
X+4321941Y+9191470D02*
X+4448941Y+9191470D01*
X+6539897Y+9251040D02*
X+6539897Y+9124040D01*
X+6476397Y+9187540D02*
X+6603397Y+9187540D01*
X+2773680Y+6413500D02*
X+2773680Y+6286500D01*
X+2710180Y+6350000D02*
X+2837180Y+6350000D01*
X+3341413Y+5489465D02*
X+3341413Y+5362465D01*
X+3277913Y+5425965D02*
X+3404913Y+5425965D01*
X+2487449Y+5489465D02*
X+2487449Y+5362465D01*
X+2423949Y+5425965D02*
X+2550949Y+5425965D01*
X+10900833Y+2972176D02*
X+10900833Y+2845176D01*
X+10837333Y+2908676D02*
X+10964333Y+2908676D01*
X+10223500Y+6159500D02*
X+10223500Y+6032500D01*
X+10160000Y+6096000D02*
X+10287000Y+6096000D01*
X+950000Y+1813500D02*
X+950000Y+1686500D01*
X+886500Y+1750000D02*
X+1013500Y+1750000D01*
X+1351027Y+4326911D02*
X+1351027Y+4199911D01*
X+1287527Y+4263411D02*
X+1414527Y+4263411D01*
X+1683066Y+3707028D02*
X+1683066Y+3580028D01*
X+1619566Y+3643528D02*
X+1746566Y+3643528D01*
X+803106Y+6631740D02*
X+803106Y+6504740D01*
X+739606Y+6568240D02*
X+866606Y+6568240D01*
X+4767675Y+3134951D02*
X+4767675Y+3007951D01*
X+4704175Y+3071451D02*
X+4831175Y+3071451D01*
X+1100000Y+5713500D02*
X+1100000Y+5586500D01*
X+1036500Y+5650000D02*
X+1163500Y+5650000D01*
X+4826000Y+3783500D02*
X+4826000Y+3656500D01*
X+4762500Y+3720000D02*
X+4889500Y+3720000D01*
X+4191000Y+4699000D02*
X+4191000Y+4572000D01*
X+4127500Y+4635500D02*
X+4254500Y+4635500D01*
X+4016243Y+3073818D02*
X+4016243Y+2946818D01*
X+3952743Y+3010318D02*
X+4079743Y+3010318D01*
X+1880000Y+1193500D02*
X+1880000Y+1066500D01*
X+1816500Y+1130000D02*
X+1943500Y+1130000D01*
X+2840000Y+1253500D02*
X+2840000Y+1126500D01*
X+2776500Y+1190000D02*
X+2903500Y+1190000D01*
X+5334000Y+6062980D02*
X+5334000Y+5935980D01*
X+5270500Y+5999480D02*
X+5397500Y+5999480D01*
X+8763000Y+6065520D02*
X+8763000Y+5938520D01*
X+8699500Y+6002020D02*
X+8826500Y+6002020D01*
X+766293Y+4855800D02*
X+766293Y+4728800D01*
X+702793Y+4792300D02*
X+829793Y+4792300D01*
X+9818760Y+2308940D02*
X+9818543Y+2314187D01*
X+9816778Y+2324682D01*
X+9813086Y+2335177D01*
X+9807058Y+2345672D01*
X+9797836Y+2356052D01*
X+9787341Y+2363740D01*
X+9776846Y+2368658D01*
X+9766351Y+2371464D01*
X+9755856Y+2372437D01*
X+9755260Y+2372440D01*
X+9691760Y+2308940D02*
X+9691977Y+2314187D01*
X+9693742Y+2324682D01*
X+9697434Y+2335177D01*
X+9703462Y+2345672D01*
X+9712684Y+2356052D01*
X+9723179Y+2363740D01*
X+9733674Y+2368658D01*
X+9744169Y+2371464D01*
X+9754664Y+2372437D01*
X+9755260Y+2372440D01*
X+9691760Y+2308940D02*
X+9691977Y+2303693D01*
X+9693742Y+2293198D01*
X+9697434Y+2282703D01*
X+9703462Y+2272208D01*
X+9712684Y+2261828D01*
X+9723179Y+2254140D01*
X+9733674Y+2249222D01*
X+9744169Y+2246416D01*
X+9754664Y+2245443D01*
X+9755260Y+2245440D01*
X+9818760Y+2308940D02*
X+9818543Y+2303693D01*
X+9816778Y+2293198D01*
X+9813086Y+2282703D01*
X+9807058Y+2272208D01*
X+9797836Y+2261828D01*
X+9787341Y+2254140D01*
X+9776846Y+2249222D01*
X+9766351Y+2246416D01*
X+9755856Y+2245443D01*
X+9755260Y+2245440D01*
X+9755260Y+2372440D02*
X+9755260Y+2245440D01*
X+9691760Y+2308940D02*
X+9818760Y+2308940D01*
X+10618760Y+2308940D02*
X+10618543Y+2314187D01*
X+10616778Y+2324682D01*
X+10613086Y+2335177D01*
X+10607058Y+2345672D01*
X+10597836Y+2356052D01*
X+10587341Y+2363740D01*
X+10576846Y+2368658D01*
X+10566351Y+2371464D01*
X+10555856Y+2372437D01*
X+10555260Y+2372440D01*
X+10491760Y+2308940D02*
X+10491977Y+2314187D01*
X+10493742Y+2324682D01*
X+10497434Y+2335177D01*
X+10503462Y+2345672D01*
X+10512684Y+2356052D01*
X+10523179Y+2363740D01*
X+10533674Y+2368658D01*
X+10544169Y+2371464D01*
X+10554664Y+2372437D01*
X+10555260Y+2372440D01*
X+10491760Y+2308940D02*
X+10491977Y+2303693D01*
X+10493742Y+2293198D01*
X+10497434Y+2282703D01*
X+10503462Y+2272208D01*
X+10512684Y+2261828D01*
X+10523179Y+2254140D01*
X+10533674Y+2249222D01*
X+10544169Y+2246416D01*
X+10554664Y+2245443D01*
X+10555260Y+2245440D01*
X+10618760Y+2308940D02*
X+10618543Y+2303693D01*
X+10616778Y+2293198D01*
X+10613086Y+2282703D01*
X+10607058Y+2272208D01*
X+10597836Y+2261828D01*
X+10587341Y+2254140D01*
X+10576846Y+2249222D01*
X+10566351Y+2246416D01*
X+10555856Y+2245443D01*
X+10555260Y+2245440D01*
X+10555260Y+2372440D02*
X+10555260Y+2245440D01*
X+10491760Y+2308940D02*
X+10618760Y+2308940D01*
X+10302960Y+3606000D02*
X+10302743Y+3611247D01*
X+10300978Y+3621742D01*
X+10297286Y+3632237D01*
X+10291258Y+3642732D01*
X+10282036Y+3653112D01*
X+10271541Y+3660800D01*
X+10261046Y+3665718D01*
X+10250551Y+3668524D01*
X+10240056Y+3669497D01*
X+10239460Y+3669500D01*
X+10175960Y+3606000D02*
X+10176177Y+3611247D01*
X+10177942Y+3621742D01*
X+10181634Y+3632237D01*
X+10187662Y+3642732D01*
X+10196884Y+3653112D01*
X+10207379Y+3660800D01*
X+10217874Y+3665718D01*
X+10228369Y+3668524D01*
X+10238864Y+3669497D01*
X+10239460Y+3669500D01*
X+10175960Y+3606000D02*
X+10176177Y+3600753D01*
X+10177942Y+3590258D01*
X+10181634Y+3579763D01*
X+10187662Y+3569268D01*
X+10196884Y+3558888D01*
X+10207379Y+3551200D01*
X+10217874Y+3546282D01*
X+10228369Y+3543476D01*
X+10238864Y+3542503D01*
X+10239460Y+3542500D01*
X+10302960Y+3606000D02*
X+10302743Y+3600753D01*
X+10300978Y+3590258D01*
X+10297286Y+3579763D01*
X+10291258Y+3569268D01*
X+10282036Y+3558888D01*
X+10271541Y+3551200D01*
X+10261046Y+3546282D01*
X+10250551Y+3543476D01*
X+10240056Y+3542503D01*
X+10239460Y+3542500D01*
X+10239460Y+3669500D02*
X+10239460Y+3542500D01*
X+10175960Y+3606000D02*
X+10302960Y+3606000D01*
X+10302743Y+3611247D01*
X+10300978Y+3621742D01*
X+10297286Y+3632237D01*
X+10291258Y+3642732D01*
X+10282036Y+3653112D01*
X+10271541Y+3660800D01*
X+10261046Y+3665718D01*
X+10250551Y+3668524D01*
X+10240056Y+3669497D01*
X+10239460Y+3669500D01*
X+10175960Y+3606000D02*
X+10176177Y+3611247D01*
X+10177942Y+3621742D01*
X+10181634Y+3632237D01*
X+10187662Y+3642732D01*
X+10196884Y+3653112D01*
X+10207379Y+3660800D01*
X+10217874Y+3665718D01*
X+10228369Y+3668524D01*
X+10238864Y+3669497D01*
X+10239460Y+3669500D01*
X+10175960Y+3606000D02*
X+10176177Y+3600753D01*
X+10177942Y+3590258D01*
X+10181634Y+3579763D01*
X+10187662Y+3569268D01*
X+10196884Y+3558888D01*
X+10207379Y+3551200D01*
X+10217874Y+3546282D01*
X+10228369Y+3543476D01*
X+10238864Y+3542503D01*
X+10239460Y+3542500D01*
X+10302960Y+3606000D02*
X+10302743Y+3600753D01*
X+10300978Y+3590258D01*
X+10297286Y+3579763D01*
X+10291258Y+3569268D01*
X+10282036Y+3558888D01*
X+10271541Y+3551200D01*
X+10261046Y+3546282D01*
X+10250551Y+3543476D01*
X+10240056Y+3542503D01*
X+10239460Y+3542500D01*
X+10194559Y+3650901D02*
X+10284361Y+3561099D01*
X+10194559Y+3561099D02*
X+10284361Y+3650901D01*
X+9543500Y+3606000D02*
X+9543283Y+3611247D01*
X+9541518Y+3621742D01*
X+9537826Y+3632237D01*
X+9531798Y+3642732D01*
X+9522576Y+3653112D01*
X+9512081Y+3660800D01*
X+9501586Y+3665718D01*
X+9491091Y+3668524D01*
X+9480596Y+3669497D01*
X+9480000Y+3669500D01*
X+9416500Y+3606000D02*
X+9416717Y+3611247D01*
X+9418482Y+3621742D01*
X+9422174Y+3632237D01*
X+9428202Y+3642732D01*
X+9437424Y+3653112D01*
X+9447919Y+3660800D01*
X+9458414Y+3665718D01*
X+9468909Y+3668524D01*
X+9479404Y+3669497D01*
X+9480000Y+3669500D01*
X+9416500Y+3606000D02*
X+9416717Y+3600753D01*
X+9418482Y+3590258D01*
X+9422174Y+3579763D01*
X+9428202Y+3569268D01*
X+9437424Y+3558888D01*
X+9447919Y+3551200D01*
X+9458414Y+3546282D01*
X+9468909Y+3543476D01*
X+9479404Y+3542503D01*
X+9480000Y+3542500D01*
X+9543500Y+3606000D02*
X+9543283Y+3600753D01*
X+9541518Y+3590258D01*
X+9537826Y+3579763D01*
X+9531798Y+3569268D01*
X+9522576Y+3558888D01*
X+9512081Y+3551200D01*
X+9501586Y+3546282D01*
X+9491091Y+3543476D01*
X+9480596Y+3542503D01*
X+9480000Y+3542500D01*
X+9480000Y+3669500D02*
X+9480000Y+3542500D01*
X+9416500Y+3606000D02*
X+9543500Y+3606000D01*
X+9543283Y+3611247D01*
X+9541518Y+3621742D01*
X+9537826Y+3632237D01*
X+9531798Y+3642732D01*
X+9522576Y+3653112D01*
X+9512081Y+3660800D01*
X+9501586Y+3665718D01*
X+9491091Y+3668524D01*
X+9480596Y+3669497D01*
X+9480000Y+3669500D01*
X+9416500Y+3606000D02*
X+9416717Y+3611247D01*
X+9418482Y+3621742D01*
X+9422174Y+3632237D01*
X+9428202Y+3642732D01*
X+9437424Y+3653112D01*
X+9447919Y+3660800D01*
X+9458414Y+3665718D01*
X+9468909Y+3668524D01*
X+9479404Y+3669497D01*
X+9480000Y+3669500D01*
X+9416500Y+3606000D02*
X+9416717Y+3600753D01*
X+9418482Y+3590258D01*
X+9422174Y+3579763D01*
X+9428202Y+3569268D01*
X+9437424Y+3558888D01*
X+9447919Y+3551200D01*
X+9458414Y+3546282D01*
X+9468909Y+3543476D01*
X+9479404Y+3542503D01*
X+9480000Y+3542500D01*
X+9543500Y+3606000D02*
X+9543283Y+3600753D01*
X+9541518Y+3590258D01*
X+9537826Y+3579763D01*
X+9531798Y+3569268D01*
X+9522576Y+3558888D01*
X+9512081Y+3551200D01*
X+9501586Y+3546282D01*
X+9491091Y+3543476D01*
X+9480596Y+3542503D01*
X+9480000Y+3542500D01*
X+9435099Y+3650901D02*
X+9524901Y+3561099D01*
X+9435099Y+3561099D02*
X+9524901Y+3650901D01*
X+10293500Y+4356000D02*
X+10293283Y+4361247D01*
X+10291518Y+4371742D01*
X+10287826Y+4382237D01*
X+10281798Y+4392732D01*
X+10272576Y+4403112D01*
X+10262081Y+4410800D01*
X+10251586Y+4415718D01*
X+10241091Y+4418524D01*
X+10230596Y+4419497D01*
X+10230000Y+4419500D01*
X+10166500Y+4356000D02*
X+10166717Y+4361247D01*
X+10168482Y+4371742D01*
X+10172174Y+4382237D01*
X+10178202Y+4392732D01*
X+10187424Y+4403112D01*
X+10197919Y+4410800D01*
X+10208414Y+4415718D01*
X+10218909Y+4418524D01*
X+10229404Y+4419497D01*
X+10230000Y+4419500D01*
X+10166500Y+4356000D02*
X+10166717Y+4350753D01*
X+10168482Y+4340258D01*
X+10172174Y+4329763D01*
X+10178202Y+4319268D01*
X+10187424Y+4308888D01*
X+10197919Y+4301200D01*
X+10208414Y+4296282D01*
X+10218909Y+4293476D01*
X+10229404Y+4292503D01*
X+10230000Y+4292500D01*
X+10293500Y+4356000D02*
X+10293283Y+4350753D01*
X+10291518Y+4340258D01*
X+10287826Y+4329763D01*
X+10281798Y+4319268D01*
X+10272576Y+4308888D01*
X+10262081Y+4301200D01*
X+10251586Y+4296282D01*
X+10241091Y+4293476D01*
X+10230596Y+4292503D01*
X+10230000Y+4292500D01*
X+10230000Y+4419500D02*
X+10230000Y+4292500D01*
X+10166500Y+4356000D02*
X+10293500Y+4356000D01*
X+10293283Y+4361247D01*
X+10291518Y+4371742D01*
X+10287826Y+4382237D01*
X+10281798Y+4392732D01*
X+10272576Y+4403112D01*
X+10262081Y+4410800D01*
X+10251586Y+4415718D01*
X+10241091Y+4418524D01*
X+10230596Y+4419497D01*
X+10230000Y+4419500D01*
X+10166500Y+4356000D02*
X+10166717Y+4361247D01*
X+10168482Y+4371742D01*
X+10172174Y+4382237D01*
X+10178202Y+4392732D01*
X+10187424Y+4403112D01*
X+10197919Y+4410800D01*
X+10208414Y+4415718D01*
X+10218909Y+4418524D01*
X+10229404Y+4419497D01*
X+10230000Y+4419500D01*
X+10166500Y+4356000D02*
X+10166717Y+4350753D01*
X+10168482Y+4340258D01*
X+10172174Y+4329763D01*
X+10178202Y+4319268D01*
X+10187424Y+4308888D01*
X+10197919Y+4301200D01*
X+10208414Y+4296282D01*
X+10218909Y+4293476D01*
X+10229404Y+4292503D01*
X+10230000Y+4292500D01*
X+10293500Y+4356000D02*
X+10293283Y+4350753D01*
X+10291518Y+4340258D01*
X+10287826Y+4329763D01*
X+10281798Y+4319268D01*
X+10272576Y+4308888D01*
X+10262081Y+4301200D01*
X+10251586Y+4296282D01*
X+10241091Y+4293476D01*
X+10230596Y+4292503D01*
X+10230000Y+4292500D01*
X+10185099Y+4400901D02*
X+10274901Y+4311099D01*
X+10185099Y+4311099D02*
X+10274901Y+4400901D01*
X+9543500Y+4380000D02*
X+9543283Y+4385247D01*
X+9541518Y+4395742D01*
X+9537826Y+4406237D01*
X+9531798Y+4416732D01*
X+9522576Y+4427112D01*
X+9512081Y+4434800D01*
X+9501586Y+4439718D01*
X+9491091Y+4442524D01*
X+9480596Y+4443497D01*
X+9480000Y+4443500D01*
X+9416500Y+4380000D02*
X+9416717Y+4385247D01*
X+9418482Y+4395742D01*
X+9422174Y+4406237D01*
X+9428202Y+4416732D01*
X+9437424Y+4427112D01*
X+9447919Y+4434800D01*
X+9458414Y+4439718D01*
X+9468909Y+4442524D01*
X+9479404Y+4443497D01*
X+9480000Y+4443500D01*
X+9416500Y+4380000D02*
X+9416717Y+4374753D01*
X+9418482Y+4364258D01*
X+9422174Y+4353763D01*
X+9428202Y+4343268D01*
X+9437424Y+4332888D01*
X+9447919Y+4325200D01*
X+9458414Y+4320282D01*
X+9468909Y+4317476D01*
X+9479404Y+4316503D01*
X+9480000Y+4316500D01*
X+9543500Y+4380000D02*
X+9543283Y+4374753D01*
X+9541518Y+4364258D01*
X+9537826Y+4353763D01*
X+9531798Y+4343268D01*
X+9522576Y+4332888D01*
X+9512081Y+4325200D01*
X+9501586Y+4320282D01*
X+9491091Y+4317476D01*
X+9480596Y+4316503D01*
X+9480000Y+4316500D01*
X+9480000Y+4443500D02*
X+9480000Y+4316500D01*
X+9416500Y+4380000D02*
X+9543500Y+4380000D01*
X+9543283Y+4385247D01*
X+9541518Y+4395742D01*
X+9537826Y+4406237D01*
X+9531798Y+4416732D01*
X+9522576Y+4427112D01*
X+9512081Y+4434800D01*
X+9501586Y+4439718D01*
X+9491091Y+4442524D01*
X+9480596Y+4443497D01*
X+9480000Y+4443500D01*
X+9416500Y+4380000D02*
X+9416717Y+4385247D01*
X+9418482Y+4395742D01*
X+9422174Y+4406237D01*
X+9428202Y+4416732D01*
X+9437424Y+4427112D01*
X+9447919Y+4434800D01*
X+9458414Y+4439718D01*
X+9468909Y+4442524D01*
X+9479404Y+4443497D01*
X+9480000Y+4443500D01*
X+9416500Y+4380000D02*
X+9416717Y+4374753D01*
X+9418482Y+4364258D01*
X+9422174Y+4353763D01*
X+9428202Y+4343268D01*
X+9437424Y+4332888D01*
X+9447919Y+4325200D01*
X+9458414Y+4320282D01*
X+9468909Y+4317476D01*
X+9479404Y+4316503D01*
X+9480000Y+4316500D01*
X+9543500Y+4380000D02*
X+9543283Y+4374753D01*
X+9541518Y+4364258D01*
X+9537826Y+4353763D01*
X+9531798Y+4343268D01*
X+9522576Y+4332888D01*
X+9512081Y+4325200D01*
X+9501586Y+4320282D01*
X+9491091Y+4317476D01*
X+9480596Y+4316503D01*
X+9480000Y+4316500D01*
X+9435099Y+4424901D02*
X+9524901Y+4335099D01*
X+9435099Y+4335099D02*
X+9524901Y+4424901D01*
X+10302960Y+4888000D02*
X+10302743Y+4893247D01*
X+10300978Y+4903742D01*
X+10297286Y+4914237D01*
X+10291258Y+4924732D01*
X+10282036Y+4935112D01*
X+10271541Y+4942800D01*
X+10261046Y+4947718D01*
X+10250551Y+4950524D01*
X+10240056Y+4951497D01*
X+10239460Y+4951500D01*
X+10175960Y+4888000D02*
X+10176177Y+4893247D01*
X+10177942Y+4903742D01*
X+10181634Y+4914237D01*
X+10187662Y+4924732D01*
X+10196884Y+4935112D01*
X+10207379Y+4942800D01*
X+10217874Y+4947718D01*
X+10228369Y+4950524D01*
X+10238864Y+4951497D01*
X+10239460Y+4951500D01*
X+10175960Y+4888000D02*
X+10176177Y+4882753D01*
X+10177942Y+4872258D01*
X+10181634Y+4861763D01*
X+10187662Y+4851268D01*
X+10196884Y+4840888D01*
X+10207379Y+4833200D01*
X+10217874Y+4828282D01*
X+10228369Y+4825476D01*
X+10238864Y+4824503D01*
X+10239460Y+4824500D01*
X+10302960Y+4888000D02*
X+10302743Y+4882753D01*
X+10300978Y+4872258D01*
X+10297286Y+4861763D01*
X+10291258Y+4851268D01*
X+10282036Y+4840888D01*
X+10271541Y+4833200D01*
X+10261046Y+4828282D01*
X+10250551Y+4825476D01*
X+10240056Y+4824503D01*
X+10239460Y+4824500D01*
X+10239460Y+4951500D02*
X+10239460Y+4824500D01*
X+10175960Y+4888000D02*
X+10302960Y+4888000D01*
X+10302743Y+4893247D01*
X+10300978Y+4903742D01*
X+10297286Y+4914237D01*
X+10291258Y+4924732D01*
X+10282036Y+4935112D01*
X+10271541Y+4942800D01*
X+10261046Y+4947718D01*
X+10250551Y+4950524D01*
X+10240056Y+4951497D01*
X+10239460Y+4951500D01*
X+10175960Y+4888000D02*
X+10176177Y+4893247D01*
X+10177942Y+4903742D01*
X+10181634Y+4914237D01*
X+10187662Y+4924732D01*
X+10196884Y+4935112D01*
X+10207379Y+4942800D01*
X+10217874Y+4947718D01*
X+10228369Y+4950524D01*
X+10238864Y+4951497D01*
X+10239460Y+4951500D01*
X+10175960Y+4888000D02*
X+10176177Y+4882753D01*
X+10177942Y+4872258D01*
X+10181634Y+4861763D01*
X+10187662Y+4851268D01*
X+10196884Y+4840888D01*
X+10207379Y+4833200D01*
X+10217874Y+4828282D01*
X+10228369Y+4825476D01*
X+10238864Y+4824503D01*
X+10239460Y+4824500D01*
X+10302960Y+4888000D02*
X+10302743Y+4882753D01*
X+10300978Y+4872258D01*
X+10297286Y+4861763D01*
X+10291258Y+4851268D01*
X+10282036Y+4840888D01*
X+10271541Y+4833200D01*
X+10261046Y+4828282D01*
X+10250551Y+4825476D01*
X+10240056Y+4824503D01*
X+10239460Y+4824500D01*
X+10194559Y+4932901D02*
X+10284361Y+4843099D01*
X+10194559Y+4843099D02*
X+10284361Y+4932901D01*
X+9543500Y+4880000D02*
X+9543283Y+4885247D01*
X+9541518Y+4895742D01*
X+9537826Y+4906237D01*
X+9531798Y+4916732D01*
X+9522576Y+4927112D01*
X+9512081Y+4934800D01*
X+9501586Y+4939718D01*
X+9491091Y+4942524D01*
X+9480596Y+4943497D01*
X+9480000Y+4943500D01*
X+9416500Y+4880000D02*
X+9416717Y+4885247D01*
X+9418482Y+4895742D01*
X+9422174Y+4906237D01*
X+9428202Y+4916732D01*
X+9437424Y+4927112D01*
X+9447919Y+4934800D01*
X+9458414Y+4939718D01*
X+9468909Y+4942524D01*
X+9479404Y+4943497D01*
X+9480000Y+4943500D01*
X+9416500Y+4880000D02*
X+9416717Y+4874753D01*
X+9418482Y+4864258D01*
X+9422174Y+4853763D01*
X+9428202Y+4843268D01*
X+9437424Y+4832888D01*
X+9447919Y+4825200D01*
X+9458414Y+4820282D01*
X+9468909Y+4817476D01*
X+9479404Y+4816503D01*
X+9480000Y+4816500D01*
X+9543500Y+4880000D02*
X+9543283Y+4874753D01*
X+9541518Y+4864258D01*
X+9537826Y+4853763D01*
X+9531798Y+4843268D01*
X+9522576Y+4832888D01*
X+9512081Y+4825200D01*
X+9501586Y+4820282D01*
X+9491091Y+4817476D01*
X+9480596Y+4816503D01*
X+9480000Y+4816500D01*
X+9480000Y+4943500D02*
X+9480000Y+4816500D01*
X+9416500Y+4880000D02*
X+9543500Y+4880000D01*
X+9543283Y+4885247D01*
X+9541518Y+4895742D01*
X+9537826Y+4906237D01*
X+9531798Y+4916732D01*
X+9522576Y+4927112D01*
X+9512081Y+4934800D01*
X+9501586Y+4939718D01*
X+9491091Y+4942524D01*
X+9480596Y+4943497D01*
X+9480000Y+4943500D01*
X+9416500Y+4880000D02*
X+9416717Y+4885247D01*
X+9418482Y+4895742D01*
X+9422174Y+4906237D01*
X+9428202Y+4916732D01*
X+9437424Y+4927112D01*
X+9447919Y+4934800D01*
X+9458414Y+4939718D01*
X+9468909Y+4942524D01*
X+9479404Y+4943497D01*
X+9480000Y+4943500D01*
X+9416500Y+4880000D02*
X+9416717Y+4874753D01*
X+9418482Y+4864258D01*
X+9422174Y+4853763D01*
X+9428202Y+4843268D01*
X+9437424Y+4832888D01*
X+9447919Y+4825200D01*
X+9458414Y+4820282D01*
X+9468909Y+4817476D01*
X+9479404Y+4816503D01*
X+9480000Y+4816500D01*
X+9543500Y+4880000D02*
X+9543283Y+4874753D01*
X+9541518Y+4864258D01*
X+9537826Y+4853763D01*
X+9531798Y+4843268D01*
X+9522576Y+4832888D01*
X+9512081Y+4825200D01*
X+9501586Y+4820282D01*
X+9491091Y+4817476D01*
X+9480596Y+4816503D01*
X+9480000Y+4816500D01*
X+9435099Y+4924901D02*
X+9524901Y+4835099D01*
X+9435099Y+4835099D02*
X+9524901Y+4924901D01*
X+10293500Y+5380000D02*
X+10293283Y+5385247D01*
X+10291518Y+5395742D01*
X+10287826Y+5406237D01*
X+10281798Y+5416732D01*
X+10272576Y+5427112D01*
X+10262081Y+5434800D01*
X+10251586Y+5439718D01*
X+10241091Y+5442524D01*
X+10230596Y+5443497D01*
X+10230000Y+5443500D01*
X+10166500Y+5380000D02*
X+10166717Y+5385247D01*
X+10168482Y+5395742D01*
X+10172174Y+5406237D01*
X+10178202Y+5416732D01*
X+10187424Y+5427112D01*
X+10197919Y+5434800D01*
X+10208414Y+5439718D01*
X+10218909Y+5442524D01*
X+10229404Y+5443497D01*
X+10230000Y+5443500D01*
X+10166500Y+5380000D02*
X+10166717Y+5374753D01*
X+10168482Y+5364258D01*
X+10172174Y+5353763D01*
X+10178202Y+5343268D01*
X+10187424Y+5332888D01*
X+10197919Y+5325200D01*
X+10208414Y+5320282D01*
X+10218909Y+5317476D01*
X+10229404Y+5316503D01*
X+10230000Y+5316500D01*
X+10293500Y+5380000D02*
X+10293283Y+5374753D01*
X+10291518Y+5364258D01*
X+10287826Y+5353763D01*
X+10281798Y+5343268D01*
X+10272576Y+5332888D01*
X+10262081Y+5325200D01*
X+10251586Y+5320282D01*
X+10241091Y+5317476D01*
X+10230596Y+5316503D01*
X+10230000Y+5316500D01*
X+10230000Y+5443500D02*
X+10230000Y+5316500D01*
X+10166500Y+5380000D02*
X+10293500Y+5380000D01*
X+10293283Y+5385247D01*
X+10291518Y+5395742D01*
X+10287826Y+5406237D01*
X+10281798Y+5416732D01*
X+10272576Y+5427112D01*
X+10262081Y+5434800D01*
X+10251586Y+5439718D01*
X+10241091Y+5442524D01*
X+10230596Y+5443497D01*
X+10230000Y+5443500D01*
X+10166500Y+5380000D02*
X+10166717Y+5385247D01*
X+10168482Y+5395742D01*
X+10172174Y+5406237D01*
X+10178202Y+5416732D01*
X+10187424Y+5427112D01*
X+10197919Y+5434800D01*
X+10208414Y+5439718D01*
X+10218909Y+5442524D01*
X+10229404Y+5443497D01*
X+10230000Y+5443500D01*
X+10166500Y+5380000D02*
X+10166717Y+5374753D01*
X+10168482Y+5364258D01*
X+10172174Y+5353763D01*
X+10178202Y+5343268D01*
X+10187424Y+5332888D01*
X+10197919Y+5325200D01*
X+10208414Y+5320282D01*
X+10218909Y+5317476D01*
X+10229404Y+5316503D01*
X+10230000Y+5316500D01*
X+10293500Y+5380000D02*
X+10293283Y+5374753D01*
X+10291518Y+5364258D01*
X+10287826Y+5353763D01*
X+10281798Y+5343268D01*
X+10272576Y+5332888D01*
X+10262081Y+5325200D01*
X+10251586Y+5320282D01*
X+10241091Y+5317476D01*
X+10230596Y+5316503D01*
X+10230000Y+5316500D01*
X+10185099Y+5424901D02*
X+10274901Y+5335099D01*
X+10185099Y+5335099D02*
X+10274901Y+5424901D01*
X+9543500Y+5380000D02*
X+9543283Y+5385247D01*
X+9541518Y+5395742D01*
X+9537826Y+5406237D01*
X+9531798Y+5416732D01*
X+9522576Y+5427112D01*
X+9512081Y+5434800D01*
X+9501586Y+5439718D01*
X+9491091Y+5442524D01*
X+9480596Y+5443497D01*
X+9480000Y+5443500D01*
X+9416500Y+5380000D02*
X+9416717Y+5385247D01*
X+9418482Y+5395742D01*
X+9422174Y+5406237D01*
X+9428202Y+5416732D01*
X+9437424Y+5427112D01*
X+9447919Y+5434800D01*
X+9458414Y+5439718D01*
X+9468909Y+5442524D01*
X+9479404Y+5443497D01*
X+9480000Y+5443500D01*
X+9416500Y+5380000D02*
X+9416717Y+5374753D01*
X+9418482Y+5364258D01*
X+9422174Y+5353763D01*
X+9428202Y+5343268D01*
X+9437424Y+5332888D01*
X+9447919Y+5325200D01*
X+9458414Y+5320282D01*
X+9468909Y+5317476D01*
X+9479404Y+5316503D01*
X+9480000Y+5316500D01*
X+9543500Y+5380000D02*
X+9543283Y+5374753D01*
X+9541518Y+5364258D01*
X+9537826Y+5353763D01*
X+9531798Y+5343268D01*
X+9522576Y+5332888D01*
X+9512081Y+5325200D01*
X+9501586Y+5320282D01*
X+9491091Y+5317476D01*
X+9480596Y+5316503D01*
X+9480000Y+5316500D01*
X+9480000Y+5443500D02*
X+9480000Y+5316500D01*
X+9416500Y+5380000D02*
X+9543500Y+5380000D01*
X+9543283Y+5385247D01*
X+9541518Y+5395742D01*
X+9537826Y+5406237D01*
X+9531798Y+5416732D01*
X+9522576Y+5427112D01*
X+9512081Y+5434800D01*
X+9501586Y+5439718D01*
X+9491091Y+5442524D01*
X+9480596Y+5443497D01*
X+9480000Y+5443500D01*
X+9416500Y+5380000D02*
X+9416717Y+5385247D01*
X+9418482Y+5395742D01*
X+9422174Y+5406237D01*
X+9428202Y+5416732D01*
X+9437424Y+5427112D01*
X+9447919Y+5434800D01*
X+9458414Y+5439718D01*
X+9468909Y+5442524D01*
X+9479404Y+5443497D01*
X+9480000Y+5443500D01*
X+9416500Y+5380000D02*
X+9416717Y+5374753D01*
X+9418482Y+5364258D01*
X+9422174Y+5353763D01*
X+9428202Y+5343268D01*
X+9437424Y+5332888D01*
X+9447919Y+5325200D01*
X+9458414Y+5320282D01*
X+9468909Y+5317476D01*
X+9479404Y+5316503D01*
X+9480000Y+5316500D01*
X+9543500Y+5380000D02*
X+9543283Y+5374753D01*
X+9541518Y+5364258D01*
X+9537826Y+5353763D01*
X+9531798Y+5343268D01*
X+9522576Y+5332888D01*
X+9512081Y+5325200D01*
X+9501586Y+5320282D01*
X+9491091Y+5317476D01*
X+9480596Y+5316503D01*
X+9480000Y+5316500D01*
X+9435099Y+5424901D02*
X+9524901Y+5335099D01*
X+9435099Y+5335099D02*
X+9524901Y+5424901D01*
X+1518820Y+7581580D02*
X+1518820Y+7454580D01*
X+1455320Y+7518080D02*
X+1582320Y+7518080D01*
X+1772820Y+7581580D02*
X+1772820Y+7454580D01*
X+1709320Y+7518080D02*
X+1836320Y+7518080D01*
X+2026820Y+7581580D02*
X+2026820Y+7454580D01*
X+1963320Y+7518080D02*
X+2090320Y+7518080D01*
X+2280820Y+7581580D02*
X+2280820Y+7454580D01*
X+2217320Y+7518080D02*
X+2344320Y+7518080D01*
X+2534820Y+7581580D02*
X+2534820Y+7454580D01*
X+2471320Y+7518080D02*
X+2598320Y+7518080D01*
X+2788820Y+7581580D02*
X+2788820Y+7454580D01*
X+2725320Y+7518080D02*
X+2852320Y+7518080D01*
X+3042820Y+7581580D02*
X+3042820Y+7454580D01*
X+2979320Y+7518080D02*
X+3106320Y+7518080D01*
X+3296820Y+7581580D02*
X+3296820Y+7454580D01*
X+3233320Y+7518080D02*
X+3360320Y+7518080D01*
X+3268820Y+8831580D02*
X+3268820Y+8704580D01*
X+3205320Y+8768080D02*
X+3332320Y+8768080D01*
X+3018820Y+8831580D02*
X+3018820Y+8704580D01*
X+2955320Y+8768080D02*
X+3082320Y+8768080D01*
X+2768820Y+8831580D02*
X+2768820Y+8704580D01*
X+2705320Y+8768080D02*
X+2832320Y+8768080D01*
X+2518820Y+8831580D02*
X+2518820Y+8704580D01*
X+2455320Y+8768080D02*
X+2582320Y+8768080D01*
X+2268820Y+8831580D02*
X+2268820Y+8704580D01*
X+2205320Y+8768080D02*
X+2332320Y+8768080D01*
X+2018820Y+8831580D02*
X+2018820Y+8704580D01*
X+1955320Y+8768080D02*
X+2082320Y+8768080D01*
X+1768820Y+8831580D02*
X+1768820Y+8704580D01*
X+1705320Y+8768080D02*
X+1832320Y+8768080D01*
X+1518820Y+8831580D02*
X+1518820Y+8704580D01*
X+1455320Y+8768080D02*
X+1582320Y+8768080D01*
X+4445000Y+7556500D02*
X+4445000Y+7429500D01*
X+4381500Y+7493000D02*
X+4508500Y+7493000D01*
X+4699000Y+7556500D02*
X+4699000Y+7429500D01*
X+4635500Y+7493000D02*
X+4762500Y+7493000D01*
X+4953000Y+7556500D02*
X+4953000Y+7429500D01*
X+4889500Y+7493000D02*
X+5016500Y+7493000D01*
X+5207000Y+7556500D02*
X+5207000Y+7429500D01*
X+5143500Y+7493000D02*
X+5270500Y+7493000D01*
X+5461000Y+7556500D02*
X+5461000Y+7429500D01*
X+5397500Y+7493000D02*
X+5524500Y+7493000D01*
X+5715000Y+7556500D02*
X+5715000Y+7429500D01*
X+5651500Y+7493000D02*
X+5778500Y+7493000D01*
X+5969000Y+7556500D02*
X+5969000Y+7429500D01*
X+5905500Y+7493000D02*
X+6032500Y+7493000D01*
X+6223000Y+7556500D02*
X+6223000Y+7429500D01*
X+6159500Y+7493000D02*
X+6286500Y+7493000D01*
X+6195000Y+8806500D02*
X+6195000Y+8679500D01*
X+6131500Y+8743000D02*
X+6258500Y+8743000D01*
X+5945000Y+8806500D02*
X+5945000Y+8679500D01*
X+5881500Y+8743000D02*
X+6008500Y+8743000D01*
X+5695000Y+8806500D02*
X+5695000Y+8679500D01*
X+5631500Y+8743000D02*
X+5758500Y+8743000D01*
X+5445000Y+8806500D02*
X+5445000Y+8679500D01*
X+5381500Y+8743000D02*
X+5508500Y+8743000D01*
X+5195000Y+8806500D02*
X+5195000Y+8679500D01*
X+5131500Y+8743000D02*
X+5258500Y+8743000D01*
X+4945000Y+8806500D02*
X+4945000Y+8679500D01*
X+4881500Y+8743000D02*
X+5008500Y+8743000D01*
X+4695000Y+8806500D02*
X+4695000Y+8679500D01*
X+4631500Y+8743000D02*
X+4758500Y+8743000D01*
X+4445000Y+8806500D02*
X+4445000Y+8679500D01*
X+4381500Y+8743000D02*
X+4508500Y+8743000D01*
X+7483000Y+7556500D02*
X+7483000Y+7429500D01*
X+7419500Y+7493000D02*
X+7546500Y+7493000D01*
X+7737000Y+7556500D02*
X+7737000Y+7429500D01*
X+7673500Y+7493000D02*
X+7800500Y+7493000D01*
X+7991000Y+7556500D02*
X+7991000Y+7429500D01*
X+7927500Y+7493000D02*
X+8054500Y+7493000D01*
X+8245000Y+7556500D02*
X+8245000Y+7429500D01*
X+8181500Y+7493000D02*
X+8308500Y+7493000D01*
X+8499000Y+7556500D02*
X+8499000Y+7429500D01*
X+8435500Y+7493000D02*
X+8562500Y+7493000D01*
X+8753000Y+7556500D02*
X+8753000Y+7429500D01*
X+8689500Y+7493000D02*
X+8816500Y+7493000D01*
X+9007000Y+7556500D02*
X+9007000Y+7429500D01*
X+8943500Y+7493000D02*
X+9070500Y+7493000D01*
X+9261000Y+7556500D02*
X+9261000Y+7429500D01*
X+9197500Y+7493000D02*
X+9324500Y+7493000D01*
X+9233000Y+8806500D02*
X+9233000Y+8679500D01*
X+9169500Y+8743000D02*
X+9296500Y+8743000D01*
X+8983000Y+8806500D02*
X+8983000Y+8679500D01*
X+8919500Y+8743000D02*
X+9046500Y+8743000D01*
X+8733000Y+8806500D02*
X+8733000Y+8679500D01*
X+8669500Y+8743000D02*
X+8796500Y+8743000D01*
X+8483000Y+8806500D02*
X+8483000Y+8679500D01*
X+8419500Y+8743000D02*
X+8546500Y+8743000D01*
X+8233000Y+8806500D02*
X+8233000Y+8679500D01*
X+8169500Y+8743000D02*
X+8296500Y+8743000D01*
X+7983000Y+8806500D02*
X+7983000Y+8679500D01*
X+7919500Y+8743000D02*
X+8046500Y+8743000D01*
X+7733000Y+8806500D02*
X+7733000Y+8679500D01*
X+7669500Y+8743000D02*
X+7796500Y+8743000D01*
X+7483000Y+8806500D02*
X+7483000Y+8679500D01*
X+7419500Y+8743000D02*
X+7546500Y+8743000D01*
X+8255000Y+6413500D02*
X+8255000Y+6286500D01*
X+8191500Y+6350000D02*
X+8318500Y+6350000D01*
X+8210099Y+6394901D02*
X+8299901Y+6305099D01*
X+8210099Y+6305099D02*
X+8299901Y+6394901D01*
X+8255000Y+6667500D02*
X+8255000Y+6540500D01*
X+8191500Y+6604000D02*
X+8318500Y+6604000D01*
X+8210099Y+6648901D02*
X+8299901Y+6559099D01*
X+8210099Y+6559099D02*
X+8299901Y+6648901D01*
X+8509000Y+6413500D02*
X+8509000Y+6286500D01*
X+8445500Y+6350000D02*
X+8572500Y+6350000D01*
X+8464099Y+6394901D02*
X+8553901Y+6305099D01*
X+8464099Y+6305099D02*
X+8553901Y+6394901D01*
X+8509000Y+6667500D02*
X+8509000Y+6540500D01*
X+8445500Y+6604000D02*
X+8572500Y+6604000D01*
X+8464099Y+6648901D02*
X+8553901Y+6559099D01*
X+8464099Y+6559099D02*
X+8553901Y+6648901D01*
X+8763000Y+6413500D02*
X+8763000Y+6286500D01*
X+8699500Y+6350000D02*
X+8826500Y+6350000D01*
X+8718099Y+6394901D02*
X+8807901Y+6305099D01*
X+8718099Y+6305099D02*
X+8807901Y+6394901D01*
X+8763000Y+6667500D02*
X+8763000Y+6540500D01*
X+8699500Y+6604000D02*
X+8826500Y+6604000D01*
X+8718099Y+6648901D02*
X+8807901Y+6559099D01*
X+8718099Y+6559099D02*
X+8807901Y+6648901D01*
X+2258060Y+6667500D02*
X+2258060Y+6540500D01*
X+2194560Y+6604000D02*
X+2321560Y+6604000D01*
X+2213159Y+6648901D02*
X+2302961Y+6559099D01*
X+2213159Y+6559099D02*
X+2302961Y+6648901D01*
X+2258060Y+6413500D02*
X+2258060Y+6286500D01*
X+2194560Y+6350000D02*
X+2321560Y+6350000D01*
X+2213159Y+6394901D02*
X+2302961Y+6305099D01*
X+2213159Y+6305099D02*
X+2302961Y+6394901D01*
X+2004060Y+6667500D02*
X+2004060Y+6540500D01*
X+1940560Y+6604000D02*
X+2067560Y+6604000D01*
X+1959159Y+6648901D02*
X+2048961Y+6559099D01*
X+1959159Y+6559099D02*
X+2048961Y+6648901D01*
X+2004060Y+6413500D02*
X+2004060Y+6286500D01*
X+1940560Y+6350000D02*
X+2067560Y+6350000D01*
X+1959159Y+6394901D02*
X+2048961Y+6305099D01*
X+1959159Y+6305099D02*
X+2048961Y+6394901D01*
X+1750060Y+6667500D02*
X+1750060Y+6540500D01*
X+1686560Y+6604000D02*
X+1813560Y+6604000D01*
X+1705159Y+6648901D02*
X+1794961Y+6559099D01*
X+1705159Y+6559099D02*
X+1794961Y+6648901D01*
X+1750060Y+6413500D02*
X+1750060Y+6286500D01*
X+1686560Y+6350000D02*
X+1813560Y+6350000D01*
X+1705159Y+6394901D02*
X+1794961Y+6305099D01*
X+1705159Y+6305099D02*
X+1794961Y+6394901D01*
X+5080000Y+6413500D02*
X+5080000Y+6286500D01*
X+5016500Y+6350000D02*
X+5143500Y+6350000D01*
X+5035099Y+6394901D02*
X+5124901Y+6305099D01*
X+5035099Y+6305099D02*
X+5124901Y+6394901D01*
X+5080000Y+6667500D02*
X+5080000Y+6540500D01*
X+5016500Y+6604000D02*
X+5143500Y+6604000D01*
X+5035099Y+6648901D02*
X+5124901Y+6559099D01*
X+5035099Y+6559099D02*
X+5124901Y+6648901D01*
X+5334000Y+6413500D02*
X+5334000Y+6286500D01*
X+5270500Y+6350000D02*
X+5397500Y+6350000D01*
X+5289099Y+6394901D02*
X+5378901Y+6305099D01*
X+5289099Y+6305099D02*
X+5378901Y+6394901D01*
X+5334000Y+6667500D02*
X+5334000Y+6540500D01*
X+5270500Y+6604000D02*
X+5397500Y+6604000D01*
X+5289099Y+6648901D02*
X+5378901Y+6559099D01*
X+5289099Y+6559099D02*
X+5378901Y+6648901D01*
X+5588000Y+6413500D02*
X+5588000Y+6286500D01*
X+5524500Y+6350000D02*
X+5651500Y+6350000D01*
X+5543099Y+6394901D02*
X+5632901Y+6305099D01*
X+5543099Y+6305099D02*
X+5632901Y+6394901D01*
X+5588000Y+6667500D02*
X+5588000Y+6540500D01*
X+5524500Y+6604000D02*
X+5651500Y+6604000D01*
X+5543099Y+6648901D02*
X+5632901Y+6559099D01*
X+5543099Y+6559099D02*
X+5632901Y+6648901D01*
X+1978660Y+3487420D02*
X+1978660Y+3360420D01*
X+1915160Y+3423920D02*
X+2042160Y+3423920D01*
X+2232660Y+3487420D02*
X+2232660Y+3360420D01*
X+2169160Y+3423920D02*
X+2296160Y+3423920D01*
X+2486660Y+3487420D02*
X+2486660Y+3360420D01*
X+2423160Y+3423920D02*
X+2550160Y+3423920D01*
X+2740660Y+3487420D02*
X+2740660Y+3360420D01*
X+2677160Y+3423920D02*
X+2804160Y+3423920D01*
X+2994660Y+3487420D02*
X+2994660Y+3360420D01*
X+2931160Y+3423920D02*
X+3058160Y+3423920D01*
X+3248660Y+3487420D02*
X+3248660Y+3360420D01*
X+3185160Y+3423920D02*
X+3312160Y+3423920D01*
X+3502660Y+3487420D02*
X+3502660Y+3360420D01*
X+3439160Y+3423920D02*
X+3566160Y+3423920D01*
X+3756660Y+3487420D02*
X+3756660Y+3360420D01*
X+3693160Y+3423920D02*
X+3820160Y+3423920D01*
X+4010660Y+3487420D02*
X+4010660Y+3360420D01*
X+3947160Y+3423920D02*
X+4074160Y+3423920D01*
X+4264660Y+3487420D02*
X+4264660Y+3360420D01*
X+4201160Y+3423920D02*
X+4328160Y+3423920D01*
X+4518660Y+3487420D02*
X+4518660Y+3360420D01*
X+4455160Y+3423920D02*
X+4582160Y+3423920D01*
X+4772660Y+3487420D02*
X+4772660Y+3360420D01*
X+4709160Y+3423920D02*
X+4836160Y+3423920D01*
X+5026660Y+3487420D02*
X+5026660Y+3360420D01*
X+4963160Y+3423920D02*
X+5090160Y+3423920D01*
X+5280660Y+3487420D02*
X+5280660Y+3360420D01*
X+5217160Y+3423920D02*
X+5344160Y+3423920D01*
X+5534660Y+3487420D02*
X+5534660Y+3360420D01*
X+5471160Y+3423920D02*
X+5598160Y+3423920D01*
X+5788660Y+3487420D02*
X+5788660Y+3360420D01*
X+5725160Y+3423920D02*
X+5852160Y+3423920D01*
X+6042660Y+3487420D02*
X+6042660Y+3360420D01*
X+5979160Y+3423920D02*
X+6106160Y+3423920D01*
X+6296660Y+3487420D02*
X+6296660Y+3360420D01*
X+6233160Y+3423920D02*
X+6360160Y+3423920D01*
X+6550660Y+3487420D02*
X+6550660Y+3360420D01*
X+6487160Y+3423920D02*
X+6614160Y+3423920D01*
X+6804660Y+3487420D02*
X+6804660Y+3360420D01*
X+6741160Y+3423920D02*
X+6868160Y+3423920D01*
X+6804660Y+5011420D02*
X+6804660Y+4884420D01*
X+6741160Y+4947920D02*
X+6868160Y+4947920D01*
X+6550660Y+5011420D02*
X+6550660Y+4884420D01*
X+6487160Y+4947920D02*
X+6614160Y+4947920D01*
X+6296660Y+5011420D02*
X+6296660Y+4884420D01*
X+6233160Y+4947920D02*
X+6360160Y+4947920D01*
X+6042660Y+5011420D02*
X+6042660Y+4884420D01*
X+5979160Y+4947920D02*
X+6106160Y+4947920D01*
X+5788660Y+5011420D02*
X+5788660Y+4884420D01*
X+5725160Y+4947920D02*
X+5852160Y+4947920D01*
X+5534660Y+5011420D02*
X+5534660Y+4884420D01*
X+5471160Y+4947920D02*
X+5598160Y+4947920D01*
X+5280660Y+5011420D02*
X+5280660Y+4884420D01*
X+5217160Y+4947920D02*
X+5344160Y+4947920D01*
X+5026660Y+5011420D02*
X+5026660Y+4884420D01*
X+4963160Y+4947920D02*
X+5090160Y+4947920D01*
X+4772660Y+5011420D02*
X+4772660Y+4884420D01*
X+4709160Y+4947920D02*
X+4836160Y+4947920D01*
X+4518660Y+5011420D02*
X+4518660Y+4884420D01*
X+4455160Y+4947920D02*
X+4582160Y+4947920D01*
X+4264660Y+5011420D02*
X+4264660Y+4884420D01*
X+4201160Y+4947920D02*
X+4328160Y+4947920D01*
X+4010660Y+5011420D02*
X+4010660Y+4884420D01*
X+3947160Y+4947920D02*
X+4074160Y+4947920D01*
X+3756660Y+5011420D02*
X+3756660Y+4884420D01*
X+3693160Y+4947920D02*
X+3820160Y+4947920D01*
X+3502660Y+5011420D02*
X+3502660Y+4884420D01*
X+3439160Y+4947920D02*
X+3566160Y+4947920D01*
X+3248660Y+5011420D02*
X+3248660Y+4884420D01*
X+3185160Y+4947920D02*
X+3312160Y+4947920D01*
X+2994660Y+5011420D02*
X+2994660Y+4884420D01*
X+2931160Y+4947920D02*
X+3058160Y+4947920D01*
X+2740660Y+5011420D02*
X+2740660Y+4884420D01*
X+2677160Y+4947920D02*
X+2804160Y+4947920D01*
X+2486660Y+5011420D02*
X+2486660Y+4884420D01*
X+2423160Y+4947920D02*
X+2550160Y+4947920D01*
X+2232660Y+5011420D02*
X+2232660Y+4884420D01*
X+2169160Y+4947920D02*
X+2296160Y+4947920D01*
X+1978660Y+5011420D02*
X+1978660Y+4884420D01*
X+1915160Y+4947920D02*
X+2042160Y+4947920D01*
X+462280Y+8432800D02*
X+462063Y+8438047D01*
X+460298Y+8448542D01*
X+456606Y+8459037D01*
X+450578Y+8469532D01*
X+441356Y+8479912D01*
X+430861Y+8487600D01*
X+420366Y+8492518D01*
X+409871Y+8495324D01*
X+399376Y+8496297D01*
X+398780Y+8496300D01*
X+335280Y+8432800D02*
X+335497Y+8438047D01*
X+337262Y+8448542D01*
X+340954Y+8459037D01*
X+346982Y+8469532D01*
X+356204Y+8479912D01*
X+366699Y+8487600D01*
X+377194Y+8492518D01*
X+387689Y+8495324D01*
X+398184Y+8496297D01*
X+398780Y+8496300D01*
X+335280Y+8432800D02*
X+335497Y+8427553D01*
X+337262Y+8417058D01*
X+340954Y+8406563D01*
X+346982Y+8396068D01*
X+356204Y+8385688D01*
X+366699Y+8378000D01*
X+377194Y+8373082D01*
X+387689Y+8370276D01*
X+398184Y+8369303D01*
X+398780Y+8369300D01*
X+462280Y+8432800D02*
X+462063Y+8427553D01*
X+460298Y+8417058D01*
X+456606Y+8406563D01*
X+450578Y+8396068D01*
X+441356Y+8385688D01*
X+430861Y+8378000D01*
X+420366Y+8373082D01*
X+409871Y+8370276D01*
X+399376Y+8369303D01*
X+398780Y+8369300D01*
X+398780Y+8496300D02*
X+398780Y+8369300D01*
X+335280Y+8432800D02*
X+462280Y+8432800D01*
X+462063Y+8438047D01*
X+460298Y+8448542D01*
X+456606Y+8459037D01*
X+450578Y+8469532D01*
X+441356Y+8479912D01*
X+430861Y+8487600D01*
X+420366Y+8492518D01*
X+409871Y+8495324D01*
X+399376Y+8496297D01*
X+398780Y+8496300D01*
X+335280Y+8432800D02*
X+335497Y+8438047D01*
X+337262Y+8448542D01*
X+340954Y+8459037D01*
X+346982Y+8469532D01*
X+356204Y+8479912D01*
X+366699Y+8487600D01*
X+377194Y+8492518D01*
X+387689Y+8495324D01*
X+398184Y+8496297D01*
X+398780Y+8496300D01*
X+335280Y+8432800D02*
X+335497Y+8427553D01*
X+337262Y+8417058D01*
X+340954Y+8406563D01*
X+346982Y+8396068D01*
X+356204Y+8385688D01*
X+366699Y+8378000D01*
X+377194Y+8373082D01*
X+387689Y+8370276D01*
X+398184Y+8369303D01*
X+398780Y+8369300D01*
X+462280Y+8432800D02*
X+462063Y+8427553D01*
X+460298Y+8417058D01*
X+456606Y+8406563D01*
X+450578Y+8396068D01*
X+441356Y+8385688D01*
X+430861Y+8378000D01*
X+420366Y+8373082D01*
X+409871Y+8370276D01*
X+399376Y+8369303D01*
X+398780Y+8369300D01*
X+353879Y+8477701D02*
X+443681Y+8387899D01*
X+353879Y+8387899D02*
X+443681Y+8477701D01*
X+462280Y+7932420D02*
X+462063Y+7937667D01*
X+460298Y+7948162D01*
X+456606Y+7958657D01*
X+450578Y+7969152D01*
X+441356Y+7979532D01*
X+430861Y+7987220D01*
X+420366Y+7992138D01*
X+409871Y+7994944D01*
X+399376Y+7995917D01*
X+398780Y+7995920D01*
X+335280Y+7932420D02*
X+335497Y+7937667D01*
X+337262Y+7948162D01*
X+340954Y+7958657D01*
X+346982Y+7969152D01*
X+356204Y+7979532D01*
X+366699Y+7987220D01*
X+377194Y+7992138D01*
X+387689Y+7994944D01*
X+398184Y+7995917D01*
X+398780Y+7995920D01*
X+335280Y+7932420D02*
X+335497Y+7927173D01*
X+337262Y+7916678D01*
X+340954Y+7906183D01*
X+346982Y+7895688D01*
X+356204Y+7885308D01*
X+366699Y+7877620D01*
X+377194Y+7872702D01*
X+387689Y+7869896D01*
X+398184Y+7868923D01*
X+398780Y+7868920D01*
X+462280Y+7932420D02*
X+462063Y+7927173D01*
X+460298Y+7916678D01*
X+456606Y+7906183D01*
X+450578Y+7895688D01*
X+441356Y+7885308D01*
X+430861Y+7877620D01*
X+420366Y+7872702D01*
X+409871Y+7869896D01*
X+399376Y+7868923D01*
X+398780Y+7868920D01*
X+398780Y+7995920D02*
X+398780Y+7868920D01*
X+335280Y+7932420D02*
X+462280Y+7932420D01*
X+462063Y+7937667D01*
X+460298Y+7948162D01*
X+456606Y+7958657D01*
X+450578Y+7969152D01*
X+441356Y+7979532D01*
X+430861Y+7987220D01*
X+420366Y+7992138D01*
X+409871Y+7994944D01*
X+399376Y+7995917D01*
X+398780Y+7995920D01*
X+335280Y+7932420D02*
X+335497Y+7937667D01*
X+337262Y+7948162D01*
X+340954Y+7958657D01*
X+346982Y+7969152D01*
X+356204Y+7979532D01*
X+366699Y+7987220D01*
X+377194Y+7992138D01*
X+387689Y+7994944D01*
X+398184Y+7995917D01*
X+398780Y+7995920D01*
X+335280Y+7932420D02*
X+335497Y+7927173D01*
X+337262Y+7916678D01*
X+340954Y+7906183D01*
X+346982Y+7895688D01*
X+356204Y+7885308D01*
X+366699Y+7877620D01*
X+377194Y+7872702D01*
X+387689Y+7869896D01*
X+398184Y+7868923D01*
X+398780Y+7868920D01*
X+462280Y+7932420D02*
X+462063Y+7927173D01*
X+460298Y+7916678D01*
X+456606Y+7906183D01*
X+450578Y+7895688D01*
X+441356Y+7885308D01*
X+430861Y+7877620D01*
X+420366Y+7872702D01*
X+409871Y+7869896D01*
X+399376Y+7868923D01*
X+398780Y+7868920D01*
X+353879Y+7977321D02*
X+443681Y+7887519D01*
X+353879Y+7887519D02*
X+443681Y+7977321D01*
X+7950000Y+3857100D02*
X+7950000Y+3730100D01*
X+7886500Y+3793600D02*
X+8013500Y+3793600D01*
X+7950000Y+4060300D02*
X+7950000Y+3933300D01*
X+7886500Y+3996800D02*
X+8013500Y+3996800D01*
X+7950000Y+4263500D02*
X+7950000Y+4136500D01*
X+7886500Y+4200000D02*
X+8013500Y+4200000D01*
X+10802860Y+3441400D02*
X+10802643Y+3446647D01*
X+10800878Y+3457142D01*
X+10797186Y+3467637D01*
X+10791158Y+3478132D01*
X+10781936Y+3488512D01*
X+10771441Y+3496200D01*
X+10760946Y+3501118D01*
X+10750451Y+3503924D01*
X+10739956Y+3504897D01*
X+10739360Y+3504900D01*
X+10675860Y+3441400D02*
X+10676077Y+3446647D01*
X+10677842Y+3457142D01*
X+10681534Y+3467637D01*
X+10687562Y+3478132D01*
X+10696784Y+3488512D01*
X+10707279Y+3496200D01*
X+10717774Y+3501118D01*
X+10728269Y+3503924D01*
X+10738764Y+3504897D01*
X+10739360Y+3504900D01*
X+10675860Y+3441400D02*
X+10676077Y+3436153D01*
X+10677842Y+3425658D01*
X+10681534Y+3415163D01*
X+10687562Y+3404668D01*
X+10696784Y+3394288D01*
X+10707279Y+3386600D01*
X+10717774Y+3381682D01*
X+10728269Y+3378876D01*
X+10738764Y+3377903D01*
X+10739360Y+3377900D01*
X+10802860Y+3441400D02*
X+10802643Y+3436153D01*
X+10800878Y+3425658D01*
X+10797186Y+3415163D01*
X+10791158Y+3404668D01*
X+10781936Y+3394288D01*
X+10771441Y+3386600D01*
X+10760946Y+3381682D01*
X+10750451Y+3378876D01*
X+10739956Y+3377903D01*
X+10739360Y+3377900D01*
X+10694459Y+3486301D02*
X+10784261Y+3396499D01*
X+10694459Y+3396499D02*
X+10784261Y+3486301D01*
X+11564860Y+3441400D02*
X+11564643Y+3446647D01*
X+11562878Y+3457142D01*
X+11559186Y+3467637D01*
X+11553158Y+3478132D01*
X+11543936Y+3488512D01*
X+11533441Y+3496200D01*
X+11522946Y+3501118D01*
X+11512451Y+3503924D01*
X+11501956Y+3504897D01*
X+11501360Y+3504900D01*
X+11437860Y+3441400D02*
X+11438077Y+3446647D01*
X+11439842Y+3457142D01*
X+11443534Y+3467637D01*
X+11449562Y+3478132D01*
X+11458784Y+3488512D01*
X+11469279Y+3496200D01*
X+11479774Y+3501118D01*
X+11490269Y+3503924D01*
X+11500764Y+3504897D01*
X+11501360Y+3504900D01*
X+11437860Y+3441400D02*
X+11438077Y+3436153D01*
X+11439842Y+3425658D01*
X+11443534Y+3415163D01*
X+11449562Y+3404668D01*
X+11458784Y+3394288D01*
X+11469279Y+3386600D01*
X+11479774Y+3381682D01*
X+11490269Y+3378876D01*
X+11500764Y+3377903D01*
X+11501360Y+3377900D01*
X+11564860Y+3441400D02*
X+11564643Y+3436153D01*
X+11562878Y+3425658D01*
X+11559186Y+3415163D01*
X+11553158Y+3404668D01*
X+11543936Y+3394288D01*
X+11533441Y+3386600D01*
X+11522946Y+3381682D01*
X+11512451Y+3378876D01*
X+11501956Y+3377903D01*
X+11501360Y+3377900D01*
X+11456459Y+3486301D02*
X+11546261Y+3396499D01*
X+11456459Y+3396499D02*
X+11546261Y+3486301D01*
X+11798300Y+5321300D02*
X+11798083Y+5326547D01*
X+11796318Y+5337042D01*
X+11792626Y+5347537D01*
X+11786598Y+5358032D01*
X+11777376Y+5368412D01*
X+11766881Y+5376100D01*
X+11756386Y+5381018D01*
X+11745891Y+5383824D01*
X+11735396Y+5384797D01*
X+11734800Y+5384800D01*
X+11671300Y+5321300D02*
X+11671517Y+5326547D01*
X+11673282Y+5337042D01*
X+11676974Y+5347537D01*
X+11683002Y+5358032D01*
X+11692224Y+5368412D01*
X+11702719Y+5376100D01*
X+11713214Y+5381018D01*
X+11723709Y+5383824D01*
X+11734204Y+5384797D01*
X+11734800Y+5384800D01*
X+11671300Y+5321300D02*
X+11671517Y+5316053D01*
X+11673282Y+5305558D01*
X+11676974Y+5295063D01*
X+11683002Y+5284568D01*
X+11692224Y+5274188D01*
X+11702719Y+5266500D01*
X+11713214Y+5261582D01*
X+11723709Y+5258776D01*
X+11734204Y+5257803D01*
X+11734800Y+5257800D01*
X+11798300Y+5321300D02*
X+11798083Y+5316053D01*
X+11796318Y+5305558D01*
X+11792626Y+5295063D01*
X+11786598Y+5284568D01*
X+11777376Y+5274188D01*
X+11766881Y+5266500D01*
X+11756386Y+5261582D01*
X+11745891Y+5258776D01*
X+11735396Y+5257803D01*
X+11734800Y+5257800D01*
X+11734800Y+5384800D02*
X+11734800Y+5257800D01*
X+11671300Y+5321300D02*
X+11798300Y+5321300D01*
X+11798083Y+5326547D01*
X+11796318Y+5337042D01*
X+11792626Y+5347537D01*
X+11786598Y+5358032D01*
X+11777376Y+5368412D01*
X+11766881Y+5376100D01*
X+11756386Y+5381018D01*
X+11745891Y+5383824D01*
X+11735396Y+5384797D01*
X+11734800Y+5384800D01*
X+11671300Y+5321300D02*
X+11671517Y+5326547D01*
X+11673282Y+5337042D01*
X+11676974Y+5347537D01*
X+11683002Y+5358032D01*
X+11692224Y+5368412D01*
X+11702719Y+5376100D01*
X+11713214Y+5381018D01*
X+11723709Y+5383824D01*
X+11734204Y+5384797D01*
X+11734800Y+5384800D01*
X+11671300Y+5321300D02*
X+11671517Y+5316053D01*
X+11673282Y+5305558D01*
X+11676974Y+5295063D01*
X+11683002Y+5284568D01*
X+11692224Y+5274188D01*
X+11702719Y+5266500D01*
X+11713214Y+5261582D01*
X+11723709Y+5258776D01*
X+11734204Y+5257803D01*
X+11734800Y+5257800D01*
X+11798300Y+5321300D02*
X+11798083Y+5316053D01*
X+11796318Y+5305558D01*
X+11792626Y+5295063D01*
X+11786598Y+5284568D01*
X+11777376Y+5274188D01*
X+11766881Y+5266500D01*
X+11756386Y+5261582D01*
X+11745891Y+5258776D01*
X+11735396Y+5257803D01*
X+11734800Y+5257800D01*
X+11689899Y+5366201D02*
X+11779701Y+5276399D01*
X+11689899Y+5276399D02*
X+11779701Y+5366201D01*
X+11798300Y+4820920D02*
X+11798083Y+4826167D01*
X+11796318Y+4836662D01*
X+11792626Y+4847157D01*
X+11786598Y+4857652D01*
X+11777376Y+4868032D01*
X+11766881Y+4875720D01*
X+11756386Y+4880638D01*
X+11745891Y+4883444D01*
X+11735396Y+4884417D01*
X+11734800Y+4884420D01*
X+11671300Y+4820920D02*
X+11671517Y+4826167D01*
X+11673282Y+4836662D01*
X+11676974Y+4847157D01*
X+11683002Y+4857652D01*
X+11692224Y+4868032D01*
X+11702719Y+4875720D01*
X+11713214Y+4880638D01*
X+11723709Y+4883444D01*
X+11734204Y+4884417D01*
X+11734800Y+4884420D01*
X+11671300Y+4820920D02*
X+11671517Y+4815673D01*
X+11673282Y+4805178D01*
X+11676974Y+4794683D01*
X+11683002Y+4784188D01*
X+11692224Y+4773808D01*
X+11702719Y+4766120D01*
X+11713214Y+4761202D01*
X+11723709Y+4758396D01*
X+11734204Y+4757423D01*
X+11734800Y+4757420D01*
X+11798300Y+4820920D02*
X+11798083Y+4815673D01*
X+11796318Y+4805178D01*
X+11792626Y+4794683D01*
X+11786598Y+4784188D01*
X+11777376Y+4773808D01*
X+11766881Y+4766120D01*
X+11756386Y+4761202D01*
X+11745891Y+4758396D01*
X+11735396Y+4757423D01*
X+11734800Y+4757420D01*
X+11734800Y+4884420D02*
X+11734800Y+4757420D01*
X+11671300Y+4820920D02*
X+11798300Y+4820920D01*
X+11798083Y+4826167D01*
X+11796318Y+4836662D01*
X+11792626Y+4847157D01*
X+11786598Y+4857652D01*
X+11777376Y+4868032D01*
X+11766881Y+4875720D01*
X+11756386Y+4880638D01*
X+11745891Y+4883444D01*
X+11735396Y+4884417D01*
X+11734800Y+4884420D01*
X+11671300Y+4820920D02*
X+11671517Y+4826167D01*
X+11673282Y+4836662D01*
X+11676974Y+4847157D01*
X+11683002Y+4857652D01*
X+11692224Y+4868032D01*
X+11702719Y+4875720D01*
X+11713214Y+4880638D01*
X+11723709Y+4883444D01*
X+11734204Y+4884417D01*
X+11734800Y+4884420D01*
X+11671300Y+4820920D02*
X+11671517Y+4815673D01*
X+11673282Y+4805178D01*
X+11676974Y+4794683D01*
X+11683002Y+4784188D01*
X+11692224Y+4773808D01*
X+11702719Y+4766120D01*
X+11713214Y+4761202D01*
X+11723709Y+4758396D01*
X+11734204Y+4757423D01*
X+11734800Y+4757420D01*
X+11798300Y+4820920D02*
X+11798083Y+4815673D01*
X+11796318Y+4805178D01*
X+11792626Y+4794683D01*
X+11786598Y+4784188D01*
X+11777376Y+4773808D01*
X+11766881Y+4766120D01*
X+11756386Y+4761202D01*
X+11745891Y+4758396D01*
X+11735396Y+4757423D01*
X+11734800Y+4757420D01*
X+11689899Y+4865821D02*
X+11779701Y+4776019D01*
X+11689899Y+4776019D02*
X+11779701Y+4865821D01*
X+11798300Y+4320540D02*
X+11798083Y+4325787D01*
X+11796318Y+4336282D01*
X+11792626Y+4346777D01*
X+11786598Y+4357272D01*
X+11777376Y+4367652D01*
X+11766881Y+4375340D01*
X+11756386Y+4380258D01*
X+11745891Y+4383064D01*
X+11735396Y+4384037D01*
X+11734800Y+4384040D01*
X+11671300Y+4320540D02*
X+11671517Y+4325787D01*
X+11673282Y+4336282D01*
X+11676974Y+4346777D01*
X+11683002Y+4357272D01*
X+11692224Y+4367652D01*
X+11702719Y+4375340D01*
X+11713214Y+4380258D01*
X+11723709Y+4383064D01*
X+11734204Y+4384037D01*
X+11734800Y+4384040D01*
X+11671300Y+4320540D02*
X+11671517Y+4315293D01*
X+11673282Y+4304798D01*
X+11676974Y+4294303D01*
X+11683002Y+4283808D01*
X+11692224Y+4273428D01*
X+11702719Y+4265740D01*
X+11713214Y+4260822D01*
X+11723709Y+4258016D01*
X+11734204Y+4257043D01*
X+11734800Y+4257040D01*
X+11798300Y+4320540D02*
X+11798083Y+4315293D01*
X+11796318Y+4304798D01*
X+11792626Y+4294303D01*
X+11786598Y+4283808D01*
X+11777376Y+4273428D01*
X+11766881Y+4265740D01*
X+11756386Y+4260822D01*
X+11745891Y+4258016D01*
X+11735396Y+4257043D01*
X+11734800Y+4257040D01*
X+11734800Y+4384040D02*
X+11734800Y+4257040D01*
X+11671300Y+4320540D02*
X+11798300Y+4320540D01*
X+11798083Y+4325787D01*
X+11796318Y+4336282D01*
X+11792626Y+4346777D01*
X+11786598Y+4357272D01*
X+11777376Y+4367652D01*
X+11766881Y+4375340D01*
X+11756386Y+4380258D01*
X+11745891Y+4383064D01*
X+11735396Y+4384037D01*
X+11734800Y+4384040D01*
X+11671300Y+4320540D02*
X+11671517Y+4325787D01*
X+11673282Y+4336282D01*
X+11676974Y+4346777D01*
X+11683002Y+4357272D01*
X+11692224Y+4367652D01*
X+11702719Y+4375340D01*
X+11713214Y+4380258D01*
X+11723709Y+4383064D01*
X+11734204Y+4384037D01*
X+11734800Y+4384040D01*
X+11671300Y+4320540D02*
X+11671517Y+4315293D01*
X+11673282Y+4304798D01*
X+11676974Y+4294303D01*
X+11683002Y+4283808D01*
X+11692224Y+4273428D01*
X+11702719Y+4265740D01*
X+11713214Y+4260822D01*
X+11723709Y+4258016D01*
X+11734204Y+4257043D01*
X+11734800Y+4257040D01*
X+11798300Y+4320540D02*
X+11798083Y+4315293D01*
X+11796318Y+4304798D01*
X+11792626Y+4294303D01*
X+11786598Y+4283808D01*
X+11777376Y+4273428D01*
X+11766881Y+4265740D01*
X+11756386Y+4260822D01*
X+11745891Y+4258016D01*
X+11735396Y+4257043D01*
X+11734800Y+4257040D01*
X+11689899Y+4365441D02*
X+11779701Y+4275639D01*
X+11689899Y+4275639D02*
X+11779701Y+4365441D01*
X+7424420Y+3373880D02*
X+7424203Y+3379127D01*
X+7422438Y+3389622D01*
X+7418746Y+3400117D01*
X+7412718Y+3410612D01*
X+7403496Y+3420992D01*
X+7393001Y+3428680D01*
X+7382506Y+3433598D01*
X+7372011Y+3436404D01*
X+7361516Y+3437377D01*
X+7360920Y+3437380D01*
X+7297420Y+3373880D02*
X+7297637Y+3379127D01*
X+7299402Y+3389622D01*
X+7303094Y+3400117D01*
X+7309122Y+3410612D01*
X+7318344Y+3420992D01*
X+7328839Y+3428680D01*
X+7339334Y+3433598D01*
X+7349829Y+3436404D01*
X+7360324Y+3437377D01*
X+7360920Y+3437380D01*
X+7297420Y+3373880D02*
X+7297637Y+3368633D01*
X+7299402Y+3358138D01*
X+7303094Y+3347643D01*
X+7309122Y+3337148D01*
X+7318344Y+3326768D01*
X+7328839Y+3319080D01*
X+7339334Y+3314162D01*
X+7349829Y+3311356D01*
X+7360324Y+3310383D01*
X+7360920Y+3310380D01*
X+7424420Y+3373880D02*
X+7424203Y+3368633D01*
X+7422438Y+3358138D01*
X+7418746Y+3347643D01*
X+7412718Y+3337148D01*
X+7403496Y+3326768D01*
X+7393001Y+3319080D01*
X+7382506Y+3314162D01*
X+7372011Y+3311356D01*
X+7361516Y+3310383D01*
X+7360920Y+3310380D01*
X+7316019Y+3418781D02*
X+7405821Y+3328979D01*
X+7316019Y+3328979D02*
X+7405821Y+3418781D01*
X+7424420Y+4373880D02*
X+7424203Y+4379127D01*
X+7422438Y+4389622D01*
X+7418746Y+4400117D01*
X+7412718Y+4410612D01*
X+7403496Y+4420992D01*
X+7393001Y+4428680D01*
X+7382506Y+4433598D01*
X+7372011Y+4436404D01*
X+7361516Y+4437377D01*
X+7360920Y+4437380D01*
X+7297420Y+4373880D02*
X+7297637Y+4379127D01*
X+7299402Y+4389622D01*
X+7303094Y+4400117D01*
X+7309122Y+4410612D01*
X+7318344Y+4420992D01*
X+7328839Y+4428680D01*
X+7339334Y+4433598D01*
X+7349829Y+4436404D01*
X+7360324Y+4437377D01*
X+7360920Y+4437380D01*
X+7297420Y+4373880D02*
X+7297637Y+4368633D01*
X+7299402Y+4358138D01*
X+7303094Y+4347643D01*
X+7309122Y+4337148D01*
X+7318344Y+4326768D01*
X+7328839Y+4319080D01*
X+7339334Y+4314162D01*
X+7349829Y+4311356D01*
X+7360324Y+4310383D01*
X+7360920Y+4310380D01*
X+7424420Y+4373880D02*
X+7424203Y+4368633D01*
X+7422438Y+4358138D01*
X+7418746Y+4347643D01*
X+7412718Y+4337148D01*
X+7403496Y+4326768D01*
X+7393001Y+4319080D01*
X+7382506Y+4314162D01*
X+7372011Y+4311356D01*
X+7361516Y+4310383D01*
X+7360920Y+4310380D01*
X+7316019Y+4418781D02*
X+7405821Y+4328979D01*
X+7316019Y+4328979D02*
X+7405821Y+4418781D01*
X+3892099Y+9315901D02*
X+3981901Y+9226099D01*
X+3892099Y+9226099D02*
X+3981901Y+9315901D01*
X+3892099Y+9569901D02*
X+3981901Y+9480099D01*
X+3892099Y+9480099D02*
X+3981901Y+9569901D01*
X+7067099Y+9315901D02*
X+7156901Y+9226099D01*
X+7067099Y+9226099D02*
X+7156901Y+9315901D01*
X+7067099Y+9569901D02*
X+7156901Y+9480099D01*
X+7067099Y+9480099D02*
X+7156901Y+9569901D01*
X+11681460Y+2773680D02*
X+11681460Y+2646680D01*
X+11617960Y+2710180D02*
X+11744960Y+2710180D01*
X+11681460Y+2570480D02*
X+11681460Y+2443480D01*
X+11617960Y+2506980D02*
X+11744960Y+2506980D01*
X+11681460Y+2367280D02*
X+11681460Y+2240280D01*
X+11617960Y+2303780D02*
X+11744960Y+2303780D01*
X+10767060Y+1678940D02*
X+10766843Y+1684187D01*
X+10765078Y+1694682D01*
X+10761386Y+1705177D01*
X+10755358Y+1715672D01*
X+10746136Y+1726052D01*
X+10735641Y+1733740D01*
X+10725146Y+1738658D01*
X+10714651Y+1741464D01*
X+10704156Y+1742437D01*
X+10703560Y+1742440D01*
X+10640060Y+1678940D02*
X+10640277Y+1684187D01*
X+10642042Y+1694682D01*
X+10645734Y+1705177D01*
X+10651762Y+1715672D01*
X+10660984Y+1726052D01*
X+10671479Y+1733740D01*
X+10681974Y+1738658D01*
X+10692469Y+1741464D01*
X+10702964Y+1742437D01*
X+10703560Y+1742440D01*
X+10640060Y+1678940D02*
X+10640277Y+1673693D01*
X+10642042Y+1663198D01*
X+10645734Y+1652703D01*
X+10651762Y+1642208D01*
X+10660984Y+1631828D01*
X+10671479Y+1624140D01*
X+10681974Y+1619222D01*
X+10692469Y+1616416D01*
X+10702964Y+1615443D01*
X+10703560Y+1615440D01*
X+10767060Y+1678940D02*
X+10766843Y+1673693D01*
X+10765078Y+1663198D01*
X+10761386Y+1652703D01*
X+10755358Y+1642208D01*
X+10746136Y+1631828D01*
X+10735641Y+1624140D01*
X+10725146Y+1619222D01*
X+10714651Y+1616416D01*
X+10704156Y+1615443D01*
X+10703560Y+1615440D01*
X+10658659Y+1723841D02*
X+10748461Y+1634039D01*
X+10658659Y+1634039D02*
X+10748461Y+1723841D01*
X+11767060Y+1678940D02*
X+11766843Y+1684187D01*
X+11765078Y+1694682D01*
X+11761386Y+1705177D01*
X+11755358Y+1715672D01*
X+11746136Y+1726052D01*
X+11735641Y+1733740D01*
X+11725146Y+1738658D01*
X+11714651Y+1741464D01*
X+11704156Y+1742437D01*
X+11703560Y+1742440D01*
X+11640060Y+1678940D02*
X+11640277Y+1684187D01*
X+11642042Y+1694682D01*
X+11645734Y+1705177D01*
X+11651762Y+1715672D01*
X+11660984Y+1726052D01*
X+11671479Y+1733740D01*
X+11681974Y+1738658D01*
X+11692469Y+1741464D01*
X+11702964Y+1742437D01*
X+11703560Y+1742440D01*
X+11640060Y+1678940D02*
X+11640277Y+1673693D01*
X+11642042Y+1663198D01*
X+11645734Y+1652703D01*
X+11651762Y+1642208D01*
X+11660984Y+1631828D01*
X+11671479Y+1624140D01*
X+11681974Y+1619222D01*
X+11692469Y+1616416D01*
X+11702964Y+1615443D01*
X+11703560Y+1615440D01*
X+11767060Y+1678940D02*
X+11766843Y+1673693D01*
X+11765078Y+1663198D01*
X+11761386Y+1652703D01*
X+11755358Y+1642208D01*
X+11746136Y+1631828D01*
X+11735641Y+1624140D01*
X+11725146Y+1619222D01*
X+11714651Y+1616416D01*
X+11704156Y+1615443D01*
X+11703560Y+1615440D01*
X+11658659Y+1723841D02*
X+11748461Y+1634039D01*
X+11658659Y+1634039D02*
X+11748461Y+1723841D01*
X+1346340Y+5905500D02*
X+1346123Y+5910747D01*
X+1344358Y+5921242D01*
X+1340666Y+5931737D01*
X+1334638Y+5942232D01*
X+1325416Y+5952612D01*
X+1314921Y+5960300D01*
X+1304426Y+5965218D01*
X+1293931Y+5968024D01*
X+1283436Y+5968997D01*
X+1282840Y+5969000D01*
X+1219340Y+5905500D02*
X+1219557Y+5910747D01*
X+1221322Y+5921242D01*
X+1225014Y+5931737D01*
X+1231042Y+5942232D01*
X+1240264Y+5952612D01*
X+1250759Y+5960300D01*
X+1261254Y+5965218D01*
X+1271749Y+5968024D01*
X+1282244Y+5968997D01*
X+1282840Y+5969000D01*
X+1219340Y+5905500D02*
X+1219557Y+5900253D01*
X+1221322Y+5889758D01*
X+1225014Y+5879263D01*
X+1231042Y+5868768D01*
X+1240264Y+5858388D01*
X+1250759Y+5850700D01*
X+1261254Y+5845782D01*
X+1271749Y+5842976D01*
X+1282244Y+5842003D01*
X+1282840Y+5842000D01*
X+1346340Y+5905500D02*
X+1346123Y+5900253D01*
X+1344358Y+5889758D01*
X+1340666Y+5879263D01*
X+1334638Y+5868768D01*
X+1325416Y+5858388D01*
X+1314921Y+5850700D01*
X+1304426Y+5845782D01*
X+1293931Y+5842976D01*
X+1283436Y+5842003D01*
X+1282840Y+5842000D01*
X+1237939Y+5950401D02*
X+1327741Y+5860599D01*
X+1237939Y+5860599D02*
X+1327741Y+5950401D01*
X+1346340Y+6905500D02*
X+1346123Y+6910747D01*
X+1344358Y+6921242D01*
X+1340666Y+6931737D01*
X+1334638Y+6942232D01*
X+1325416Y+6952612D01*
X+1314921Y+6960300D01*
X+1304426Y+6965218D01*
X+1293931Y+6968024D01*
X+1283436Y+6968997D01*
X+1282840Y+6969000D01*
X+1219340Y+6905500D02*
X+1219557Y+6910747D01*
X+1221322Y+6921242D01*
X+1225014Y+6931737D01*
X+1231042Y+6942232D01*
X+1240264Y+6952612D01*
X+1250759Y+6960300D01*
X+1261254Y+6965218D01*
X+1271749Y+6968024D01*
X+1282244Y+6968997D01*
X+1282840Y+6969000D01*
X+1219340Y+6905500D02*
X+1219557Y+6900253D01*
X+1221322Y+6889758D01*
X+1225014Y+6879263D01*
X+1231042Y+6868768D01*
X+1240264Y+6858388D01*
X+1250759Y+6850700D01*
X+1261254Y+6845782D01*
X+1271749Y+6842976D01*
X+1282244Y+6842003D01*
X+1282840Y+6842000D01*
X+1346340Y+6905500D02*
X+1346123Y+6900253D01*
X+1344358Y+6889758D01*
X+1340666Y+6879263D01*
X+1334638Y+6868768D01*
X+1325416Y+6858388D01*
X+1314921Y+6850700D01*
X+1304426Y+6845782D01*
X+1293931Y+6842976D01*
X+1283436Y+6842003D01*
X+1282840Y+6842000D01*
X+1237939Y+6950401D02*
X+1327741Y+6860599D01*
X+1237939Y+6860599D02*
X+1327741Y+6950401D01*
X+1306000Y+3499500D02*
X+1306000Y+3372500D01*
X+1242500Y+3436000D02*
X+1369500Y+3436000D01*
X+1261099Y+3480901D02*
X+1350901Y+3391099D01*
X+1261099Y+3391099D02*
X+1350901Y+3480901D01*
X+1306000Y+2499500D02*
X+1306000Y+2372500D01*
X+1242500Y+2436000D02*
X+1369500Y+2436000D01*
X+1261099Y+2480901D02*
X+1350901Y+2391099D01*
X+1261099Y+2391099D02*
X+1350901Y+2480901D01*
X+3637500Y+2592000D02*
X+3637283Y+2597247D01*
X+3635518Y+2607742D01*
X+3631826Y+2618237D01*
X+3625798Y+2628732D01*
X+3616576Y+2639112D01*
X+3606081Y+2646800D01*
X+3595586Y+2651718D01*
X+3585091Y+2654524D01*
X+3574596Y+2655497D01*
X+3574000Y+2655500D01*
X+3510500Y+2592000D02*
X+3510717Y+2597247D01*
X+3512482Y+2607742D01*
X+3516174Y+2618237D01*
X+3522202Y+2628732D01*
X+3531424Y+2639112D01*
X+3541919Y+2646800D01*
X+3552414Y+2651718D01*
X+3562909Y+2654524D01*
X+3573404Y+2655497D01*
X+3574000Y+2655500D01*
X+3510500Y+2592000D02*
X+3510717Y+2586753D01*
X+3512482Y+2576258D01*
X+3516174Y+2565763D01*
X+3522202Y+2555268D01*
X+3531424Y+2544888D01*
X+3541919Y+2537200D01*
X+3552414Y+2532282D01*
X+3562909Y+2529476D01*
X+3573404Y+2528503D01*
X+3574000Y+2528500D01*
X+3637500Y+2592000D02*
X+3637283Y+2586753D01*
X+3635518Y+2576258D01*
X+3631826Y+2565763D01*
X+3625798Y+2555268D01*
X+3616576Y+2544888D01*
X+3606081Y+2537200D01*
X+3595586Y+2532282D01*
X+3585091Y+2529476D01*
X+3574596Y+2528503D01*
X+3574000Y+2528500D01*
X+3529099Y+2636901D02*
X+3618901Y+2547099D01*
X+3529099Y+2547099D02*
X+3618901Y+2636901D01*
X+2637500Y+2592000D02*
X+2637283Y+2597247D01*
X+2635518Y+2607742D01*
X+2631826Y+2618237D01*
X+2625798Y+2628732D01*
X+2616576Y+2639112D01*
X+2606081Y+2646800D01*
X+2595586Y+2651718D01*
X+2585091Y+2654524D01*
X+2574596Y+2655497D01*
X+2574000Y+2655500D01*
X+2510500Y+2592000D02*
X+2510717Y+2597247D01*
X+2512482Y+2607742D01*
X+2516174Y+2618237D01*
X+2522202Y+2628732D01*
X+2531424Y+2639112D01*
X+2541919Y+2646800D01*
X+2552414Y+2651718D01*
X+2562909Y+2654524D01*
X+2573404Y+2655497D01*
X+2574000Y+2655500D01*
X+2510500Y+2592000D02*
X+2510717Y+2586753D01*
X+2512482Y+2576258D01*
X+2516174Y+2565763D01*
X+2522202Y+2555268D01*
X+2531424Y+2544888D01*
X+2541919Y+2537200D01*
X+2552414Y+2532282D01*
X+2562909Y+2529476D01*
X+2573404Y+2528503D01*
X+2574000Y+2528500D01*
X+2637500Y+2592000D02*
X+2637283Y+2586753D01*
X+2635518Y+2576258D01*
X+2631826Y+2565763D01*
X+2625798Y+2555268D01*
X+2616576Y+2544888D01*
X+2606081Y+2537200D01*
X+2595586Y+2532282D01*
X+2585091Y+2529476D01*
X+2574596Y+2528503D01*
X+2574000Y+2528500D01*
X+2529099Y+2636901D02*
X+2618901Y+2547099D01*
X+2529099Y+2547099D02*
X+2618901Y+2636901D01*
X+2065020Y+9596120D02*
X+2065020Y+9469120D01*
X+2001520Y+9532620D02*
X+2128520Y+9532620D01*
X+2020119Y+9577521D02*
X+2109921Y+9487719D01*
X+2020119Y+9487719D02*
X+2109921Y+9577521D01*
X+2319020Y+9596120D02*
X+2319020Y+9469120D01*
X+2255520Y+9532620D02*
X+2382520Y+9532620D01*
X+2274119Y+9577521D02*
X+2363921Y+9487719D01*
X+2274119Y+9487719D02*
X+2363921Y+9577521D01*
X+2573020Y+9596120D02*
X+2573020Y+9469120D01*
X+2509520Y+9532620D02*
X+2636520Y+9532620D01*
X+2528119Y+9577521D02*
X+2617921Y+9487719D01*
X+2528119Y+9487719D02*
X+2617921Y+9577521D01*
X+2827020Y+9596120D02*
X+2827020Y+9469120D01*
X+2763520Y+9532620D02*
X+2890520Y+9532620D01*
X+2782119Y+9577521D02*
X+2871921Y+9487719D01*
X+2782119Y+9487719D02*
X+2871921Y+9577521D01*
X+4953000Y+9588500D02*
X+4953000Y+9461500D01*
X+4889500Y+9525000D02*
X+5016500Y+9525000D01*
X+4908099Y+9569901D02*
X+4997901Y+9480099D01*
X+4908099Y+9480099D02*
X+4997901Y+9569901D01*
X+5207000Y+9588500D02*
X+5207000Y+9461500D01*
X+5143500Y+9525000D02*
X+5270500Y+9525000D01*
X+5162099Y+9569901D02*
X+5251901Y+9480099D01*
X+5162099Y+9480099D02*
X+5251901Y+9569901D01*
X+5461000Y+9588500D02*
X+5461000Y+9461500D01*
X+5397500Y+9525000D02*
X+5524500Y+9525000D01*
X+5416099Y+9569901D02*
X+5505901Y+9480099D01*
X+5416099Y+9480099D02*
X+5505901Y+9569901D01*
X+5715000Y+9588500D02*
X+5715000Y+9461500D01*
X+5651500Y+9525000D02*
X+5778500Y+9525000D01*
X+5670099Y+9569901D02*
X+5759901Y+9480099D01*
X+5670099Y+9480099D02*
X+5759901Y+9569901D01*
X+8001000Y+9588500D02*
X+8001000Y+9461500D01*
X+7937500Y+9525000D02*
X+8064500Y+9525000D01*
X+7956099Y+9569901D02*
X+8045901Y+9480099D01*
X+7956099Y+9480099D02*
X+8045901Y+9569901D01*
X+8255000Y+9588500D02*
X+8255000Y+9461500D01*
X+8191500Y+9525000D02*
X+8318500Y+9525000D01*
X+8210099Y+9569901D02*
X+8299901Y+9480099D01*
X+8210099Y+9480099D02*
X+8299901Y+9569901D01*
X+8509000Y+9588500D02*
X+8509000Y+9461500D01*
X+8445500Y+9525000D02*
X+8572500Y+9525000D01*
X+8464099Y+9569901D02*
X+8553901Y+9480099D01*
X+8464099Y+9480099D02*
X+8553901Y+9569901D01*
X+8763000Y+9588500D02*
X+8763000Y+9461500D01*
X+8699500Y+9525000D02*
X+8826500Y+9525000D01*
X+8718099Y+9569901D02*
X+8807901Y+9480099D01*
X+8718099Y+9480099D02*
X+8807901Y+9569901D01*
X+3873500Y+5715000D02*
X+3873283Y+5720247D01*
X+3871518Y+5730742D01*
X+3867826Y+5741237D01*
X+3861798Y+5751732D01*
X+3852576Y+5762112D01*
X+3842081Y+5769800D01*
X+3831586Y+5774718D01*
X+3821091Y+5777524D01*
X+3810596Y+5778497D01*
X+3810000Y+5778500D01*
X+3746500Y+5715000D02*
X+3746717Y+5720247D01*
X+3748482Y+5730742D01*
X+3752174Y+5741237D01*
X+3758202Y+5751732D01*
X+3767424Y+5762112D01*
X+3777919Y+5769800D01*
X+3788414Y+5774718D01*
X+3798909Y+5777524D01*
X+3809404Y+5778497D01*
X+3810000Y+5778500D01*
X+3746500Y+5715000D02*
X+3746717Y+5709753D01*
X+3748482Y+5699258D01*
X+3752174Y+5688763D01*
X+3758202Y+5678268D01*
X+3767424Y+5667888D01*
X+3777919Y+5660200D01*
X+3788414Y+5655282D01*
X+3798909Y+5652476D01*
X+3809404Y+5651503D01*
X+3810000Y+5651500D01*
X+3873500Y+5715000D02*
X+3873283Y+5709753D01*
X+3871518Y+5699258D01*
X+3867826Y+5688763D01*
X+3861798Y+5678268D01*
X+3852576Y+5667888D01*
X+3842081Y+5660200D01*
X+3831586Y+5655282D01*
X+3821091Y+5652476D01*
X+3810596Y+5651503D01*
X+3810000Y+5651500D01*
X+3765099Y+5759901D02*
X+3854901Y+5670099D01*
X+3765099Y+5670099D02*
X+3854901Y+5759901D01*
X+2873500Y+5715000D02*
X+2873283Y+5720247D01*
X+2871518Y+5730742D01*
X+2867826Y+5741237D01*
X+2861798Y+5751732D01*
X+2852576Y+5762112D01*
X+2842081Y+5769800D01*
X+2831586Y+5774718D01*
X+2821091Y+5777524D01*
X+2810596Y+5778497D01*
X+2810000Y+5778500D01*
X+2746500Y+5715000D02*
X+2746717Y+5720247D01*
X+2748482Y+5730742D01*
X+2752174Y+5741237D01*
X+2758202Y+5751732D01*
X+2767424Y+5762112D01*
X+2777919Y+5769800D01*
X+2788414Y+5774718D01*
X+2798909Y+5777524D01*
X+2809404Y+5778497D01*
X+2810000Y+5778500D01*
X+2746500Y+5715000D02*
X+2746717Y+5709753D01*
X+2748482Y+5699258D01*
X+2752174Y+5688763D01*
X+2758202Y+5678268D01*
X+2767424Y+5667888D01*
X+2777919Y+5660200D01*
X+2788414Y+5655282D01*
X+2798909Y+5652476D01*
X+2809404Y+5651503D01*
X+2810000Y+5651500D01*
X+2873500Y+5715000D02*
X+2873283Y+5709753D01*
X+2871518Y+5699258D01*
X+2867826Y+5688763D01*
X+2861798Y+5678268D01*
X+2852576Y+5667888D01*
X+2842081Y+5660200D01*
X+2831586Y+5655282D01*
X+2821091Y+5652476D01*
X+2810596Y+5651503D01*
X+2810000Y+5651500D01*
X+2765099Y+5759901D02*
X+2854901Y+5670099D01*
X+2765099Y+5670099D02*
X+2854901Y+5759901D01*
X+5397500Y+5588000D02*
X+5397283Y+5593247D01*
X+5395518Y+5603742D01*
X+5391826Y+5614237D01*
X+5385798Y+5624732D01*
X+5376576Y+5635112D01*
X+5366081Y+5642800D01*
X+5355586Y+5647718D01*
X+5345091Y+5650524D01*
X+5334596Y+5651497D01*
X+5334000Y+5651500D01*
X+5270500Y+5588000D02*
X+5270717Y+5593247D01*
X+5272482Y+5603742D01*
X+5276174Y+5614237D01*
X+5282202Y+5624732D01*
X+5291424Y+5635112D01*
X+5301919Y+5642800D01*
X+5312414Y+5647718D01*
X+5322909Y+5650524D01*
X+5333404Y+5651497D01*
X+5334000Y+5651500D01*
X+5270500Y+5588000D02*
X+5270717Y+5582753D01*
X+5272482Y+5572258D01*
X+5276174Y+5561763D01*
X+5282202Y+5551268D01*
X+5291424Y+5540888D01*
X+5301919Y+5533200D01*
X+5312414Y+5528282D01*
X+5322909Y+5525476D01*
X+5333404Y+5524503D01*
X+5334000Y+5524500D01*
X+5397500Y+5588000D02*
X+5397283Y+5582753D01*
X+5395518Y+5572258D01*
X+5391826Y+5561763D01*
X+5385798Y+5551268D01*
X+5376576Y+5540888D01*
X+5366081Y+5533200D01*
X+5355586Y+5528282D01*
X+5345091Y+5525476D01*
X+5334596Y+5524503D01*
X+5334000Y+5524500D01*
X+5289099Y+5632901D02*
X+5378901Y+5543099D01*
X+5289099Y+5543099D02*
X+5378901Y+5632901D01*
X+4397500Y+5588000D02*
X+4397283Y+5593247D01*
X+4395518Y+5603742D01*
X+4391826Y+5614237D01*
X+4385798Y+5624732D01*
X+4376576Y+5635112D01*
X+4366081Y+5642800D01*
X+4355586Y+5647718D01*
X+4345091Y+5650524D01*
X+4334596Y+5651497D01*
X+4334000Y+5651500D01*
X+4270500Y+5588000D02*
X+4270717Y+5593247D01*
X+4272482Y+5603742D01*
X+4276174Y+5614237D01*
X+4282202Y+5624732D01*
X+4291424Y+5635112D01*
X+4301919Y+5642800D01*
X+4312414Y+5647718D01*
X+4322909Y+5650524D01*
X+4333404Y+5651497D01*
X+4334000Y+5651500D01*
X+4270500Y+5588000D02*
X+4270717Y+5582753D01*
X+4272482Y+5572258D01*
X+4276174Y+5561763D01*
X+4282202Y+5551268D01*
X+4291424Y+5540888D01*
X+4301919Y+5533200D01*
X+4312414Y+5528282D01*
X+4322909Y+5525476D01*
X+4333404Y+5524503D01*
X+4334000Y+5524500D01*
X+4397500Y+5588000D02*
X+4397283Y+5582753D01*
X+4395518Y+5572258D01*
X+4391826Y+5561763D01*
X+4385798Y+5551268D01*
X+4376576Y+5540888D01*
X+4366081Y+5533200D01*
X+4355586Y+5528282D01*
X+4345091Y+5525476D01*
X+4334596Y+5524503D01*
X+4334000Y+5524500D01*
X+4289099Y+5632901D02*
X+4378901Y+5543099D01*
X+4289099Y+5543099D02*
X+4378901Y+5632901D01*
X+760000Y+4513500D02*
X+760000Y+4386500D01*
X+696500Y+4450000D02*
X+823500Y+4450000D01*
X+715099Y+4494901D02*
X+804901Y+4405099D01*
X+715099Y+4405099D02*
X+804901Y+4494901D01*
X+760000Y+4259500D02*
X+760000Y+4132500D01*
X+696500Y+4196000D02*
X+823500Y+4196000D01*
X+715099Y+4240901D02*
X+804901Y+4151099D01*
X+715099Y+4151099D02*
X+804901Y+4240901D01*
X+760000Y+4005500D02*
X+760000Y+3878500D01*
X+696500Y+3942000D02*
X+823500Y+3942000D01*
X+715099Y+3986901D02*
X+804901Y+3897099D01*
X+715099Y+3897099D02*
X+804901Y+3986901D01*
X+760000Y+3751500D02*
X+760000Y+3624500D01*
X+696500Y+3688000D02*
X+823500Y+3688000D01*
X+715099Y+3732901D02*
X+804901Y+3643099D01*
X+715099Y+3643099D02*
X+804901Y+3732901D01*
X+1182679Y+2046601D02*
X+1272481Y+1956799D01*
X+1182679Y+1956799D02*
X+1272481Y+2046601D01*
X+1182679Y+1538601D02*
X+1272481Y+1448799D01*
X+1182679Y+1448799D02*
X+1272481Y+1538601D01*
X+4132580Y+1948200D02*
X+4132580Y+1821200D01*
X+4069080Y+1884700D02*
X+4196080Y+1884700D01*
X+4087679Y+1929601D02*
X+4177481Y+1839799D01*
X+4087679Y+1839799D02*
X+4177481Y+1929601D01*
X+4132580Y+1694200D02*
X+4132580Y+1567200D01*
X+4069080Y+1630700D02*
X+4196080Y+1630700D01*
X+4087679Y+1675601D02*
X+4177481Y+1585799D01*
X+4087679Y+1585799D02*
X+4177481Y+1675601D01*
X+4132580Y+1440200D02*
X+4132580Y+1313200D01*
X+4069080Y+1376700D02*
X+4196080Y+1376700D01*
X+4087679Y+1421601D02*
X+4177481Y+1331799D01*
X+4087679Y+1331799D02*
X+4177481Y+1421601D01*
X+5924099Y+1595901D02*
X+6013901Y+1506099D01*
X+5924099Y+1506099D02*
X+6013901Y+1595901D01*
X+5924099Y+1795901D02*
X+6013901Y+1706099D01*
X+5924099Y+1706099D02*
X+6013901Y+1795901D01*
X+6813099Y+1568901D02*
X+6902901Y+1479099D01*
X+6813099Y+1479099D02*
X+6902901Y+1568901D01*
X+6813099Y+2076901D02*
X+6902901Y+1987099D01*
X+6813099Y+1987099D02*
X+6902901Y+2076901D01*
X+9784080Y+9591040D02*
X+9784080Y+9464040D01*
X+9720580Y+9527540D02*
X+9847580Y+9527540D01*
X+9739179Y+9572441D02*
X+9828981Y+9482639D01*
X+9739179Y+9482639D02*
X+9828981Y+9572441D01*
X+10038080Y+9591040D02*
X+10038080Y+9464040D01*
X+9974580Y+9527540D02*
X+10101580Y+9527540D01*
X+9993179Y+9572441D02*
X+10082981Y+9482639D01*
X+9993179Y+9482639D02*
X+10082981Y+9572441D01*
X+10292080Y+9591040D02*
X+10292080Y+9464040D01*
X+10228580Y+9527540D02*
X+10355580Y+9527540D01*
X+10247179Y+9572441D02*
X+10336981Y+9482639D01*
X+10247179Y+9482639D02*
X+10336981Y+9572441D01*
X+11925300Y+8943340D02*
X+11925300Y+8816340D01*
X+11861800Y+8879840D02*
X+11988800Y+8879840D01*
X+11880399Y+8924741D02*
X+11970201Y+8834939D01*
X+11880399Y+8834939D02*
X+11970201Y+8924741D01*
X+11925300Y+8689340D02*
X+11925300Y+8562340D01*
X+11861800Y+8625840D02*
X+11988800Y+8625840D01*
X+11880399Y+8670741D02*
X+11970201Y+8580939D01*
X+11880399Y+8580939D02*
X+11970201Y+8670741D01*
X+11932920Y+8102600D02*
X+11932920Y+7975600D01*
X+11869420Y+8039100D02*
X+11996420Y+8039100D01*
X+11888019Y+8084001D02*
X+11977821Y+7994199D01*
X+11888019Y+7994199D02*
X+11977821Y+8084001D01*
X+11932920Y+7848600D02*
X+11932920Y+7721600D01*
X+11869420Y+7785100D02*
X+11996420Y+7785100D01*
X+11888019Y+7830001D02*
X+11977821Y+7740199D01*
X+11888019Y+7740199D02*
X+11977821Y+7830001D01*
X+11938000Y+7429500D02*
X+11938000Y+7302500D01*
X+11874500Y+7366000D02*
X+12001500Y+7366000D01*
X+11893099Y+7410901D02*
X+11982901Y+7321099D01*
X+11893099Y+7321099D02*
X+11982901Y+7410901D01*
X+11938000Y+7175500D02*
X+11938000Y+7048500D01*
X+11874500Y+7112000D02*
X+12001500Y+7112000D01*
X+11893099Y+7156901D02*
X+11982901Y+7067099D01*
X+11893099Y+7067099D02*
X+11982901Y+7156901D01*
X+11932920Y+6637020D02*
X+11932920Y+6510020D01*
X+11869420Y+6573520D02*
X+11996420Y+6573520D01*
X+11888019Y+6618421D02*
X+11977821Y+6528619D01*
X+11888019Y+6528619D02*
X+11977821Y+6618421D01*
X+11932920Y+6383020D02*
X+11932920Y+6256020D01*
X+11869420Y+6319520D02*
X+11996420Y+6319520D01*
X+11888019Y+6364421D02*
X+11977821Y+6274619D01*
X+11888019Y+6274619D02*
X+11977821Y+6364421D01*
X+5240020Y+650240D02*
X+5240020Y+523240D01*
X+5176520Y+586740D02*
X+5303520Y+586740D01*
X+5195119Y+631641D02*
X+5284921Y+541839D01*
X+5195119Y+541839D02*
X+5284921Y+631641D01*
X+4986020Y+650240D02*
X+4986020Y+523240D01*
X+4922520Y+586740D02*
X+5049520Y+586740D01*
X+4941119Y+631641D02*
X+5030921Y+541839D01*
X+4941119Y+541839D02*
X+5030921Y+631641D01*
X+4732020Y+650240D02*
X+4732020Y+523240D01*
X+4668520Y+586740D02*
X+4795520Y+586740D01*
X+4687119Y+631641D02*
X+4776921Y+541839D01*
X+4687119Y+541839D02*
X+4776921Y+631641D01*
X+4478020Y+650240D02*
X+4478020Y+523240D01*
X+4414520Y+586740D02*
X+4541520Y+586740D01*
X+4433119Y+631641D02*
X+4522921Y+541839D01*
X+4433119Y+541839D02*
X+4522921Y+631641D01*
X+4224020Y+650240D02*
X+4224020Y+523240D01*
X+4160520Y+586740D02*
X+4287520Y+586740D01*
X+4179119Y+631641D02*
X+4268921Y+541839D01*
X+4179119Y+541839D02*
X+4268921Y+631641D01*
X+8191500Y+1016000D02*
X+8191283Y+1021247D01*
X+8189518Y+1031742D01*
X+8185826Y+1042237D01*
X+8179798Y+1052732D01*
X+8170576Y+1063112D01*
X+8160081Y+1070800D01*
X+8149586Y+1075718D01*
X+8139091Y+1078524D01*
X+8128596Y+1079497D01*
X+8128000Y+1079500D01*
X+8064500Y+1016000D02*
X+8064717Y+1021247D01*
X+8066482Y+1031742D01*
X+8070174Y+1042237D01*
X+8076202Y+1052732D01*
X+8085424Y+1063112D01*
X+8095919Y+1070800D01*
X+8106414Y+1075718D01*
X+8116909Y+1078524D01*
X+8127404Y+1079497D01*
X+8128000Y+1079500D01*
X+8064500Y+1016000D02*
X+8064717Y+1010753D01*
X+8066482Y+1000258D01*
X+8070174Y+989763D01*
X+8076202Y+979268D01*
X+8085424Y+968888D01*
X+8095919Y+961200D01*
X+8106414Y+956282D01*
X+8116909Y+953476D01*
X+8127404Y+952503D01*
X+8128000Y+952500D01*
X+8191500Y+1016000D02*
X+8191283Y+1010753D01*
X+8189518Y+1000258D01*
X+8185826Y+989763D01*
X+8179798Y+979268D01*
X+8170576Y+968888D01*
X+8160081Y+961200D01*
X+8149586Y+956282D01*
X+8139091Y+953476D01*
X+8128596Y+952503D01*
X+8128000Y+952500D01*
X+8083099Y+1060901D02*
X+8172901Y+971099D01*
X+8083099Y+971099D02*
X+8172901Y+1060901D01*
X+8191500Y+2016000D02*
X+8191283Y+2021247D01*
X+8189518Y+2031742D01*
X+8185826Y+2042237D01*
X+8179798Y+2052732D01*
X+8170576Y+2063112D01*
X+8160081Y+2070800D01*
X+8149586Y+2075718D01*
X+8139091Y+2078524D01*
X+8128596Y+2079497D01*
X+8128000Y+2079500D01*
X+8064500Y+2016000D02*
X+8064717Y+2021247D01*
X+8066482Y+2031742D01*
X+8070174Y+2042237D01*
X+8076202Y+2052732D01*
X+8085424Y+2063112D01*
X+8095919Y+2070800D01*
X+8106414Y+2075718D01*
X+8116909Y+2078524D01*
X+8127404Y+2079497D01*
X+8128000Y+2079500D01*
X+8064500Y+2016000D02*
X+8064717Y+2010753D01*
X+8066482Y+2000258D01*
X+8070174Y+1989763D01*
X+8076202Y+1979268D01*
X+8085424Y+1968888D01*
X+8095919Y+1961200D01*
X+8106414Y+1956282D01*
X+8116909Y+1953476D01*
X+8127404Y+1952503D01*
X+8128000Y+1952500D01*
X+8191500Y+2016000D02*
X+8191283Y+2010753D01*
X+8189518Y+2000258D01*
X+8185826Y+1989763D01*
X+8179798Y+1979268D01*
X+8170576Y+1968888D01*
X+8160081Y+1961200D01*
X+8149586Y+1956282D01*
X+8139091Y+1953476D01*
X+8128596Y+1952503D01*
X+8128000Y+1952500D01*
X+8083099Y+2060901D02*
X+8172901Y+1971099D01*
X+8083099Y+1971099D02*
X+8172901Y+2060901D01*
X+7683500Y+2016000D02*
X+7683283Y+2021247D01*
X+7681518Y+2031742D01*
X+7677826Y+2042237D01*
X+7671798Y+2052732D01*
X+7662576Y+2063112D01*
X+7652081Y+2070800D01*
X+7641586Y+2075718D01*
X+7631091Y+2078524D01*
X+7620596Y+2079497D01*
X+7620000Y+2079500D01*
X+7556500Y+2016000D02*
X+7556717Y+2021247D01*
X+7558482Y+2031742D01*
X+7562174Y+2042237D01*
X+7568202Y+2052732D01*
X+7577424Y+2063112D01*
X+7587919Y+2070800D01*
X+7598414Y+2075718D01*
X+7608909Y+2078524D01*
X+7619404Y+2079497D01*
X+7620000Y+2079500D01*
X+7556500Y+2016000D02*
X+7556717Y+2010753D01*
X+7558482Y+2000258D01*
X+7562174Y+1989763D01*
X+7568202Y+1979268D01*
X+7577424Y+1968888D01*
X+7587919Y+1961200D01*
X+7598414Y+1956282D01*
X+7608909Y+1953476D01*
X+7619404Y+1952503D01*
X+7620000Y+1952500D01*
X+7683500Y+2016000D02*
X+7683283Y+2010753D01*
X+7681518Y+2000258D01*
X+7677826Y+1989763D01*
X+7671798Y+1979268D01*
X+7662576Y+1968888D01*
X+7652081Y+1961200D01*
X+7641586Y+1956282D01*
X+7631091Y+1953476D01*
X+7620596Y+1952503D01*
X+7620000Y+1952500D01*
X+7575099Y+2060901D02*
X+7664901Y+1971099D01*
X+7575099Y+1971099D02*
X+7664901Y+2060901D01*
X+7683500Y+1016000D02*
X+7683283Y+1021247D01*
X+7681518Y+1031742D01*
X+7677826Y+1042237D01*
X+7671798Y+1052732D01*
X+7662576Y+1063112D01*
X+7652081Y+1070800D01*
X+7641586Y+1075718D01*
X+7631091Y+1078524D01*
X+7620596Y+1079497D01*
X+7620000Y+1079500D01*
X+7556500Y+1016000D02*
X+7556717Y+1021247D01*
X+7558482Y+1031742D01*
X+7562174Y+1042237D01*
X+7568202Y+1052732D01*
X+7577424Y+1063112D01*
X+7587919Y+1070800D01*
X+7598414Y+1075718D01*
X+7608909Y+1078524D01*
X+7619404Y+1079497D01*
X+7620000Y+1079500D01*
X+7556500Y+1016000D02*
X+7556717Y+1010753D01*
X+7558482Y+1000258D01*
X+7562174Y+989763D01*
X+7568202Y+979268D01*
X+7577424Y+968888D01*
X+7587919Y+961200D01*
X+7598414Y+956282D01*
X+7608909Y+953476D01*
X+7619404Y+952503D01*
X+7620000Y+952500D01*
X+7683500Y+1016000D02*
X+7683283Y+1010753D01*
X+7681518Y+1000258D01*
X+7677826Y+989763D01*
X+7671798Y+979268D01*
X+7662576Y+968888D01*
X+7652081Y+961200D01*
X+7641586Y+956282D01*
X+7631091Y+953476D01*
X+7620596Y+952503D01*
X+7620000Y+952500D01*
X+7575099Y+1060901D02*
X+7664901Y+971099D01*
X+7575099Y+971099D02*
X+7664901Y+1060901D01*
X+2702560Y+993140D02*
X+2702560Y+866140D01*
X+2639060Y+929640D02*
X+2766060Y+929640D01*
X+2657659Y+974541D02*
X+2747461Y+884739D01*
X+2657659Y+884739D02*
X+2747461Y+974541D01*
X+3702560Y+993140D02*
X+3702560Y+866140D01*
X+3639060Y+929640D02*
X+3766060Y+929640D01*
X+3657659Y+974541D02*
X+3747461Y+884739D01*
X+3657659Y+884739D02*
X+3747461Y+974541D01*
X+8729980Y+647700D02*
X+8729980Y+520700D01*
X+8666480Y+584200D02*
X+8793480Y+584200D01*
X+8685079Y+629101D02*
X+8774881Y+539299D01*
X+8685079Y+539299D02*
X+8774881Y+629101D01*
X+8475980Y+647700D02*
X+8475980Y+520700D01*
X+8412480Y+584200D02*
X+8539480Y+584200D01*
X+8431079Y+629101D02*
X+8520881Y+539299D01*
X+8431079Y+539299D02*
X+8520881Y+629101D01*
X+10350500Y+1143000D02*
X+10350283Y+1148247D01*
X+10348518Y+1158742D01*
X+10344826Y+1169237D01*
X+10338798Y+1179732D01*
X+10329576Y+1190112D01*
X+10319081Y+1197800D01*
X+10308586Y+1202718D01*
X+10298091Y+1205524D01*
X+10287596Y+1206497D01*
X+10287000Y+1206500D01*
X+10223500Y+1143000D02*
X+10223717Y+1148247D01*
X+10225482Y+1158742D01*
X+10229174Y+1169237D01*
X+10235202Y+1179732D01*
X+10244424Y+1190112D01*
X+10254919Y+1197800D01*
X+10265414Y+1202718D01*
X+10275909Y+1205524D01*
X+10286404Y+1206497D01*
X+10287000Y+1206500D01*
X+10223500Y+1143000D02*
X+10223717Y+1137753D01*
X+10225482Y+1127258D01*
X+10229174Y+1116763D01*
X+10235202Y+1106268D01*
X+10244424Y+1095888D01*
X+10254919Y+1088200D01*
X+10265414Y+1083282D01*
X+10275909Y+1080476D01*
X+10286404Y+1079503D01*
X+10287000Y+1079500D01*
X+10350500Y+1143000D02*
X+10350283Y+1137753D01*
X+10348518Y+1127258D01*
X+10344826Y+1116763D01*
X+10338798Y+1106268D01*
X+10329576Y+1095888D01*
X+10319081Y+1088200D01*
X+10308586Y+1083282D01*
X+10298091Y+1080476D01*
X+10287596Y+1079503D01*
X+10287000Y+1079500D01*
X+10242099Y+1187901D02*
X+10331901Y+1098099D01*
X+10242099Y+1098099D02*
X+10331901Y+1187901D01*
X+11350500Y+1143000D02*
X+11350283Y+1148247D01*
X+11348518Y+1158742D01*
X+11344826Y+1169237D01*
X+11338798Y+1179732D01*
X+11329576Y+1190112D01*
X+11319081Y+1197800D01*
X+11308586Y+1202718D01*
X+11298091Y+1205524D01*
X+11287596Y+1206497D01*
X+11287000Y+1206500D01*
X+11223500Y+1143000D02*
X+11223717Y+1148247D01*
X+11225482Y+1158742D01*
X+11229174Y+1169237D01*
X+11235202Y+1179732D01*
X+11244424Y+1190112D01*
X+11254919Y+1197800D01*
X+11265414Y+1202718D01*
X+11275909Y+1205524D01*
X+11286404Y+1206497D01*
X+11287000Y+1206500D01*
X+11223500Y+1143000D02*
X+11223717Y+1137753D01*
X+11225482Y+1127258D01*
X+11229174Y+1116763D01*
X+11235202Y+1106268D01*
X+11244424Y+1095888D01*
X+11254919Y+1088200D01*
X+11265414Y+1083282D01*
X+11275909Y+1080476D01*
X+11286404Y+1079503D01*
X+11287000Y+1079500D01*
X+11350500Y+1143000D02*
X+11350283Y+1137753D01*
X+11348518Y+1127258D01*
X+11344826Y+1116763D01*
X+11338798Y+1106268D01*
X+11329576Y+1095888D01*
X+11319081Y+1088200D01*
X+11308586Y+1083282D01*
X+11298091Y+1080476D01*
X+11287596Y+1079503D01*
X+11287000Y+1079500D01*
X+11242099Y+1187901D02*
X+11331901Y+1098099D01*
X+11242099Y+1098099D02*
X+11331901Y+1187901D01*
X+10916920Y+8298180D02*
X+10916703Y+8303427D01*
X+10914938Y+8313922D01*
X+10911246Y+8324417D01*
X+10905218Y+8334912D01*
X+10895996Y+8345292D01*
X+10885501Y+8352980D01*
X+10875006Y+8357898D01*
X+10864511Y+8360704D01*
X+10854016Y+8361677D01*
X+10853420Y+8361680D01*
X+10789920Y+8298180D02*
X+10790137Y+8303427D01*
X+10791902Y+8313922D01*
X+10795594Y+8324417D01*
X+10801622Y+8334912D01*
X+10810844Y+8345292D01*
X+10821339Y+8352980D01*
X+10831834Y+8357898D01*
X+10842329Y+8360704D01*
X+10852824Y+8361677D01*
X+10853420Y+8361680D01*
X+10789920Y+8298180D02*
X+10790137Y+8292933D01*
X+10791902Y+8282438D01*
X+10795594Y+8271943D01*
X+10801622Y+8261448D01*
X+10810844Y+8251068D01*
X+10821339Y+8243380D01*
X+10831834Y+8238462D01*
X+10842329Y+8235656D01*
X+10852824Y+8234683D01*
X+10853420Y+8234680D01*
X+10916920Y+8298180D02*
X+10916703Y+8292933D01*
X+10914938Y+8282438D01*
X+10911246Y+8271943D01*
X+10905218Y+8261448D01*
X+10895996Y+8251068D01*
X+10885501Y+8243380D01*
X+10875006Y+8238462D01*
X+10864511Y+8235656D01*
X+10854016Y+8234683D01*
X+10853420Y+8234680D01*
X+10808519Y+8343081D02*
X+10898321Y+8253279D01*
X+10808519Y+8253279D02*
X+10898321Y+8343081D01*
X+10916920Y+7298180D02*
X+10916703Y+7303427D01*
X+10914938Y+7313922D01*
X+10911246Y+7324417D01*
X+10905218Y+7334912D01*
X+10895996Y+7345292D01*
X+10885501Y+7352980D01*
X+10875006Y+7357898D01*
X+10864511Y+7360704D01*
X+10854016Y+7361677D01*
X+10853420Y+7361680D01*
X+10789920Y+7298180D02*
X+10790137Y+7303427D01*
X+10791902Y+7313922D01*
X+10795594Y+7324417D01*
X+10801622Y+7334912D01*
X+10810844Y+7345292D01*
X+10821339Y+7352980D01*
X+10831834Y+7357898D01*
X+10842329Y+7360704D01*
X+10852824Y+7361677D01*
X+10853420Y+7361680D01*
X+10789920Y+7298180D02*
X+10790137Y+7292933D01*
X+10791902Y+7282438D01*
X+10795594Y+7271943D01*
X+10801622Y+7261448D01*
X+10810844Y+7251068D01*
X+10821339Y+7243380D01*
X+10831834Y+7238462D01*
X+10842329Y+7235656D01*
X+10852824Y+7234683D01*
X+10853420Y+7234680D01*
X+10916920Y+7298180D02*
X+10916703Y+7292933D01*
X+10914938Y+7282438D01*
X+10911246Y+7271943D01*
X+10905218Y+7261448D01*
X+10895996Y+7251068D01*
X+10885501Y+7243380D01*
X+10875006Y+7238462D01*
X+10864511Y+7235656D01*
X+10854016Y+7234683D01*
X+10853420Y+7234680D01*
X+10808519Y+7343081D02*
X+10898321Y+7253279D01*
X+10808519Y+7253279D02*
X+10898321Y+7343081D01*
X+11325860Y+9441180D02*
X+11325643Y+9446427D01*
X+11323878Y+9456922D01*
X+11320186Y+9467417D01*
X+11314158Y+9477912D01*
X+11304936Y+9488292D01*
X+11294441Y+9495980D01*
X+11283946Y+9500898D01*
X+11273451Y+9503704D01*
X+11262956Y+9504677D01*
X+11262360Y+9504680D01*
X+11198860Y+9441180D02*
X+11199077Y+9446427D01*
X+11200842Y+9456922D01*
X+11204534Y+9467417D01*
X+11210562Y+9477912D01*
X+11219784Y+9488292D01*
X+11230279Y+9495980D01*
X+11240774Y+9500898D01*
X+11251269Y+9503704D01*
X+11261764Y+9504677D01*
X+11262360Y+9504680D01*
X+11198860Y+9441180D02*
X+11199077Y+9435933D01*
X+11200842Y+9425438D01*
X+11204534Y+9414943D01*
X+11210562Y+9404448D01*
X+11219784Y+9394068D01*
X+11230279Y+9386380D01*
X+11240774Y+9381462D01*
X+11251269Y+9378656D01*
X+11261764Y+9377683D01*
X+11262360Y+9377680D01*
X+11325860Y+9441180D02*
X+11325643Y+9435933D01*
X+11323878Y+9425438D01*
X+11320186Y+9414943D01*
X+11314158Y+9404448D01*
X+11304936Y+9394068D01*
X+11294441Y+9386380D01*
X+11283946Y+9381462D01*
X+11273451Y+9378656D01*
X+11262956Y+9377683D01*
X+11262360Y+9377680D01*
X+11217459Y+9486081D02*
X+11307261Y+9396279D01*
X+11217459Y+9396279D02*
X+11307261Y+9486081D01*
X+11325860Y+8441180D02*
X+11325643Y+8446427D01*
X+11323878Y+8456922D01*
X+11320186Y+8467417D01*
X+11314158Y+8477912D01*
X+11304936Y+8488292D01*
X+11294441Y+8495980D01*
X+11283946Y+8500898D01*
X+11273451Y+8503704D01*
X+11262956Y+8504677D01*
X+11262360Y+8504680D01*
X+11198860Y+8441180D02*
X+11199077Y+8446427D01*
X+11200842Y+8456922D01*
X+11204534Y+8467417D01*
X+11210562Y+8477912D01*
X+11219784Y+8488292D01*
X+11230279Y+8495980D01*
X+11240774Y+8500898D01*
X+11251269Y+8503704D01*
X+11261764Y+8504677D01*
X+11262360Y+8504680D01*
X+11198860Y+8441180D02*
X+11199077Y+8435933D01*
X+11200842Y+8425438D01*
X+11204534Y+8414943D01*
X+11210562Y+8404448D01*
X+11219784Y+8394068D01*
X+11230279Y+8386380D01*
X+11240774Y+8381462D01*
X+11251269Y+8378656D01*
X+11261764Y+8377683D01*
X+11262360Y+8377680D01*
X+11325860Y+8441180D02*
X+11325643Y+8435933D01*
X+11323878Y+8425438D01*
X+11320186Y+8414943D01*
X+11314158Y+8404448D01*
X+11304936Y+8394068D01*
X+11294441Y+8386380D01*
X+11283946Y+8381462D01*
X+11273451Y+8378656D01*
X+11262956Y+8377683D01*
X+11262360Y+8377680D01*
X+11217459Y+8486081D02*
X+11307261Y+8396279D01*
X+11217459Y+8396279D02*
X+11307261Y+8486081D01*
X+11488420Y+7536180D02*
X+11488203Y+7541427D01*
X+11486438Y+7551922D01*
X+11482746Y+7562417D01*
X+11476718Y+7572912D01*
X+11467496Y+7583292D01*
X+11457001Y+7590980D01*
X+11446506Y+7595898D01*
X+11436011Y+7598704D01*
X+11425516Y+7599677D01*
X+11424920Y+7599680D01*
X+11361420Y+7536180D02*
X+11361637Y+7541427D01*
X+11363402Y+7551922D01*
X+11367094Y+7562417D01*
X+11373122Y+7572912D01*
X+11382344Y+7583292D01*
X+11392839Y+7590980D01*
X+11403334Y+7595898D01*
X+11413829Y+7598704D01*
X+11424324Y+7599677D01*
X+11424920Y+7599680D01*
X+11361420Y+7536180D02*
X+11361637Y+7530933D01*
X+11363402Y+7520438D01*
X+11367094Y+7509943D01*
X+11373122Y+7499448D01*
X+11382344Y+7489068D01*
X+11392839Y+7481380D01*
X+11403334Y+7476462D01*
X+11413829Y+7473656D01*
X+11424324Y+7472683D01*
X+11424920Y+7472680D01*
X+11488420Y+7536180D02*
X+11488203Y+7530933D01*
X+11486438Y+7520438D01*
X+11482746Y+7509943D01*
X+11476718Y+7499448D01*
X+11467496Y+7489068D01*
X+11457001Y+7481380D01*
X+11446506Y+7476462D01*
X+11436011Y+7473656D01*
X+11425516Y+7472683D01*
X+11424920Y+7472680D01*
X+11380019Y+7581081D02*
X+11469821Y+7491279D01*
X+11380019Y+7491279D02*
X+11469821Y+7581081D01*
X+11488420Y+6536180D02*
X+11488203Y+6541427D01*
X+11486438Y+6551922D01*
X+11482746Y+6562417D01*
X+11476718Y+6572912D01*
X+11467496Y+6583292D01*
X+11457001Y+6590980D01*
X+11446506Y+6595898D01*
X+11436011Y+6598704D01*
X+11425516Y+6599677D01*
X+11424920Y+6599680D01*
X+11361420Y+6536180D02*
X+11361637Y+6541427D01*
X+11363402Y+6551922D01*
X+11367094Y+6562417D01*
X+11373122Y+6572912D01*
X+11382344Y+6583292D01*
X+11392839Y+6590980D01*
X+11403334Y+6595898D01*
X+11413829Y+6598704D01*
X+11424324Y+6599677D01*
X+11424920Y+6599680D01*
X+11361420Y+6536180D02*
X+11361637Y+6530933D01*
X+11363402Y+6520438D01*
X+11367094Y+6509943D01*
X+11373122Y+6499448D01*
X+11382344Y+6489068D01*
X+11392839Y+6481380D01*
X+11403334Y+6476462D01*
X+11413829Y+6473656D01*
X+11424324Y+6472683D01*
X+11424920Y+6472680D01*
X+11488420Y+6536180D02*
X+11488203Y+6530933D01*
X+11486438Y+6520438D01*
X+11482746Y+6509943D01*
X+11476718Y+6499448D01*
X+11467496Y+6489068D01*
X+11457001Y+6481380D01*
X+11446506Y+6476462D01*
X+11436011Y+6473656D01*
X+11425516Y+6472683D01*
X+11424920Y+6472680D01*
X+11380019Y+6581081D02*
X+11469821Y+6491279D01*
X+11380019Y+6491279D02*
X+11469821Y+6581081D01*
X+10350500Y+9017000D02*
X+10350283Y+9022247D01*
X+10348518Y+9032742D01*
X+10344826Y+9043237D01*
X+10338798Y+9053732D01*
X+10329576Y+9064112D01*
X+10319081Y+9071800D01*
X+10308586Y+9076718D01*
X+10298091Y+9079524D01*
X+10287596Y+9080497D01*
X+10287000Y+9080500D01*
X+10223500Y+9017000D02*
X+10223717Y+9022247D01*
X+10225482Y+9032742D01*
X+10229174Y+9043237D01*
X+10235202Y+9053732D01*
X+10244424Y+9064112D01*
X+10254919Y+9071800D01*
X+10265414Y+9076718D01*
X+10275909Y+9079524D01*
X+10286404Y+9080497D01*
X+10287000Y+9080500D01*
X+10223500Y+9017000D02*
X+10223717Y+9011753D01*
X+10225482Y+9001258D01*
X+10229174Y+8990763D01*
X+10235202Y+8980268D01*
X+10244424Y+8969888D01*
X+10254919Y+8962200D01*
X+10265414Y+8957282D01*
X+10275909Y+8954476D01*
X+10286404Y+8953503D01*
X+10287000Y+8953500D01*
X+10350500Y+9017000D02*
X+10350283Y+9011753D01*
X+10348518Y+9001258D01*
X+10344826Y+8990763D01*
X+10338798Y+8980268D01*
X+10329576Y+8969888D01*
X+10319081Y+8962200D01*
X+10308586Y+8957282D01*
X+10298091Y+8954476D01*
X+10287596Y+8953503D01*
X+10287000Y+8953500D01*
X+10242099Y+9061901D02*
X+10331901Y+8972099D01*
X+10242099Y+8972099D02*
X+10331901Y+9061901D01*
X+10350500Y+8017000D02*
X+10350283Y+8022247D01*
X+10348518Y+8032742D01*
X+10344826Y+8043237D01*
X+10338798Y+8053732D01*
X+10329576Y+8064112D01*
X+10319081Y+8071800D01*
X+10308586Y+8076718D01*
X+10298091Y+8079524D01*
X+10287596Y+8080497D01*
X+10287000Y+8080500D01*
X+10223500Y+8017000D02*
X+10223717Y+8022247D01*
X+10225482Y+8032742D01*
X+10229174Y+8043237D01*
X+10235202Y+8053732D01*
X+10244424Y+8064112D01*
X+10254919Y+8071800D01*
X+10265414Y+8076718D01*
X+10275909Y+8079524D01*
X+10286404Y+8080497D01*
X+10287000Y+8080500D01*
X+10223500Y+8017000D02*
X+10223717Y+8011753D01*
X+10225482Y+8001258D01*
X+10229174Y+7990763D01*
X+10235202Y+7980268D01*
X+10244424Y+7969888D01*
X+10254919Y+7962200D01*
X+10265414Y+7957282D01*
X+10275909Y+7954476D01*
X+10286404Y+7953503D01*
X+10287000Y+7953500D01*
X+10350500Y+8017000D02*
X+10350283Y+8011753D01*
X+10348518Y+8001258D01*
X+10344826Y+7990763D01*
X+10338798Y+7980268D01*
X+10329576Y+7969888D01*
X+10319081Y+7962200D01*
X+10308586Y+7957282D01*
X+10298091Y+7954476D01*
X+10287596Y+7953503D01*
X+10287000Y+7953500D01*
X+10242099Y+8061901D02*
X+10331901Y+7972099D01*
X+10242099Y+7972099D02*
X+10331901Y+8061901D01*
X+5615940Y+2463800D02*
X+5615723Y+2469047D01*
X+5613958Y+2479542D01*
X+5610266Y+2490037D01*
X+5604238Y+2500532D01*
X+5595016Y+2510912D01*
X+5584521Y+2518600D01*
X+5574026Y+2523518D01*
X+5563531Y+2526324D01*
X+5553036Y+2527297D01*
X+5552440Y+2527300D01*
X+5488940Y+2463800D02*
X+5489157Y+2469047D01*
X+5490922Y+2479542D01*
X+5494614Y+2490037D01*
X+5500642Y+2500532D01*
X+5509864Y+2510912D01*
X+5520359Y+2518600D01*
X+5530854Y+2523518D01*
X+5541349Y+2526324D01*
X+5551844Y+2527297D01*
X+5552440Y+2527300D01*
X+5488940Y+2463800D02*
X+5489157Y+2458553D01*
X+5490922Y+2448058D01*
X+5494614Y+2437563D01*
X+5500642Y+2427068D01*
X+5509864Y+2416688D01*
X+5520359Y+2409000D01*
X+5530854Y+2404082D01*
X+5541349Y+2401276D01*
X+5551844Y+2400303D01*
X+5552440Y+2400300D01*
X+5615940Y+2463800D02*
X+5615723Y+2458553D01*
X+5613958Y+2448058D01*
X+5610266Y+2437563D01*
X+5604238Y+2427068D01*
X+5595016Y+2416688D01*
X+5584521Y+2409000D01*
X+5574026Y+2404082D01*
X+5563531Y+2401276D01*
X+5553036Y+2400303D01*
X+5552440Y+2400300D01*
X+5507539Y+2508701D02*
X+5597341Y+2418899D01*
X+5507539Y+2418899D02*
X+5597341Y+2508701D01*
X+6123940Y+2463800D02*
X+6123723Y+2469047D01*
X+6121958Y+2479542D01*
X+6118266Y+2490037D01*
X+6112238Y+2500532D01*
X+6103016Y+2510912D01*
X+6092521Y+2518600D01*
X+6082026Y+2523518D01*
X+6071531Y+2526324D01*
X+6061036Y+2527297D01*
X+6060440Y+2527300D01*
X+5996940Y+2463800D02*
X+5997157Y+2469047D01*
X+5998922Y+2479542D01*
X+6002614Y+2490037D01*
X+6008642Y+2500532D01*
X+6017864Y+2510912D01*
X+6028359Y+2518600D01*
X+6038854Y+2523518D01*
X+6049349Y+2526324D01*
X+6059844Y+2527297D01*
X+6060440Y+2527300D01*
X+5996940Y+2463800D02*
X+5997157Y+2458553D01*
X+5998922Y+2448058D01*
X+6002614Y+2437563D01*
X+6008642Y+2427068D01*
X+6017864Y+2416688D01*
X+6028359Y+2409000D01*
X+6038854Y+2404082D01*
X+6049349Y+2401276D01*
X+6059844Y+2400303D01*
X+6060440Y+2400300D01*
X+6123940Y+2463800D02*
X+6123723Y+2458553D01*
X+6121958Y+2448058D01*
X+6118266Y+2437563D01*
X+6112238Y+2427068D01*
X+6103016Y+2416688D01*
X+6092521Y+2409000D01*
X+6082026Y+2404082D01*
X+6071531Y+2401276D01*
X+6061036Y+2400303D01*
X+6060440Y+2400300D01*
X+6015539Y+2508701D02*
X+6105341Y+2418899D01*
X+6015539Y+2418899D02*
X+6105341Y+2508701D01*
X+4678939Y+2735401D02*
X+4768741Y+2645599D01*
X+4678939Y+2645599D02*
X+4768741Y+2735401D01*
X+4678939Y+2481401D02*
X+4768741Y+2391599D01*
X+4678939Y+2391599D02*
X+4768741Y+2481401D01*
X+6852739Y+2712541D02*
X+6942541Y+2622739D01*
X+6852739Y+2622739D02*
X+6942541Y+2712541D01*
X+6852739Y+2458541D02*
X+6942541Y+2368739D01*
X+6852739Y+2368739D02*
X+6942541Y+2458541D01*
X+1363279Y+9400141D02*
X+1453081Y+9310339D01*
X+1363279Y+9310339D02*
X+1453081Y+9400141D01*
X+1363279Y+9654141D02*
X+1453081Y+9564339D01*
X+1363279Y+9564339D02*
X+1453081Y+9654141D01*
X+380000Y+9683500D02*
X+380000Y+9556500D01*
X+316500Y+9620000D02*
X+443500Y+9620000D01*
X+316500Y+9556500D02*
X+443500Y+9556500D01*
X+443500Y+9683500D01*
X+316500Y+9683500D01*
X+316500Y+9556500D01*
X+380000Y+443500D02*
X+380000Y+316500D01*
X+316500Y+380000D02*
X+443500Y+380000D01*
X+316500Y+316500D02*
X+443500Y+316500D01*
X+443500Y+443500D01*
X+316500Y+443500D01*
X+316500Y+316500D01*
X+12240000Y+443500D02*
X+12240000Y+316500D01*
X+12176500Y+380000D02*
X+12303500Y+380000D01*
X+12176500Y+316500D02*
X+12303500Y+316500D01*
X+12303500Y+443500D01*
X+12176500Y+443500D01*
X+12176500Y+316500D01*
X+12190000Y+9653500D02*
X+12190000Y+9526500D01*
X+12126500Y+9590000D02*
X+12253500Y+9590000D01*
X+12126500Y+9526500D02*
X+12253500Y+9526500D01*
X+12253500Y+9653500D01*
X+12126500Y+9653500D01*
X+12126500Y+9526500D01*
X+750000Y+6263500D02*
X+750000Y+6136500D01*
X+686500Y+6200000D02*
X+813500Y+6200000D01*
X+705099Y+6244901D02*
X+794901Y+6155099D01*
X+705099Y+6155099D02*
X+794901Y+6244901D01*
X+750000Y+6009500D02*
X+750000Y+5882500D01*
X+686500Y+5946000D02*
X+813500Y+5946000D01*
X+705099Y+5990901D02*
X+794901Y+5901099D01*
X+705099Y+5901099D02*
X+794901Y+5990901D01*
X+750000Y+5755500D02*
X+750000Y+5628500D01*
X+686500Y+5692000D02*
X+813500Y+5692000D01*
X+705099Y+5736901D02*
X+794901Y+5647099D01*
X+705099Y+5647099D02*
X+794901Y+5736901D01*
X+750000Y+5501500D02*
X+750000Y+5374500D01*
X+686500Y+5438000D02*
X+813500Y+5438000D01*
X+705099Y+5482901D02*
X+794901Y+5393099D01*
X+705099Y+5393099D02*
X+794901Y+5482901D01*
X+750000Y+5247500D02*
X+750000Y+5120500D01*
X+686500Y+5184000D02*
X+813500Y+5184000D01*
X+705099Y+5228901D02*
X+794901Y+5139099D01*
X+705099Y+5139099D02*
X+794901Y+5228901D01*
X+1555099Y+2444901D02*
X+1644901Y+2355099D01*
X+1555099Y+2355099D02*
X+1644901Y+2444901D01*
X+1555099Y+3444901D02*
X+1644901Y+3355099D01*
X+1555099Y+3355099D02*
X+1644901Y+3444901D01*
X+1805099Y+2432901D02*
X+1894901Y+2343099D01*
X+1805099Y+2343099D02*
X+1894901Y+2432901D01*
X+1805099Y+3194901D02*
X+1894901Y+3105099D01*
X+1805099Y+3105099D02*
X+1894901Y+3194901D01*
X+2393500Y+1980000D02*
X+2393283Y+1985247D01*
X+2391518Y+1995742D01*
X+2387826Y+2006237D01*
X+2381798Y+2016732D01*
X+2372576Y+2027112D01*
X+2362081Y+2034800D01*
X+2351586Y+2039718D01*
X+2341091Y+2042524D01*
X+2330596Y+2043497D01*
X+2330000Y+2043500D01*
X+2266500Y+1980000D02*
X+2266717Y+1985247D01*
X+2268482Y+1995742D01*
X+2272174Y+2006237D01*
X+2278202Y+2016732D01*
X+2287424Y+2027112D01*
X+2297919Y+2034800D01*
X+2308414Y+2039718D01*
X+2318909Y+2042524D01*
X+2329404Y+2043497D01*
X+2330000Y+2043500D01*
X+2266500Y+1980000D02*
X+2266717Y+1974753D01*
X+2268482Y+1964258D01*
X+2272174Y+1953763D01*
X+2278202Y+1943268D01*
X+2287424Y+1932888D01*
X+2297919Y+1925200D01*
X+2308414Y+1920282D01*
X+2318909Y+1917476D01*
X+2329404Y+1916503D01*
X+2330000Y+1916500D01*
X+2393500Y+1980000D02*
X+2393283Y+1974753D01*
X+2391518Y+1964258D01*
X+2387826Y+1953763D01*
X+2381798Y+1943268D01*
X+2372576Y+1932888D01*
X+2362081Y+1925200D01*
X+2351586Y+1920282D01*
X+2341091Y+1917476D01*
X+2330596Y+1916503D01*
X+2330000Y+1916500D01*
X+2285099Y+2024901D02*
X+2374901Y+1935099D01*
X+2285099Y+1935099D02*
X+2374901Y+2024901D01*
X+2393500Y+1472000D02*
X+2393283Y+1477247D01*
X+2391518Y+1487742D01*
X+2387826Y+1498237D01*
X+2381798Y+1508732D01*
X+2372576Y+1519112D01*
X+2362081Y+1526800D01*
X+2351586Y+1531718D01*
X+2341091Y+1534524D01*
X+2330596Y+1535497D01*
X+2330000Y+1535500D01*
X+2266500Y+1472000D02*
X+2266717Y+1477247D01*
X+2268482Y+1487742D01*
X+2272174Y+1498237D01*
X+2278202Y+1508732D01*
X+2287424Y+1519112D01*
X+2297919Y+1526800D01*
X+2308414Y+1531718D01*
X+2318909Y+1534524D01*
X+2329404Y+1535497D01*
X+2330000Y+1535500D01*
X+2266500Y+1472000D02*
X+2266717Y+1466753D01*
X+2268482Y+1456258D01*
X+2272174Y+1445763D01*
X+2278202Y+1435268D01*
X+2287424Y+1424888D01*
X+2297919Y+1417200D01*
X+2308414Y+1412282D01*
X+2318909Y+1409476D01*
X+2329404Y+1408503D01*
X+2330000Y+1408500D01*
X+2393500Y+1472000D02*
X+2393283Y+1466753D01*
X+2391518Y+1456258D01*
X+2387826Y+1445763D01*
X+2381798Y+1435268D01*
X+2372576Y+1424888D01*
X+2362081Y+1417200D01*
X+2351586Y+1412282D01*
X+2341091Y+1409476D01*
X+2330596Y+1408503D01*
X+2330000Y+1408500D01*
X+2285099Y+1516901D02*
X+2374901Y+1427099D01*
X+2285099Y+1427099D02*
X+2374901Y+1516901D01*
X+0Y+0D02*
X+12750000Y+0D01*
X+12750000Y+10000000D01*
X+0Y+10000000D01*
X+0Y+0D01*
D27*
X-1146905Y-2959559D02*
X+1497235Y-2959559D01*
X+1497235Y-991059D01*
X-1146905Y-991059D01*
X-1146905Y-2959559D01*
D28*
X-679543Y-991059D02*
X-679543Y-2959559D01*
X+133257Y-991059D02*
X+133257Y-2959559D01*
X+966377Y-991059D02*
X+966377Y-2959559D01*
X-1146905Y-1264109D02*
X+1497235Y-1264109D01*
X-1146905Y-1505409D02*
X+1497235Y-1505409D01*
X-1146905Y-1746709D02*
X+1497235Y-1746709D01*
X-1146905Y-1988009D02*
X+1497235Y-1988009D01*
X-1146905Y-2229309D02*
X+1497235Y-2229309D01*
X-1146905Y-2470609D02*
X+1497235Y-2470609D01*
X-1146905Y-2711909D02*
X+1497235Y-2711909D01*
D27*
X-1089755Y-1154889D02*
X-1074515Y-1170129D01*
X-1013555Y-1170129D01*
X-998315Y-1154889D01*
X-998315Y-1139649D01*
X-1013555Y-1124409D01*
X-1074515Y-1124409D01*
X-1089755Y-1109169D01*
X-1089755Y-1093929D01*
X-1074515Y-1078689D01*
X-1013555Y-1078689D01*
X-998315Y-1093929D01*
X-876395Y-1078689D02*
X-967835Y-1170129D01*
X-967835Y-1078689D02*
X-922115Y-1124409D01*
X-845915Y-1170129D02*
X-845915Y-1078689D01*
X-800195Y-1124409D01*
X-754475Y-1078689D01*
X-754475Y-1170129D01*
X-622395Y-1154889D02*
X-607155Y-1170129D01*
X-546195Y-1170129D01*
X-530955Y-1154889D01*
X-530955Y-1139649D01*
X-546195Y-1124409D01*
X-607155Y-1124409D01*
X-622395Y-1109169D01*
X-622395Y-1093929D01*
X-607155Y-1078689D01*
X-546195Y-1078689D01*
X-530955Y-1093929D01*
X-485235Y-1078689D02*
X-424275Y-1078689D01*
X-454755Y-1078689D02*
X-454755Y-1170129D01*
X-485235Y-1170129D02*
X-424275Y-1170129D01*
X-378555Y-1078689D02*
X-287115Y-1078689D01*
X-378555Y-1170129D01*
X-287115Y-1170129D01*
X-165195Y-1170129D02*
X-256635Y-1170129D01*
X-256635Y-1078689D01*
X-165195Y-1078689D01*
X-256635Y-1124409D02*
X-195675Y-1124409D01*
X+190405Y-1170129D02*
X+190405Y-1078689D01*
X+266605Y-1078689D01*
X+281845Y-1093929D01*
X+281845Y-1109169D01*
X+266605Y-1124409D01*
X+190405Y-1124409D01*
X+312325Y-1078689D02*
X+312325Y-1170129D01*
X+403765Y-1170129D01*
X+434245Y-1170129D02*
X+434245Y-1109169D01*
X+464725Y-1078689D01*
X+495205Y-1078689D01*
X+525685Y-1109169D01*
X+525685Y-1170129D01*
X+434245Y-1139649D02*
X+525685Y-1139649D01*
X+556165Y-1078689D02*
X+647605Y-1078689D01*
X+601885Y-1078689D02*
X+601885Y-1170129D01*
X+769525Y-1170129D02*
X+678085Y-1170129D01*
X+678085Y-1078689D01*
X+769525Y-1078689D01*
X+678085Y-1124409D02*
X+739045Y-1124409D01*
X+800005Y-1170129D02*
X+800005Y-1078689D01*
X+860965Y-1078689D01*
X+891445Y-1109169D01*
X+891445Y-1139649D01*
X+860965Y-1170129D01*
X+800005Y-1170129D01*
X+1023525Y-1109169D02*
X+1054005Y-1078689D01*
X+1084485Y-1078689D01*
X+1114965Y-1109169D01*
X+1114965Y-1139649D01*
X+1084485Y-1170129D01*
X+1054005Y-1170129D01*
X+1023525Y-1139649D01*
X+1023525Y-1109169D01*
X+1084485Y-1139649D02*
X+1114965Y-1170129D01*
X+1145445Y-1078689D02*
X+1236885Y-1078689D01*
X+1191165Y-1078689D02*
X+1191165Y-1170129D01*
X+1358805Y-1078689D02*
X+1267365Y-1170129D01*
X+1267365Y-1078689D02*
X+1313085Y-1124409D01*
D26*
X-900525Y-1314909D02*
X-900525Y-1441909D01*
X-964025Y-1378409D02*
X-837025Y-1378409D01*
D27*
X-603345Y-1403809D02*
X-603345Y-1353009D01*
X-590645Y-1340309D01*
X-539845Y-1340309D01*
X-527145Y-1353009D01*
X-527145Y-1403809D01*
X-539845Y-1416509D01*
X-590645Y-1416509D01*
X-603345Y-1403809D01*
X-603345Y-1416509D02*
X-527145Y-1340309D01*
X-463645Y-1403809D02*
X-450945Y-1403809D01*
X-450945Y-1416509D01*
X-463645Y-1416509D01*
X-463645Y-1403809D01*
X-323945Y-1340309D02*
X-387445Y-1340309D01*
X-387445Y-1365709D01*
X-336645Y-1365709D01*
X-323945Y-1378409D01*
X-323945Y-1403809D01*
X-336645Y-1416509D01*
X-374745Y-1416509D01*
X-387445Y-1403809D01*
X-298545Y-1403809D02*
X-298545Y-1353009D01*
X-285845Y-1340309D01*
X-235045Y-1340309D01*
X-222345Y-1353009D01*
X-222345Y-1403809D01*
X-235045Y-1416509D01*
X-285845Y-1416509D01*
X-298545Y-1403809D01*
X-298545Y-1416509D02*
X-222345Y-1340309D01*
X-171545Y-1378409D02*
X-184245Y-1365709D01*
X-184245Y-1353009D01*
X-171545Y-1340309D01*
X-133445Y-1340309D01*
X-120745Y-1353009D01*
X-120745Y-1365709D01*
X-133445Y-1378409D01*
X-171545Y-1378409D01*
X-184245Y-1391109D01*
X-184245Y-1403809D01*
X-171545Y-1416509D01*
X-133445Y-1416509D01*
X-120745Y-1403809D01*
X-120745Y-1391109D01*
X-133445Y-1378409D01*
X-95345Y-1416509D02*
X-95345Y-1365709D01*
X-95345Y-1378409D02*
X-82645Y-1365709D01*
X-57245Y-1391109D01*
X-31845Y-1365709D01*
X-19145Y-1378409D01*
X-19145Y-1416509D01*
X+6255Y-1416509D02*
X+6255Y-1365709D01*
X+6255Y-1378409D02*
X+18955Y-1365709D01*
X+44355Y-1391109D01*
X+69755Y-1365709D01*
X+82455Y-1378409D01*
X+82455Y-1416509D01*
X+298355Y-1340309D02*
X+222155Y-1416509D01*
X+222155Y-1340309D02*
X+260255Y-1378409D01*
X+399955Y-1416509D02*
X+323755Y-1416509D01*
X+323755Y-1340309D01*
X+399955Y-1340309D01*
X+323755Y-1378409D02*
X+374555Y-1378409D01*
X+425355Y-1403809D02*
X+438055Y-1416509D01*
X+488855Y-1416509D01*
X+501555Y-1403809D01*
X+501555Y-1391109D01*
X+488855Y-1378409D01*
X+438055Y-1378409D01*
X+425355Y-1365709D01*
X+425355Y-1353009D01*
X+438055Y-1340309D01*
X+488855Y-1340309D01*
X+501555Y-1353009D01*
X+1093375Y-1365709D02*
X+1118775Y-1340309D01*
X+1118775Y-1416509D01*
X+1182275Y-1353009D02*
X+1194975Y-1340309D01*
X+1233075Y-1340309D01*
X+1245775Y-1353009D01*
X+1245775Y-1365709D01*
X+1233075Y-1378409D01*
X+1194975Y-1378409D01*
X+1182275Y-1391109D01*
X+1182275Y-1416509D01*
X+1245775Y-1416509D01*
X+1347375Y-1353009D02*
X+1334675Y-1340309D01*
X+1296575Y-1340309D01*
X+1283875Y-1353009D01*
X+1283875Y-1403809D01*
X+1296575Y-1416509D01*
X+1334675Y-1416509D01*
X+1347375Y-1403809D01*
X+1347375Y-1391109D01*
X+1334675Y-1378409D01*
X+1283875Y-1378409D01*
D26*
X-945426Y-1574808D02*
X-855624Y-1664610D01*
X-945426Y-1664610D02*
X-855624Y-1574808D01*
D27*
X-603345Y-1645109D02*
X-603345Y-1594309D01*
X-590645Y-1581609D01*
X-539845Y-1581609D01*
X-527145Y-1594309D01*
X-527145Y-1645109D01*
X-539845Y-1657809D01*
X-590645Y-1657809D01*
X-603345Y-1645109D01*
X-603345Y-1657809D02*
X-527145Y-1581609D01*
X-463645Y-1645109D02*
X-450945Y-1645109D01*
X-450945Y-1657809D01*
X-463645Y-1657809D01*
X-463645Y-1645109D01*
X-387445Y-1581609D02*
X-323945Y-1581609D01*
X-323945Y-1594309D01*
X-387445Y-1657809D01*
X-222345Y-1594309D02*
X-235045Y-1581609D01*
X-273145Y-1581609D01*
X-285845Y-1594309D01*
X-285845Y-1645109D01*
X-273145Y-1657809D01*
X-235045Y-1657809D01*
X-222345Y-1645109D01*
X-222345Y-1632409D01*
X-235045Y-1619709D01*
X-285845Y-1619709D01*
X-184245Y-1594309D02*
X-171545Y-1581609D01*
X-133445Y-1581609D01*
X-120745Y-1594309D01*
X-120745Y-1607009D01*
X-133445Y-1619709D01*
X-171545Y-1619709D01*
X-184245Y-1632409D01*
X-184245Y-1657809D01*
X-120745Y-1657809D01*
X-95345Y-1657809D02*
X-95345Y-1607009D01*
X-95345Y-1619709D02*
X-82645Y-1607009D01*
X-57245Y-1632409D01*
X-31845Y-1607009D01*
X-19145Y-1619709D01*
X-19145Y-1657809D01*
X+6255Y-1657809D02*
X+6255Y-1607009D01*
X+6255Y-1619709D02*
X+18955Y-1607009D01*
X+44355Y-1632409D01*
X+69755Y-1607009D01*
X+82455Y-1619709D01*
X+82455Y-1657809D01*
X+298355Y-1581609D02*
X+222155Y-1657809D01*
X+222155Y-1581609D02*
X+260255Y-1619709D01*
X+399955Y-1657809D02*
X+323755Y-1657809D01*
X+323755Y-1581609D01*
X+399955Y-1581609D01*
X+323755Y-1619709D02*
X+374555Y-1619709D01*
X+425355Y-1645109D02*
X+438055Y-1657809D01*
X+488855Y-1657809D01*
X+501555Y-1645109D01*
X+501555Y-1632409D01*
X+488855Y-1619709D01*
X+438055Y-1619709D01*
X+425355Y-1607009D01*
X+425355Y-1594309D01*
X+438055Y-1581609D01*
X+488855Y-1581609D01*
X+501555Y-1594309D01*
X+1080675Y-1594309D02*
X+1093375Y-1581609D01*
X+1131475Y-1581609D01*
X+1144175Y-1594309D01*
X+1144175Y-1607009D01*
X+1131475Y-1619709D01*
X+1093375Y-1619709D01*
X+1080675Y-1632409D01*
X+1080675Y-1657809D01*
X+1144175Y-1657809D01*
X+1169575Y-1645109D02*
X+1169575Y-1594309D01*
X+1182275Y-1581609D01*
X+1233075Y-1581609D01*
X+1245775Y-1594309D01*
X+1245775Y-1645109D01*
X+1233075Y-1657809D01*
X+1182275Y-1657809D01*
X+1169575Y-1645109D01*
X+1169575Y-1657809D02*
X+1245775Y-1581609D01*
D26*
X-900525Y-1797509D02*
X-900525Y-1924509D01*
X-964025Y-1861009D02*
X-837025Y-1861009D01*
X-945426Y-1816108D02*
X-855624Y-1905910D01*
X-945426Y-1905910D02*
X-855624Y-1816108D01*
D27*
X-577945Y-1848309D02*
X-552545Y-1822909D01*
X-552545Y-1899109D01*
X-463645Y-1886409D02*
X-450945Y-1886409D01*
X-450945Y-1899109D01*
X-463645Y-1899109D01*
X-463645Y-1886409D01*
X-400145Y-1886409D02*
X-400145Y-1835609D01*
X-387445Y-1822909D01*
X-336645Y-1822909D01*
X-323945Y-1835609D01*
X-323945Y-1886409D01*
X-336645Y-1899109D01*
X-387445Y-1899109D01*
X-400145Y-1886409D01*
X-400145Y-1899109D02*
X-323945Y-1822909D01*
X-273145Y-1848309D02*
X-247745Y-1822909D01*
X-247745Y-1899109D01*
X-120745Y-1835609D02*
X-133445Y-1822909D01*
X-171545Y-1822909D01*
X-184245Y-1835609D01*
X-184245Y-1886409D01*
X-171545Y-1899109D01*
X-133445Y-1899109D01*
X-120745Y-1886409D01*
X-120745Y-1873709D01*
X-133445Y-1861009D01*
X-184245Y-1861009D01*
X-95345Y-1899109D02*
X-95345Y-1848309D01*
X-95345Y-1861009D02*
X-82645Y-1848309D01*
X-57245Y-1873709D01*
X-31845Y-1848309D01*
X-19145Y-1861009D01*
X-19145Y-1899109D01*
X+6255Y-1899109D02*
X+6255Y-1848309D01*
X+6255Y-1861009D02*
X+18955Y-1848309D01*
X+44355Y-1873709D01*
X+69755Y-1848309D01*
X+82455Y-1861009D01*
X+82455Y-1899109D01*
X+298355Y-1822909D02*
X+222155Y-1899109D01*
X+222155Y-1822909D02*
X+260255Y-1861009D01*
X+399955Y-1899109D02*
X+323755Y-1899109D01*
X+323755Y-1822909D01*
X+399955Y-1822909D01*
X+323755Y-1861009D02*
X+374555Y-1861009D01*
X+425355Y-1886409D02*
X+438055Y-1899109D01*
X+488855Y-1899109D01*
X+501555Y-1886409D01*
X+501555Y-1873709D01*
X+488855Y-1861009D01*
X+438055Y-1861009D01*
X+425355Y-1848309D01*
X+425355Y-1835609D01*
X+438055Y-1822909D01*
X+488855Y-1822909D01*
X+501555Y-1835609D01*
X+1144175Y-1835609D02*
X+1131475Y-1822909D01*
X+1093375Y-1822909D01*
X+1080675Y-1835609D01*
X+1080675Y-1886409D01*
X+1093375Y-1899109D01*
X+1131475Y-1899109D01*
X+1144175Y-1886409D01*
X+1144175Y-1873709D01*
X+1131475Y-1861009D01*
X+1080675Y-1861009D01*
X+1245775Y-1873709D02*
X+1169575Y-1873709D01*
X+1220375Y-1822909D01*
X+1220375Y-1899109D01*
D26*
X-837025Y-2102309D02*
X-837242Y-2097062D01*
X-839007Y-2086567D01*
X-842699Y-2076072D01*
X-848727Y-2065577D01*
X-857949Y-2055197D01*
X-868444Y-2047509D01*
X-878939Y-2042591D01*
X-889434Y-2039785D01*
X-899929Y-2038812D01*
X-900525Y-2038809D01*
X-964025Y-2102309D02*
X-963808Y-2097062D01*
X-962043Y-2086567D01*
X-958351Y-2076072D01*
X-952323Y-2065577D01*
X-943101Y-2055197D01*
X-932606Y-2047509D01*
X-922111Y-2042591D01*
X-911616Y-2039785D01*
X-901121Y-2038812D01*
X-900525Y-2038809D01*
X-964025Y-2102309D02*
X-963808Y-2107556D01*
X-962043Y-2118051D01*
X-958351Y-2128546D01*
X-952323Y-2139041D01*
X-943101Y-2149421D01*
X-932606Y-2157109D01*
X-922111Y-2162027D01*
X-911616Y-2164833D01*
X-901121Y-2165806D01*
X-900525Y-2165809D01*
X-837025Y-2102309D02*
X-837242Y-2107556D01*
X-839007Y-2118051D01*
X-842699Y-2128546D01*
X-848727Y-2139041D01*
X-857949Y-2149421D01*
X-868444Y-2157109D01*
X-878939Y-2162027D01*
X-889434Y-2164833D01*
X-899929Y-2165806D01*
X-900525Y-2165809D01*
X-900525Y-2038809D02*
X-900525Y-2165809D01*
X-964025Y-2102309D02*
X-837025Y-2102309D01*
D27*
X-577945Y-2089609D02*
X-552545Y-2064209D01*
X-552545Y-2140409D01*
X-463645Y-2127709D02*
X-450945Y-2127709D01*
X-450945Y-2140409D01*
X-463645Y-2140409D01*
X-463645Y-2127709D01*
X-387445Y-2076909D02*
X-374745Y-2064209D01*
X-336645Y-2064209D01*
X-323945Y-2076909D01*
X-323945Y-2089609D01*
X-336645Y-2102309D01*
X-374745Y-2102309D01*
X-387445Y-2115009D01*
X-387445Y-2140409D01*
X-323945Y-2140409D01*
X-285845Y-2064209D02*
X-222345Y-2064209D01*
X-222345Y-2076909D01*
X-285845Y-2140409D01*
X-196945Y-2140409D02*
X-196945Y-2089609D01*
X-196945Y-2102309D02*
X-184245Y-2089609D01*
X-158845Y-2115009D01*
X-133445Y-2089609D01*
X-120745Y-2102309D01*
X-120745Y-2140409D01*
X-95345Y-2140409D02*
X-95345Y-2089609D01*
X-95345Y-2102309D02*
X-82645Y-2089609D01*
X-57245Y-2115009D01*
X-31845Y-2089609D01*
X-19145Y-2102309D01*
X-19145Y-2140409D01*
X+298355Y-2064209D02*
X+222155Y-2140409D01*
X+222155Y-2064209D02*
X+260255Y-2102309D01*
X+399955Y-2140409D02*
X+323755Y-2140409D01*
X+323755Y-2064209D01*
X+399955Y-2064209D01*
X+323755Y-2102309D02*
X+374555Y-2102309D01*
X+425355Y-2127709D02*
X+438055Y-2140409D01*
X+488855Y-2140409D01*
X+501555Y-2127709D01*
X+501555Y-2115009D01*
X+488855Y-2102309D01*
X+438055Y-2102309D01*
X+425355Y-2089609D01*
X+425355Y-2076909D01*
X+438055Y-2064209D01*
X+488855Y-2064209D01*
X+501555Y-2076909D01*
X+1080675Y-2076909D02*
X+1093375Y-2064209D01*
X+1131475Y-2064209D01*
X+1144175Y-2076909D01*
X+1144175Y-2089609D01*
X+1131475Y-2102309D01*
X+1093375Y-2102309D01*
X+1080675Y-2115009D01*
X+1080675Y-2140409D01*
X+1144175Y-2140409D01*
D26*
X-837025Y-2343609D02*
X-837242Y-2338362D01*
X-839007Y-2327867D01*
X-842699Y-2317372D01*
X-848727Y-2306877D01*
X-857949Y-2296497D01*
X-868444Y-2288809D01*
X-878939Y-2283891D01*
X-889434Y-2281085D01*
X-899929Y-2280112D01*
X-900525Y-2280109D01*
X-964025Y-2343609D02*
X-963808Y-2338362D01*
X-962043Y-2327867D01*
X-958351Y-2317372D01*
X-952323Y-2306877D01*
X-943101Y-2296497D01*
X-932606Y-2288809D01*
X-922111Y-2283891D01*
X-911616Y-2281085D01*
X-901121Y-2280112D01*
X-900525Y-2280109D01*
X-964025Y-2343609D02*
X-963808Y-2348856D01*
X-962043Y-2359351D01*
X-958351Y-2369846D01*
X-952323Y-2380341D01*
X-943101Y-2390721D01*
X-932606Y-2398409D01*
X-922111Y-2403327D01*
X-911616Y-2406133D01*
X-901121Y-2407106D01*
X-900525Y-2407109D01*
X-837025Y-2343609D02*
X-837242Y-2348856D01*
X-839007Y-2359351D01*
X-842699Y-2369846D01*
X-848727Y-2380341D01*
X-857949Y-2390721D01*
X-868444Y-2398409D01*
X-878939Y-2403327D01*
X-889434Y-2406133D01*
X-899929Y-2407106D01*
X-900525Y-2407109D01*
X-945426Y-2298708D02*
X-855624Y-2388510D01*
X-945426Y-2388510D02*
X-855624Y-2298708D01*
D27*
X-577945Y-2330909D02*
X-552545Y-2305509D01*
X-552545Y-2381709D01*
X-463645Y-2369009D02*
X-450945Y-2369009D01*
X-450945Y-2381709D01*
X-463645Y-2381709D01*
X-463645Y-2369009D01*
X-374745Y-2330909D02*
X-349345Y-2305509D01*
X-349345Y-2381709D01*
X-222345Y-2356309D02*
X-298545Y-2356309D01*
X-247745Y-2305509D01*
X-247745Y-2381709D01*
X-184245Y-2318209D02*
X-171545Y-2305509D01*
X-133445Y-2305509D01*
X-120745Y-2318209D01*
X-120745Y-2330909D01*
X-133445Y-2343609D01*
X-120745Y-2356309D01*
X-120745Y-2369009D01*
X-133445Y-2381709D01*
X-171545Y-2381709D01*
X-184245Y-2369009D01*
X-158845Y-2343609D02*
X-133445Y-2343609D01*
X-95345Y-2381709D02*
X-95345Y-2330909D01*
X-95345Y-2343609D02*
X-82645Y-2330909D01*
X-57245Y-2356309D01*
X-31845Y-2330909D01*
X-19145Y-2343609D01*
X-19145Y-2381709D01*
X+6255Y-2381709D02*
X+6255Y-2330909D01*
X+6255Y-2343609D02*
X+18955Y-2330909D01*
X+44355Y-2356309D01*
X+69755Y-2330909D01*
X+82455Y-2343609D01*
X+82455Y-2381709D01*
X+298355Y-2305509D02*
X+222155Y-2381709D01*
X+222155Y-2305509D02*
X+260255Y-2343609D01*
X+399955Y-2381709D02*
X+323755Y-2381709D01*
X+323755Y-2305509D01*
X+399955Y-2305509D01*
X+323755Y-2343609D02*
X+374555Y-2343609D01*
X+425355Y-2369009D02*
X+438055Y-2381709D01*
X+488855Y-2381709D01*
X+501555Y-2369009D01*
X+501555Y-2356309D01*
X+488855Y-2343609D01*
X+438055Y-2343609D01*
X+425355Y-2330909D01*
X+425355Y-2318209D01*
X+438055Y-2305509D01*
X+488855Y-2305509D01*
X+501555Y-2318209D01*
X+1080675Y-2318209D02*
X+1093375Y-2305509D01*
X+1131475Y-2305509D01*
X+1144175Y-2318209D01*
X+1144175Y-2330909D01*
X+1131475Y-2343609D01*
X+1144175Y-2356309D01*
X+1144175Y-2369009D01*
X+1131475Y-2381709D01*
X+1093375Y-2381709D01*
X+1080675Y-2369009D01*
X+1106075Y-2343609D02*
X+1131475Y-2343609D01*
X+1182275Y-2318209D02*
X+1194975Y-2305509D01*
X+1233075Y-2305509D01*
X+1245775Y-2318209D01*
X+1245775Y-2330909D01*
X+1233075Y-2343609D01*
X+1194975Y-2343609D01*
X+1182275Y-2356309D01*
X+1182275Y-2381709D01*
X+1245775Y-2381709D01*
D26*
X-837025Y-2584909D02*
X-837242Y-2579662D01*
X-839007Y-2569167D01*
X-842699Y-2558672D01*
X-848727Y-2548177D01*
X-857949Y-2537797D01*
X-868444Y-2530109D01*
X-878939Y-2525191D01*
X-889434Y-2522385D01*
X-899929Y-2521412D01*
X-900525Y-2521409D01*
X-964025Y-2584909D02*
X-963808Y-2579662D01*
X-962043Y-2569167D01*
X-958351Y-2558672D01*
X-952323Y-2548177D01*
X-943101Y-2537797D01*
X-932606Y-2530109D01*
X-922111Y-2525191D01*
X-911616Y-2522385D01*
X-901121Y-2521412D01*
X-900525Y-2521409D01*
X-964025Y-2584909D02*
X-963808Y-2590156D01*
X-962043Y-2600651D01*
X-958351Y-2611146D01*
X-952323Y-2621641D01*
X-943101Y-2632021D01*
X-932606Y-2639709D01*
X-922111Y-2644627D01*
X-911616Y-2647433D01*
X-901121Y-2648406D01*
X-900525Y-2648409D01*
X-837025Y-2584909D02*
X-837242Y-2590156D01*
X-839007Y-2600651D01*
X-842699Y-2611146D01*
X-848727Y-2621641D01*
X-857949Y-2632021D01*
X-868444Y-2639709D01*
X-878939Y-2644627D01*
X-889434Y-2647433D01*
X-899929Y-2648406D01*
X-900525Y-2648409D01*
X-900525Y-2521409D02*
X-900525Y-2648409D01*
X-964025Y-2584909D02*
X-837025Y-2584909D01*
X-837242Y-2579662D01*
X-839007Y-2569167D01*
X-842699Y-2558672D01*
X-848727Y-2548177D01*
X-857949Y-2537797D01*
X-868444Y-2530109D01*
X-878939Y-2525191D01*
X-889434Y-2522385D01*
X-899929Y-2521412D01*
X-900525Y-2521409D01*
X-964025Y-2584909D02*
X-963808Y-2579662D01*
X-962043Y-2569167D01*
X-958351Y-2558672D01*
X-952323Y-2548177D01*
X-943101Y-2537797D01*
X-932606Y-2530109D01*
X-922111Y-2525191D01*
X-911616Y-2522385D01*
X-901121Y-2521412D01*
X-900525Y-2521409D01*
X-964025Y-2584909D02*
X-963808Y-2590156D01*
X-962043Y-2600651D01*
X-958351Y-2611146D01*
X-952323Y-2621641D01*
X-943101Y-2632021D01*
X-932606Y-2639709D01*
X-922111Y-2644627D01*
X-911616Y-2647433D01*
X-901121Y-2648406D01*
X-900525Y-2648409D01*
X-837025Y-2584909D02*
X-837242Y-2590156D01*
X-839007Y-2600651D01*
X-842699Y-2611146D01*
X-848727Y-2621641D01*
X-857949Y-2632021D01*
X-868444Y-2639709D01*
X-878939Y-2644627D01*
X-889434Y-2647433D01*
X-899929Y-2648406D01*
X-900525Y-2648409D01*
X-945426Y-2540008D02*
X-855624Y-2629810D01*
X-945426Y-2629810D02*
X-855624Y-2540008D01*
D27*
X-577945Y-2572209D02*
X-552545Y-2546809D01*
X-552545Y-2623009D01*
X-463645Y-2610309D02*
X-450945Y-2610309D01*
X-450945Y-2623009D01*
X-463645Y-2623009D01*
X-463645Y-2610309D01*
X-323945Y-2546809D02*
X-387445Y-2546809D01*
X-387445Y-2572209D01*
X-336645Y-2572209D01*
X-323945Y-2584909D01*
X-323945Y-2610309D01*
X-336645Y-2623009D01*
X-374745Y-2623009D01*
X-387445Y-2610309D01*
X-285845Y-2559509D02*
X-273145Y-2546809D01*
X-235045Y-2546809D01*
X-222345Y-2559509D01*
X-222345Y-2572209D01*
X-235045Y-2584909D01*
X-273145Y-2584909D01*
X-285845Y-2597609D01*
X-285845Y-2623009D01*
X-222345Y-2623009D01*
X-120745Y-2597609D02*
X-196945Y-2597609D01*
X-146145Y-2546809D01*
X-146145Y-2623009D01*
X-95345Y-2623009D02*
X-95345Y-2572209D01*
X-95345Y-2584909D02*
X-82645Y-2572209D01*
X-57245Y-2597609D01*
X-31845Y-2572209D01*
X-19145Y-2584909D01*
X-19145Y-2623009D01*
X+6255Y-2623009D02*
X+6255Y-2572209D01*
X+6255Y-2584909D02*
X+18955Y-2572209D01*
X+44355Y-2597609D01*
X+69755Y-2572209D01*
X+82455Y-2584909D01*
X+82455Y-2623009D01*
X+298355Y-2546809D02*
X+222155Y-2623009D01*
X+222155Y-2546809D02*
X+260255Y-2584909D01*
X+399955Y-2623009D02*
X+323755Y-2623009D01*
X+323755Y-2546809D01*
X+399955Y-2546809D01*
X+323755Y-2584909D02*
X+374555Y-2584909D01*
X+425355Y-2610309D02*
X+438055Y-2623009D01*
X+488855Y-2623009D01*
X+501555Y-2610309D01*
X+501555Y-2597609D01*
X+488855Y-2584909D01*
X+438055Y-2584909D01*
X+425355Y-2572209D01*
X+425355Y-2559509D01*
X+438055Y-2546809D01*
X+488855Y-2546809D01*
X+501555Y-2559509D01*
X+1093375Y-2572209D02*
X+1118775Y-2546809D01*
X+1118775Y-2623009D01*
X+1182275Y-2559509D02*
X+1194975Y-2546809D01*
X+1233075Y-2546809D01*
X+1245775Y-2559509D01*
X+1245775Y-2572209D01*
X+1233075Y-2584909D01*
X+1245775Y-2597609D01*
X+1245775Y-2610309D01*
X+1233075Y-2623009D01*
X+1194975Y-2623009D01*
X+1182275Y-2610309D01*
X+1207675Y-2584909D02*
X+1233075Y-2584909D01*
D26*
X-900525Y-2762709D02*
X-900525Y-2889709D01*
X-964025Y-2826209D02*
X-837025Y-2826209D01*
X-964025Y-2889709D02*
X-837025Y-2889709D01*
X-837025Y-2762709D01*
X-964025Y-2762709D01*
X-964025Y-2889709D01*
D27*
X-527145Y-2838909D02*
X-603345Y-2838909D01*
X-552545Y-2788109D01*
X-552545Y-2864309D01*
X-501745Y-2864309D02*
X-501745Y-2813509D01*
X-501745Y-2826209D02*
X-489045Y-2813509D01*
X-463645Y-2838909D01*
X-438245Y-2813509D01*
X-425545Y-2826209D01*
X-425545Y-2864309D01*
X-400145Y-2864309D02*
X-400145Y-2813509D01*
X-400145Y-2826209D02*
X-387445Y-2813509D01*
X-362045Y-2838909D01*
X-336645Y-2813509D01*
X-323945Y-2826209D01*
X-323945Y-2864309D01*
X+298355Y-2788109D02*
X+222155Y-2864309D01*
X+222155Y-2788109D02*
X+260255Y-2826209D01*
X+399955Y-2864309D02*
X+323755Y-2864309D01*
X+323755Y-2788109D01*
X+399955Y-2788109D01*
X+323755Y-2826209D02*
X+374555Y-2826209D01*
X+425355Y-2851609D02*
X+438055Y-2864309D01*
X+488855Y-2864309D01*
X+501555Y-2851609D01*
X+501555Y-2838909D01*
X+488855Y-2826209D01*
X+438055Y-2826209D01*
X+425355Y-2813509D01*
X+425355Y-2800809D01*
X+438055Y-2788109D01*
X+488855Y-2788109D01*
X+501555Y-2800809D01*
X+1144175Y-2838909D02*
X+1067975Y-2838909D01*
X+1118775Y-2788109D01*
X+1118775Y-2864309D01*
M02*
