M48
METRIC,TZ
T01C0.5080
T02C1.2700
T03C1.5240
T04C1.0160
T05C1.1430
T06C0.7620
T07C4.0000
%
T01
X+50165Y+12700
X+34925Y+81280
X+95885Y+86360
X+112395Y+67310
X+116205Y+73660
X+41275Y+53340
X+61595Y+5867
X+71120Y+54610
X+71327Y+35664
X+35255Y+92685
X+7341Y+91084
X+43854Y+91915
X+65399Y+91875
X+27737Y+63500
X+33414Y+54260
X+24874Y+54260
X+109008Y+29087
X+102235Y+60960
X+9500Y+17500
X+13510Y+42634
X+16831Y+36435
X+8031Y+65682
X+47677Y+30715
X+11000Y+56500
X+48260Y+37200
X+41910Y+46355
X+40162Y+30103
X+18800Y+11300
X+28400Y+11900
X+53340Y+59995
X+87630Y+60020
X+7663Y+47923
X+15188Y+75181
X+17728Y+75181
X+20268Y+75181
X+22808Y+75181
X+25348Y+75181
X+27888Y+75181
X+30428Y+75181
X+32968Y+75181
X+32688Y+87681
X+30188Y+87681
X+27688Y+87681
X+25188Y+87681
X+22688Y+87681
X+20188Y+87681
X+17688Y+87681
X+15188Y+87681
X+44450Y+74930
X+46990Y+74930
X+49530Y+74930
X+52070Y+74930
X+54610Y+74930
X+57150Y+74930
X+59690Y+74930
X+62230Y+74930
X+61950Y+87430
X+59450Y+87430
X+56950Y+87430
X+54450Y+87430
X+51950Y+87430
X+49450Y+87430
X+46950Y+87430
X+44450Y+87430
X+74830Y+74930
X+77370Y+74930
X+79910Y+74930
X+82450Y+74930
X+84990Y+74930
X+87530Y+74930
X+90070Y+74930
X+92610Y+74930
X+92330Y+87430
X+89830Y+87430
X+87330Y+87430
X+84830Y+87430
X+82330Y+87430
X+79830Y+87430
X+77330Y+87430
X+74830Y+87430
X+19787Y+34239
X+22327Y+34239
X+24867Y+34239
X+27407Y+34239
X+29947Y+34239
X+32487Y+34239
X+35027Y+34239
X+37567Y+34239
X+40107Y+34239
X+42647Y+34239
X+45187Y+34239
X+47727Y+34239
X+50267Y+34239
X+52807Y+34239
X+55347Y+34239
X+57887Y+34239
X+60427Y+34239
X+62967Y+34239
X+65507Y+34239
X+68047Y+34239
X+68047Y+49479
X+65507Y+49479
X+62967Y+49479
X+60427Y+49479
X+57887Y+49479
X+55347Y+49479
X+52807Y+49479
X+50267Y+49479
X+47727Y+49479
X+45187Y+49479
X+42647Y+49479
X+40107Y+49479
X+37567Y+49479
X+35027Y+49479
X+32487Y+49479
X+29947Y+49479
X+27407Y+49479
X+24867Y+49479
X+22327Y+49479
X+19787Y+49479
X+79500Y+37936
X+79500Y+39968
X+79500Y+42000
X+116815Y+27102
X+116815Y+25070
X+116815Y+23038
T02
X+97553Y+23089
X+105553Y+23089
T03
X+102395Y+36060
X+94800Y+36060
X+102300Y+43560
X+94800Y+43800
X+102395Y+48880
X+94800Y+48800
X+102300Y+53800
X+94800Y+53800
X+3988Y+84328
X+3988Y+79324
X+117348Y+53213
X+117348Y+48209
X+117348Y+43205
T04
X+82550Y+63500
X+82550Y+66040
X+85090Y+63500
X+85090Y+66040
X+87630Y+63500
X+87630Y+66040
X+22581Y+66040
X+22581Y+63500
X+20041Y+66040
X+20041Y+63500
X+17501Y+66040
X+17501Y+63500
X+50800Y+63500
X+50800Y+66040
X+53340Y+63500
X+53340Y+66040
X+55880Y+63500
X+55880Y+66040
X+13060Y+34360
X+13060Y+24360
X+20650Y+95326
X+23190Y+95326
X+25730Y+95326
X+28270Y+95326
X+49530Y+95250
X+52070Y+95250
X+54610Y+95250
X+57150Y+95250
X+80010Y+95250
X+82550Y+95250
X+85090Y+95250
X+87630Y+95250
X+7600Y+44500
X+7600Y+41960
X+7600Y+39420
X+7600Y+36880
X+41326Y+18847
X+41326Y+16307
X+41326Y+13767
X+97841Y+95275
X+100381Y+95275
X+102921Y+95275
X+119253Y+88798
X+119253Y+86258
X+119329Y+80391
X+119329Y+77851
X+119380Y+73660
X+119380Y+71120
X+119329Y+65735
X+119329Y+63195
X+52400Y+5867
X+49860Y+5867
X+47320Y+5867
X+44780Y+5867
X+42240Y+5867
X+27026Y+9296
X+37026Y+9296
X+87300Y+5842
X+84760Y+5842
X+7500Y+62000
X+7500Y+59460
X+7500Y+56920
X+7500Y+54380
X+7500Y+51840
T05
X+107394Y+34414
X+115014Y+34414
X+73609Y+33739
X+73609Y+43739
X+107036Y+16789
X+117036Y+16789
X+12828Y+59055
X+12828Y+69055
X+35740Y+25920
X+25740Y+25920
X+38100Y+57150
X+28100Y+57150
X+53340Y+55880
X+43340Y+55880
X+81280Y+10160
X+81280Y+20160
X+76200Y+20160
X+76200Y+10160
X+102870Y+11430
X+112870Y+11430
X+108534Y+82982
X+108534Y+72982
X+112624Y+94412
X+112624Y+84412
X+114249Y+75362
X+114249Y+65362
X+102870Y+90170
X+102870Y+80170
X+55524Y+24638
X+60604Y+24638
X+23300Y+19800
X+23300Y+14720
T06
X+39370Y+92710
X+39370Y+95250
X+71120Y+92710
X+71120Y+95250
X+12276Y+20017
X+12276Y+14937
X+59690Y+15510
X+59690Y+17510
X+68580Y+15240
X+68580Y+20320
X+47238Y+26905
X+47238Y+24365
X+68976Y+26676
X+68976Y+24136
X+14082Y+93552
X+14082Y+96092
X+16000Y+24000
X+16000Y+34000
X+18500Y+23880
X+18500Y+31500
T07
X+3800Y+96200
X+3800Y+3800
X+122400Y+3800
X+121900Y+95900
M30
