G04 PROTEUS RS274X GERBER FILE*
%FSLAX45Y45*%
%MOMM*%
G01*
%ADD11C,0.203200*%
%ADD13C,0.127000*%
%ADD14C,0.063500*%
D11*
X+1000000Y+3063500D02*
X+1000000Y+2936500D01*
X+936500Y+3000000D02*
X+1063500Y+3000000D01*
X+3500000Y+2563500D02*
X+3500000Y+2436500D01*
X+3436500Y+2500000D02*
X+3563500Y+2500000D01*
X+3000000Y+4063500D02*
X+3000000Y+3936500D01*
X+2936500Y+4000000D02*
X+3063500Y+4000000D01*
X+2000000Y+1063500D02*
X+2000000Y+936500D01*
X+1936500Y+1000000D02*
X+2063500Y+1000000D01*
X+0Y+0D02*
X+5000000Y+0D01*
X+5000000Y+5000000D01*
X+0Y+5000000D01*
X+0Y+0D01*
D13*
X-10160Y-784860D02*
X+2633980Y-784860D01*
X+2633980Y-264160D01*
X-10160Y-264160D01*
X-10160Y-784860D01*
D14*
X+457202Y-264160D02*
X+457202Y-784860D01*
X+1270002Y-264160D02*
X+1270002Y-784860D01*
X+2103122Y-264160D02*
X+2103122Y-784860D01*
X-10160Y-537210D02*
X+2633980Y-537210D01*
D13*
X+46990Y-427990D02*
X+62230Y-443230D01*
X+123190Y-443230D01*
X+138430Y-427990D01*
X+138430Y-412750D01*
X+123190Y-397510D01*
X+62230Y-397510D01*
X+46990Y-382270D01*
X+46990Y-367030D01*
X+62230Y-351790D01*
X+123190Y-351790D01*
X+138430Y-367030D01*
X+260350Y-351790D02*
X+168910Y-443230D01*
X+168910Y-351790D02*
X+214630Y-397510D01*
X+290830Y-443230D02*
X+290830Y-351790D01*
X+336550Y-397510D01*
X+382270Y-351790D01*
X+382270Y-443230D01*
X+514350Y-427990D02*
X+529590Y-443230D01*
X+590550Y-443230D01*
X+605790Y-427990D01*
X+605790Y-412750D01*
X+590550Y-397510D01*
X+529590Y-397510D01*
X+514350Y-382270D01*
X+514350Y-367030D01*
X+529590Y-351790D01*
X+590550Y-351790D01*
X+605790Y-367030D01*
X+651510Y-351790D02*
X+712470Y-351790D01*
X+681990Y-351790D02*
X+681990Y-443230D01*
X+651510Y-443230D02*
X+712470Y-443230D01*
X+758190Y-351790D02*
X+849630Y-351790D01*
X+758190Y-443230D01*
X+849630Y-443230D01*
X+971550Y-443230D02*
X+880110Y-443230D01*
X+880110Y-351790D01*
X+971550Y-351790D01*
X+880110Y-397510D02*
X+941070Y-397510D01*
X+1327150Y-443230D02*
X+1327150Y-351790D01*
X+1403350Y-351790D01*
X+1418590Y-367030D01*
X+1418590Y-382270D01*
X+1403350Y-397510D01*
X+1327150Y-397510D01*
X+1449070Y-351790D02*
X+1449070Y-443230D01*
X+1540510Y-443230D01*
X+1570990Y-443230D02*
X+1570990Y-382270D01*
X+1601470Y-351790D01*
X+1631950Y-351790D01*
X+1662430Y-382270D01*
X+1662430Y-443230D01*
X+1570990Y-412750D02*
X+1662430Y-412750D01*
X+1692910Y-351790D02*
X+1784350Y-351790D01*
X+1738630Y-351790D02*
X+1738630Y-443230D01*
X+1906270Y-443230D02*
X+1814830Y-443230D01*
X+1814830Y-351790D01*
X+1906270Y-351790D01*
X+1814830Y-397510D02*
X+1875790Y-397510D01*
X+1936750Y-443230D02*
X+1936750Y-351790D01*
X+1997710Y-351790D01*
X+2028190Y-382270D01*
X+2028190Y-412750D01*
X+1997710Y-443230D01*
X+1936750Y-443230D01*
X+2160270Y-382270D02*
X+2190750Y-351790D01*
X+2221230Y-351790D01*
X+2251710Y-382270D01*
X+2251710Y-412750D01*
X+2221230Y-443230D01*
X+2190750Y-443230D01*
X+2160270Y-412750D01*
X+2160270Y-382270D01*
X+2221230Y-412750D02*
X+2251710Y-443230D01*
X+2282190Y-351790D02*
X+2373630Y-351790D01*
X+2327910Y-351790D02*
X+2327910Y-443230D01*
X+2495550Y-351790D02*
X+2404110Y-443230D01*
X+2404110Y-351790D02*
X+2449830Y-397510D01*
D11*
X+236220Y-588010D02*
X+236220Y-715010D01*
X+172720Y-651510D02*
X+299720Y-651510D01*
D13*
X+533400Y-676910D02*
X+533400Y-626110D01*
X+546100Y-613410D01*
X+596900Y-613410D01*
X+609600Y-626110D01*
X+609600Y-676910D01*
X+596900Y-689610D01*
X+546100Y-689610D01*
X+533400Y-676910D01*
X+533400Y-689610D02*
X+609600Y-613410D01*
X+673100Y-676910D02*
X+685800Y-676910D01*
X+685800Y-689610D01*
X+673100Y-689610D01*
X+673100Y-676910D01*
X+749300Y-626110D02*
X+762000Y-613410D01*
X+800100Y-613410D01*
X+812800Y-626110D01*
X+812800Y-638810D01*
X+800100Y-651510D01*
X+812800Y-664210D01*
X+812800Y-676910D01*
X+800100Y-689610D01*
X+762000Y-689610D01*
X+749300Y-676910D01*
X+774700Y-651510D02*
X+800100Y-651510D01*
X+863600Y-651510D02*
X+850900Y-638810D01*
X+850900Y-626110D01*
X+863600Y-613410D01*
X+901700Y-613410D01*
X+914400Y-626110D01*
X+914400Y-638810D01*
X+901700Y-651510D01*
X+863600Y-651510D01*
X+850900Y-664210D01*
X+850900Y-676910D01*
X+863600Y-689610D01*
X+901700Y-689610D01*
X+914400Y-676910D01*
X+914400Y-664210D01*
X+901700Y-651510D01*
X+965200Y-638810D02*
X+990600Y-613410D01*
X+990600Y-689610D01*
X+1041400Y-689610D02*
X+1041400Y-638810D01*
X+1041400Y-651510D02*
X+1054100Y-638810D01*
X+1079500Y-664210D01*
X+1104900Y-638810D01*
X+1117600Y-651510D01*
X+1117600Y-689610D01*
X+1143000Y-689610D02*
X+1143000Y-638810D01*
X+1143000Y-651510D02*
X+1155700Y-638810D01*
X+1181100Y-664210D01*
X+1206500Y-638810D01*
X+1219200Y-651510D01*
X+1219200Y-689610D01*
X+1435100Y-613410D02*
X+1358900Y-689610D01*
X+1358900Y-613410D02*
X+1397000Y-651510D01*
X+1536700Y-689610D02*
X+1460500Y-689610D01*
X+1460500Y-613410D01*
X+1536700Y-613410D01*
X+1460500Y-651510D02*
X+1511300Y-651510D01*
X+1562100Y-676910D02*
X+1574800Y-689610D01*
X+1625600Y-689610D01*
X+1638300Y-676910D01*
X+1638300Y-664210D01*
X+1625600Y-651510D01*
X+1574800Y-651510D01*
X+1562100Y-638810D01*
X+1562100Y-626110D01*
X+1574800Y-613410D01*
X+1625600Y-613410D01*
X+1638300Y-626110D01*
X+2280920Y-664210D02*
X+2204720Y-664210D01*
X+2255520Y-613410D01*
X+2255520Y-689610D01*
M02*
